M48
; DRILL file {KiCad 7.0.2-0} date 2023 August 30, Wednesday 19:58:26
; FORMAT={-:-/ absolute / inch / decimal}
; #@! TF.CreationDate,2023-08-30T19:58:26-04:00
; #@! TF.GenerationSoftware,Kicad,Pcbnew,7.0.2-0
; #@! TF.FileFunction,MixedPlating,1,4
FMAT,2
INCH
; #@! TA.AperFunction,Plated,PTH,ViaDrill
T1C0.0157
; #@! TA.AperFunction,Plated,PTH,ComponentDrill
T2C0.0197
; #@! TA.AperFunction,Plated,PTH,ComponentDrill
T3C0.0276
; #@! TA.AperFunction,Plated,PTH,ComponentDrill
T4C0.0315
; #@! TA.AperFunction,Plated,PTH,ComponentDrill
T5C0.0354
; #@! TA.AperFunction,Plated,PTH,ComponentDrill
T6C0.0394
; #@! TA.AperFunction,Plated,PTH,ComponentDrill
T7C0.0433
; #@! TA.AperFunction,Plated,PTH,ComponentDrill
T8C0.0630
; #@! TA.AperFunction,Plated,PTH,ComponentDrill
T9C0.1181
; #@! TA.AperFunction,NonPlated,NPTH,ComponentDrill
T10C0.1000
; #@! TA.AperFunction,NonPlated,NPTH,ComponentDrill
T11C0.1260
%
G90
G05
T1
X3.43Y-3.955
X3.45Y-2.83
X3.53Y-2.51
X3.62Y-1.25
X3.77Y-2.46
X3.85Y-3.74
X3.86Y-3.34
X4.045Y-1.02
X4.045Y-1.09
X4.155Y-2.435
X4.33Y-2.63
X4.66Y-1.22
X4.79Y-2.58
X5.33Y-2.48
T2
X3.59Y-3.4439
X3.59Y-3.6361
T3
X4.15Y-2.69
X4.15Y-2.79
X4.15Y-2.89
X4.15Y-2.99
X4.15Y-3.09
X4.15Y-3.19
X4.15Y-3.29
X4.15Y-3.39
X4.15Y-3.49
X4.15Y-3.59
X4.15Y-3.69
X4.15Y-3.79
X4.15Y-3.89
X4.15Y-3.99
X4.45Y-2.69
X4.45Y-2.79
X4.45Y-2.89
X4.45Y-2.99
X4.45Y-3.09
X4.45Y-3.19
X4.45Y-3.29
X4.45Y-3.39
X4.45Y-3.49
X4.45Y-3.59
X4.45Y-3.69
X4.45Y-3.79
X4.45Y-3.89
X4.45Y-3.99
T4
X4.34Y-0.77
X4.44Y-0.77
X4.55Y-0.77
X4.65Y-0.77
X5.62Y-2.35
X5.72Y-2.35
T5
X5.4466Y-1.006
X5.4466Y-1.134
X5.545Y-1.006
X5.545Y-1.134
X5.6435Y-1.006
X5.6435Y-1.134
T6
X3.485Y-0.81
X3.485Y-0.91
X3.485Y-1.01
X4.795Y-0.99
X4.795Y-1.19
X4.895Y-0.99
X4.895Y-1.19
X5.195Y-0.99
X5.195Y-1.19
T7
X2.7128Y-2.5407
X2.7128Y-2.6407
X2.7128Y-2.7407
X2.7128Y-2.8407
X2.7128Y-2.9407
X2.7128Y-3.0407
X2.7128Y-3.1407
X2.7128Y-3.2407
X2.7128Y-3.3407
X2.7128Y-3.4407
X2.7128Y-3.5407
X2.7128Y-3.6407
X2.7128Y-3.7407
X2.7128Y-3.8407
X2.7128Y-3.9407
X2.7128Y-4.0407
X2.7128Y-4.1407
X2.7128Y-4.2407
X2.7128Y-4.3407
X2.7128Y-4.4407
X2.8128Y-2.5407
X2.8128Y-2.6407
X2.8128Y-2.7407
X2.8128Y-2.8407
X2.8128Y-2.9407
X2.8128Y-3.0407
X2.8128Y-3.1407
X2.8128Y-3.2407
X2.8128Y-3.3407
X2.8128Y-3.4407
X2.8128Y-3.5407
X2.8128Y-3.6407
X2.8128Y-3.7407
X2.8128Y-3.8407
X2.8128Y-3.9407
X2.8128Y-4.0407
X2.8128Y-4.1407
X2.8128Y-4.2407
X2.8128Y-4.3407
X2.8128Y-4.4407
X5.806Y-3.0
X5.806Y-3.1
X5.806Y-3.2
X5.806Y-3.3
X5.806Y-3.4
X5.806Y-3.5
X5.806Y-3.75
X5.806Y-3.85
X5.806Y-3.95
X5.806Y-4.05
X5.806Y-4.15
T8
X2.755Y-1.79
X5.625Y-1.79
T9
X2.7628Y-2.3489
X2.7628Y-4.6324
X4.6526Y-2.3489
X4.6526Y-4.6324
T10
X3.3Y-3.0
X3.3Y-4.3
X5.4Y-3.0
X5.4Y-4.3
X5.7Y-0.8
X5.7Y-4.6
T11
X3.0953Y-1.79
X5.2847Y-1.79
T6
G00X2.87Y-0.8408
M15
G01X2.87Y-0.9392
M16
G05
G00X3.0373Y-1.075
M15
G01X2.9389Y-1.075
M16
G05
G00X3.1062Y-0.8408
M15
G01X3.1062Y-0.9392
M16
G05
T0
M30
