%TF.GenerationSoftware,KiCad,Pcbnew,7.0.2-0*%
%TF.CreationDate,2023-08-30T19:58:31-04:00*%
%TF.ProjectId,Pedometer_Prototype_1,5065646f-6d65-4746-9572-5f50726f746f,rev?*%
%TF.SameCoordinates,Original*%
%TF.FileFunction,Soldermask,Top*%
%TF.FilePolarity,Negative*%
%FSLAX46Y46*%
G04 Gerber Fmt 4.6, Leading zero omitted, Abs format (unit mm)*
G04 Created by KiCad (PCBNEW 7.0.2-0) date 2023-08-30 19:58:31*
%MOMM*%
%LPD*%
G01*
G04 APERTURE LIST*
G04 Aperture macros list*
%AMRoundRect*
0 Rectangle with rounded corners*
0 $1 Rounding radius*
0 $2 $3 $4 $5 $6 $7 $8 $9 X,Y pos of 4 corners*
0 Add a 4 corners polygon primitive as box body*
4,1,4,$2,$3,$4,$5,$6,$7,$8,$9,$2,$3,0*
0 Add four circle primitives for the rounded corners*
1,1,$1+$1,$2,$3*
1,1,$1+$1,$4,$5*
1,1,$1+$1,$6,$7*
1,1,$1+$1,$8,$9*
0 Add four rect primitives between the rounded corners*
20,1,$1+$1,$2,$3,$4,$5,0*
20,1,$1+$1,$4,$5,$6,$7,0*
20,1,$1+$1,$6,$7,$8,$9,0*
20,1,$1+$1,$8,$9,$2,$3,0*%
G04 Aperture macros list end*
%ADD10C,1.400000*%
%ADD11C,1.000000*%
%ADD12C,2.540000*%
%ADD13RoundRect,0.250000X-0.450000X0.350000X-0.450000X-0.350000X0.450000X-0.350000X0.450000X0.350000X0*%
%ADD14RoundRect,0.250000X0.337500X0.475000X-0.337500X0.475000X-0.337500X-0.475000X0.337500X-0.475000X0*%
%ADD15RoundRect,0.250000X-0.337500X-0.475000X0.337500X-0.475000X0.337500X0.475000X-0.337500X0.475000X0*%
%ADD16RoundRect,0.250000X-0.475000X0.337500X-0.475000X-0.337500X0.475000X-0.337500X0.475000X0.337500X0*%
%ADD17RoundRect,0.250000X-0.350000X-0.450000X0.350000X-0.450000X0.350000X0.450000X-0.350000X0.450000X0*%
%ADD18C,2.600000*%
%ADD19C,3.200000*%
%ADD20RoundRect,0.250000X0.350000X0.450000X-0.350000X0.450000X-0.350000X-0.450000X0.350000X-0.450000X0*%
%ADD21RoundRect,0.250000X0.262500X0.450000X-0.262500X0.450000X-0.262500X-0.450000X0.262500X-0.450000X0*%
%ADD22RoundRect,0.250000X0.450000X-0.262500X0.450000X0.262500X-0.450000X0.262500X-0.450000X-0.262500X0*%
%ADD23R,0.300000X0.670000*%
%ADD24C,1.600000*%
%ADD25RoundRect,0.250000X0.450000X-0.350000X0.450000X0.350000X-0.450000X0.350000X-0.450000X-0.350000X0*%
%ADD26RoundRect,0.150000X-0.512500X-0.150000X0.512500X-0.150000X0.512500X0.150000X-0.512500X0.150000X0*%
%ADD27RoundRect,0.250000X-0.262500X-0.450000X0.262500X-0.450000X0.262500X0.450000X-0.262500X0.450000X0*%
%ADD28R,1.500000X4.000000*%
%ADD29R,4.000000X1.500000*%
%ADD30C,2.000000*%
%ADD31R,1.600000X1.600000*%
%ADD32O,1.600000X1.600000*%
%ADD33C,1.800000*%
%ADD34RoundRect,0.225000X0.225000X0.375000X-0.225000X0.375000X-0.225000X-0.375000X0.225000X-0.375000X0*%
G04 APERTURE END LIST*
D10*
%TO.C,D2*%
X110236000Y-19558000D03*
X112776000Y-19558000D03*
%TD*%
%TO.C,D1*%
X115570000Y-19558000D03*
X118110000Y-19558000D03*
%TD*%
%TO.C,D4*%
X142748000Y-59690000D03*
X145288000Y-59690000D03*
%TD*%
%TO.C,U1*%
X113030000Y-68326000D03*
X113030000Y-70866000D03*
X113030000Y-73406000D03*
X113030000Y-75946000D03*
X113030000Y-78486000D03*
X113030000Y-81026000D03*
X113030000Y-83566000D03*
X113030000Y-86106000D03*
X113030000Y-88646000D03*
X113030000Y-91186000D03*
X113030000Y-93726000D03*
X113030000Y-96266000D03*
X113030000Y-98806000D03*
X113030000Y-101346000D03*
X105410000Y-101346000D03*
X105410000Y-98806000D03*
X105410000Y-96266000D03*
X105410000Y-93726000D03*
X105410000Y-91186000D03*
X105410000Y-88646000D03*
X105410000Y-86106000D03*
X105410000Y-83566000D03*
X105410000Y-81026000D03*
X105410000Y-78486000D03*
X105410000Y-75946000D03*
X105410000Y-73406000D03*
X105410000Y-70866000D03*
X105410000Y-68326000D03*
%TD*%
D11*
%TO.C,X1*%
X91186000Y-87476000D03*
X91186000Y-92356000D03*
%TD*%
D12*
%TO.C,REF\u002A\u002A*%
X144780000Y-116840000D03*
%TD*%
D13*
%TO.C,R3*%
X116078000Y-25670000D03*
X116078000Y-27670000D03*
%TD*%
D12*
%TO.C,REF\u002A\u002A*%
X137160000Y-109220000D03*
%TD*%
D14*
%TO.C,C2*%
X100054500Y-94996000D03*
X102129500Y-94996000D03*
%TD*%
D15*
%TO.C,C7*%
X87841000Y-31750000D03*
X89916000Y-31750000D03*
%TD*%
D16*
%TO.C,C3*%
X87630000Y-67796500D03*
X87630000Y-69871500D03*
%TD*%
D12*
%TO.C,REF\u002A\u002A*%
X83820000Y-76200000D03*
%TD*%
D17*
%TO.C,R1*%
X105680000Y-22606000D03*
X107680000Y-22606000D03*
%TD*%
D18*
%TO.C,B1*%
X142876000Y-45466000D03*
X69976000Y-45466000D03*
D19*
X134231000Y-45466000D03*
X78621000Y-45466000D03*
%TD*%
D20*
%TO.C,R10*%
X145272000Y-64770000D03*
X143272000Y-64770000D03*
%TD*%
D21*
%TO.C,R6*%
X109497500Y-58293000D03*
X107672500Y-58293000D03*
%TD*%
D12*
%TO.C,REF\u002A\u002A*%
X144780000Y-20320000D03*
%TD*%
D22*
%TO.C,R7*%
X107823000Y-64412500D03*
X107823000Y-62587500D03*
%TD*%
D12*
%TO.C,REF\u002A\u002A*%
X137160000Y-76200000D03*
%TD*%
D23*
%TO.C,Q1*%
X110244000Y-62484000D03*
X110744000Y-62484000D03*
X111244000Y-62484000D03*
X111244000Y-61214000D03*
X110744000Y-61214000D03*
X110244000Y-61214000D03*
%TD*%
D24*
%TO.C,J3*%
X147472400Y-76200000D03*
X147472400Y-78740000D03*
X147472400Y-81280000D03*
X147472400Y-83820000D03*
X147472400Y-86360000D03*
X147472400Y-88900000D03*
%TD*%
%TO.C,J2*%
X147472400Y-105410000D03*
X147472400Y-102870000D03*
X147472400Y-100330000D03*
X147472400Y-97790000D03*
X147472400Y-95250000D03*
%TD*%
D14*
%TO.C,C4*%
X93726000Y-62484000D03*
X91651000Y-62484000D03*
%TD*%
D25*
%TO.C,R2*%
X112014000Y-27654000D03*
X112014000Y-25654000D03*
%TD*%
D26*
%TO.C,U2*%
X91451000Y-67696000D03*
X91451000Y-68646000D03*
X91451000Y-69596000D03*
X93726000Y-69596000D03*
X93726000Y-67696000D03*
%TD*%
D27*
%TO.C,R9*%
X117094000Y-65532000D03*
X118919000Y-65532000D03*
%TD*%
D26*
%TO.C,U3*%
X105675000Y-25786000D03*
X105675000Y-26736000D03*
X105675000Y-27686000D03*
X107950000Y-27686000D03*
X107950000Y-25786000D03*
%TD*%
D16*
%TO.C,C6*%
X117580500Y-90953500D03*
X117580500Y-88878500D03*
%TD*%
D14*
%TO.C,C1*%
X100054500Y-84836000D03*
X102129500Y-84836000D03*
%TD*%
D15*
%TO.C,C5*%
X114278500Y-30988000D03*
X116353500Y-30988000D03*
%TD*%
D28*
%TO.C,J4*%
X78898000Y-22606000D03*
X72898000Y-22606000D03*
D29*
X75898000Y-27306000D03*
%TD*%
D23*
%TO.C,Q2*%
X136660000Y-60833000D03*
X137160000Y-60833000D03*
X137660000Y-60833000D03*
X137660000Y-59563000D03*
X137160000Y-59563000D03*
X136660000Y-59563000D03*
%TD*%
D30*
%TO.C,PS1*%
X88519000Y-20574000D03*
X88519000Y-23114000D03*
X88519000Y-25654000D03*
%TD*%
%TO.C,K1*%
X121794000Y-25146000D03*
X124334000Y-25146000D03*
X131954000Y-25146000D03*
X131954000Y-30226000D03*
X124334000Y-30226000D03*
X121794000Y-30226000D03*
%TD*%
D19*
%TO.C,J1*%
X70176000Y-59663000D03*
X70176000Y-117663000D03*
X118176000Y-59663000D03*
X118176000Y-117663000D03*
D31*
X68906000Y-64533000D03*
D32*
X71446000Y-64533000D03*
X68906000Y-67073000D03*
X71446000Y-67073000D03*
X68906000Y-69613000D03*
X71446000Y-69613000D03*
X68906000Y-72153000D03*
X71446000Y-72153000D03*
X68906000Y-74693000D03*
X71446000Y-74693000D03*
X68906000Y-77233000D03*
X71446000Y-77233000D03*
X68906000Y-79773000D03*
X71446000Y-79773000D03*
X68906000Y-82313000D03*
X71446000Y-82313000D03*
X68906000Y-84853000D03*
X71446000Y-84853000D03*
X68906000Y-87393000D03*
X71446000Y-87393000D03*
X68906000Y-89933000D03*
X71446000Y-89933000D03*
X68906000Y-92473000D03*
X71446000Y-92473000D03*
X68906000Y-95013000D03*
X71446000Y-95013000D03*
X68906000Y-97553000D03*
X71446000Y-97553000D03*
X68906000Y-100093000D03*
X71446000Y-100093000D03*
X68906000Y-102633000D03*
X71446000Y-102633000D03*
X68906000Y-105173000D03*
X71446000Y-105173000D03*
X68906000Y-107713000D03*
X71446000Y-107713000D03*
X68906000Y-110253000D03*
X71446000Y-110253000D03*
X68906000Y-112793000D03*
X71446000Y-112793000D03*
%TD*%
D27*
%TO.C,R8*%
X113006500Y-62484000D03*
X114831500Y-62484000D03*
%TD*%
D13*
%TO.C,R5*%
X83820000Y-99314000D03*
X83820000Y-101314000D03*
%TD*%
%TO.C,R4*%
X91440000Y-99330000D03*
X91440000Y-101330000D03*
%TD*%
D33*
%TO.C,SW1*%
X143344000Y-28803000D03*
X140844000Y-28803000D03*
X138344000Y-28803000D03*
X143344000Y-25553000D03*
X140844000Y-25553000D03*
X138344000Y-25553000D03*
%TD*%
D34*
%TO.C,D3*%
X128650000Y-20320000D03*
X125350000Y-20320000D03*
%TD*%
D12*
%TO.C,REF\u002A\u002A*%
X83820000Y-109220000D03*
%TD*%
M02*
