%TF.GenerationSoftware,KiCad,Pcbnew,7.0.2-0*%
%TF.CreationDate,2023-08-30T19:58:31-04:00*%
%TF.ProjectId,Pedometer_Prototype_1,5065646f-6d65-4746-9572-5f50726f746f,rev?*%
%TF.SameCoordinates,Original*%
%TF.FileFunction,Copper,L3,Inr*%
%TF.FilePolarity,Positive*%
%FSLAX46Y46*%
G04 Gerber Fmt 4.6, Leading zero omitted, Abs format (unit mm)*
G04 Created by KiCad (PCBNEW 7.0.2-0) date 2023-08-30 19:58:31*
%MOMM*%
%LPD*%
G01*
G04 APERTURE LIST*
%TA.AperFunction,ComponentPad*%
%ADD10C,1.400000*%
%TD*%
%TA.AperFunction,ComponentPad*%
%ADD11C,1.000000*%
%TD*%
%TA.AperFunction,ComponentPad*%
%ADD12C,2.600000*%
%TD*%
%TA.AperFunction,ComponentPad*%
%ADD13C,1.600000*%
%TD*%
%TA.AperFunction,ComponentPad*%
%ADD14R,1.500000X4.000000*%
%TD*%
%TA.AperFunction,ComponentPad*%
%ADD15R,4.000000X1.500000*%
%TD*%
%TA.AperFunction,ComponentPad*%
%ADD16C,2.000000*%
%TD*%
%TA.AperFunction,ComponentPad*%
%ADD17C,3.200000*%
%TD*%
%TA.AperFunction,ComponentPad*%
%ADD18R,1.600000X1.600000*%
%TD*%
%TA.AperFunction,ComponentPad*%
%ADD19O,1.600000X1.600000*%
%TD*%
%TA.AperFunction,ComponentPad*%
%ADD20C,1.800000*%
%TD*%
%TA.AperFunction,ViaPad*%
%ADD21C,0.800000*%
%TD*%
G04 APERTURE END LIST*
D10*
%TO.N,/+5V*%
%TO.C,D2*%
X110236000Y-19558000D03*
%TO.N,Net-(D2--)*%
X112776000Y-19558000D03*
%TD*%
%TO.N,/+3.3V*%
%TO.C,D1*%
X115570000Y-19558000D03*
%TO.N,Net-(D1--)*%
X118110000Y-19558000D03*
%TD*%
%TO.N,/+3.3V*%
%TO.C,D4*%
X142748000Y-59690000D03*
%TO.N,Net-(D4--)*%
X145288000Y-59690000D03*
%TD*%
%TO.N,/PGD*%
%TO.C,U1*%
X113030000Y-68326000D03*
%TO.N,/PGC*%
X113030000Y-70866000D03*
%TO.N,/STATE*%
X113030000Y-73406000D03*
%TO.N,unconnected-(U1-RB4-Pad25)*%
X113030000Y-75946000D03*
%TO.N,unconnected-(U1-RB3-Pad24)*%
X113030000Y-78486000D03*
%TO.N,unconnected-(U1-RB2-Pad23)*%
X113030000Y-81026000D03*
%TO.N,/LED_CTRL*%
X113030000Y-83566000D03*
%TO.N,/BATT_CHARGE*%
X113030000Y-86106000D03*
%TO.N,/+3.3V*%
X113030000Y-88646000D03*
%TO.N,GND*%
X113030000Y-91186000D03*
%TO.N,/RX*%
X113030000Y-93726000D03*
%TO.N,/TX*%
X113030000Y-96266000D03*
%TO.N,unconnected-(U1-RC5-Pad16)*%
X113030000Y-98806000D03*
%TO.N,/I2C_SDA*%
X113030000Y-101346000D03*
%TO.N,/I2C_SCL*%
X105410000Y-101346000D03*
%TO.N,unconnected-(U1-RC2-Pad13)*%
X105410000Y-98806000D03*
%TO.N,unconnected-(U1-RC1-Pad12)*%
X105410000Y-96266000D03*
%TO.N,unconnected-(U1-RC0-Pad11)*%
X105410000Y-93726000D03*
%TO.N,/OSC2*%
X105410000Y-91186000D03*
%TO.N,/OSC1*%
X105410000Y-88646000D03*
%TO.N,GND*%
X105410000Y-86106000D03*
%TO.N,unconnected-(U1-RA5-Pad7)*%
X105410000Y-83566000D03*
%TO.N,unconnected-(U1-RA4-Pad6)*%
X105410000Y-81026000D03*
%TO.N,unconnected-(U1-RA3-Pad5)*%
X105410000Y-78486000D03*
%TO.N,unconnected-(U1-RA2-Pad4)*%
X105410000Y-75946000D03*
%TO.N,unconnected-(U1-RA1-Pad3)*%
X105410000Y-73406000D03*
%TO.N,/ADC0*%
X105410000Y-70866000D03*
%TO.N,/MCLR*%
X105410000Y-68326000D03*
%TD*%
D11*
%TO.N,/OSC1*%
%TO.C,X1*%
X91186000Y-87476000D03*
%TO.N,/OSC2*%
X91186000Y-92356000D03*
%TD*%
D12*
%TO.N,GND*%
%TO.C,B1*%
X142876000Y-45466000D03*
%TO.N,/BAT*%
X69976000Y-45466000D03*
%TD*%
D13*
%TO.N,/STATE*%
%TO.C,J3*%
X147472400Y-76200000D03*
%TO.N,/TX*%
X147472400Y-78740000D03*
%TO.N,/RX*%
X147472400Y-81280000D03*
%TO.N,GND*%
X147472400Y-83820000D03*
%TO.N,/LINEAR_REG_INPUT*%
X147472400Y-86360000D03*
%TO.N,unconnected-(J3-EN-Pad6)*%
X147472400Y-88900000D03*
%TD*%
%TO.N,/MCLR*%
%TO.C,J2*%
X147472400Y-105410000D03*
%TO.N,/+3.3V*%
X147472400Y-102870000D03*
%TO.N,GND*%
X147472400Y-100330000D03*
%TO.N,/PGD*%
X147472400Y-97790000D03*
%TO.N,/PGC*%
X147472400Y-95250000D03*
%TD*%
D14*
%TO.N,/DC_IN*%
%TO.C,J4*%
X78898000Y-22606000D03*
%TO.N,GND*%
X72898000Y-22606000D03*
D15*
X75898000Y-27306000D03*
%TD*%
D16*
%TO.N,/DC_IN*%
%TO.C,PS1*%
X88519000Y-20574000D03*
%TO.N,GND*%
X88519000Y-23114000D03*
%TO.N,/+5V*%
X88519000Y-25654000D03*
%TD*%
%TO.N,/+5V*%
%TO.C,K1*%
X121794000Y-25146000D03*
%TO.N,GND*%
X124334000Y-25146000D03*
%TO.N,/LINEAR_REG_INPUT*%
X131954000Y-25146000D03*
X131954000Y-30226000D03*
%TO.N,/+5V*%
X124334000Y-30226000D03*
%TO.N,/BAT_AFTER_SW*%
X121794000Y-30226000D03*
%TD*%
D17*
%TO.N,*%
%TO.C,J1*%
X70176000Y-59663000D03*
X70176000Y-117663000D03*
X118176000Y-59663000D03*
X118176000Y-117663000D03*
D18*
%TO.N,/+3.3V*%
X68906000Y-64533000D03*
D19*
%TO.N,unconnected-(J1-Pad2)*%
X71446000Y-64533000D03*
%TO.N,/I2C_SDA*%
X68906000Y-67073000D03*
%TO.N,unconnected-(J1-Pad4)*%
X71446000Y-67073000D03*
%TO.N,/I2C_SCL*%
X68906000Y-69613000D03*
%TO.N,GND*%
X71446000Y-69613000D03*
%TO.N,unconnected-(J1-Pad7)*%
X68906000Y-72153000D03*
%TO.N,unconnected-(J1-Pad8)*%
X71446000Y-72153000D03*
%TO.N,GND*%
X68906000Y-74693000D03*
%TO.N,unconnected-(J1-Pad10)*%
X71446000Y-74693000D03*
%TO.N,unconnected-(J1-Pad11)*%
X68906000Y-77233000D03*
%TO.N,unconnected-(J1-Pad12)*%
X71446000Y-77233000D03*
%TO.N,unconnected-(J1-Pad13)*%
X68906000Y-79773000D03*
%TO.N,GND*%
X71446000Y-79773000D03*
%TO.N,unconnected-(J1-Pad15)*%
X68906000Y-82313000D03*
%TO.N,unconnected-(J1-Pad16)*%
X71446000Y-82313000D03*
%TO.N,/+3.3V*%
X68906000Y-84853000D03*
%TO.N,unconnected-(J1-Pad18)*%
X71446000Y-84853000D03*
%TO.N,unconnected-(J1-Pad19)*%
X68906000Y-87393000D03*
%TO.N,GND*%
X71446000Y-87393000D03*
%TO.N,unconnected-(J1-Pad21)*%
X68906000Y-89933000D03*
%TO.N,unconnected-(J1-Pad22)*%
X71446000Y-89933000D03*
%TO.N,unconnected-(J1-Pad23)*%
X68906000Y-92473000D03*
%TO.N,unconnected-(J1-Pad24)*%
X71446000Y-92473000D03*
%TO.N,GND*%
X68906000Y-95013000D03*
%TO.N,unconnected-(J1-Pad26)*%
X71446000Y-95013000D03*
%TO.N,unconnected-(J1-Pad27)*%
X68906000Y-97553000D03*
%TO.N,unconnected-(J1-Pad28)*%
X71446000Y-97553000D03*
%TO.N,unconnected-(J1-Pad29)*%
X68906000Y-100093000D03*
%TO.N,GND*%
X71446000Y-100093000D03*
%TO.N,unconnected-(J1-Pad31)*%
X68906000Y-102633000D03*
%TO.N,unconnected-(J1-Pad32)*%
X71446000Y-102633000D03*
%TO.N,unconnected-(J1-Pad33)*%
X68906000Y-105173000D03*
%TO.N,GND*%
X71446000Y-105173000D03*
%TO.N,unconnected-(J1-Pad35)*%
X68906000Y-107713000D03*
%TO.N,unconnected-(J1-Pad36)*%
X71446000Y-107713000D03*
%TO.N,unconnected-(J1-Pad37)*%
X68906000Y-110253000D03*
%TO.N,unconnected-(J1-Pad38)*%
X71446000Y-110253000D03*
%TO.N,GND*%
X68906000Y-112793000D03*
%TO.N,unconnected-(J1-Pad40)*%
X71446000Y-112793000D03*
%TD*%
D20*
%TO.N,unconnected-(SW1-NC-Pad6)*%
%TO.C,SW1*%
X143344000Y-28803000D03*
%TO.N,/BAT*%
X140844000Y-28803000D03*
%TO.N,/BAT_AFTER_SW*%
X138344000Y-28803000D03*
%TO.N,unconnected-(SW1-NC-Pad3)*%
X143344000Y-25553000D03*
%TO.N,unconnected-(SW1-C-Pad2)*%
X140844000Y-25553000D03*
%TO.N,unconnected-(SW1-NO-Pad1)*%
X138344000Y-25553000D03*
%TD*%
D21*
%TO.N,GND*%
X102743000Y-25908000D03*
X102743000Y-27686000D03*
%TO.N,/+3.3V*%
X87122000Y-100457000D03*
%TO.N,GND*%
X135382000Y-62992000D03*
X121666000Y-65532000D03*
%TO.N,/BATT_CHARGE*%
X109982000Y-66802000D03*
%TO.N,GND*%
X98044000Y-84836000D03*
X97790000Y-94996000D03*
X118364000Y-30988000D03*
X91948000Y-31750000D03*
X89662000Y-63754000D03*
X105537000Y-61849000D03*
X87630000Y-71882000D03*
%TO.N,/+3.3V*%
X95758000Y-62484000D03*
%TD*%
%TA.AperFunction,Conductor*%
%TO.N,/+3.3V*%
G36*
X149294539Y-15260185D02*
G01*
X149340294Y-15312989D01*
X149351500Y-15364500D01*
X149351500Y-121795500D01*
X149331815Y-121862539D01*
X149279011Y-121908294D01*
X149227500Y-121919500D01*
X65148500Y-121919500D01*
X65081461Y-121899815D01*
X65035706Y-121847011D01*
X65024500Y-121795500D01*
X65024500Y-117663000D01*
X68070592Y-117663000D01*
X68070881Y-117667225D01*
X68086578Y-117896714D01*
X68090202Y-117949686D01*
X68091061Y-117953824D01*
X68091063Y-117953832D01*
X68140288Y-118190716D01*
X68148666Y-118231032D01*
X68150084Y-118235023D01*
X68150085Y-118235025D01*
X68189416Y-118345693D01*
X68244896Y-118501797D01*
X68377099Y-118756936D01*
X68379545Y-118760401D01*
X68540366Y-118988235D01*
X68540370Y-118988240D01*
X68542811Y-118991698D01*
X68738947Y-119201708D01*
X68961853Y-119383055D01*
X69207375Y-119532361D01*
X69470942Y-119646844D01*
X69691384Y-119708608D01*
X69743562Y-119723228D01*
X69743564Y-119723228D01*
X69747642Y-119724371D01*
X70032322Y-119763500D01*
X70036559Y-119763500D01*
X70315441Y-119763500D01*
X70319678Y-119763500D01*
X70604358Y-119724371D01*
X70881058Y-119646844D01*
X71144625Y-119532361D01*
X71390147Y-119383055D01*
X71613053Y-119201708D01*
X71809189Y-118991698D01*
X71974901Y-118756936D01*
X72107104Y-118501797D01*
X72203334Y-118231032D01*
X72261798Y-117949686D01*
X72281408Y-117663000D01*
X116070592Y-117663000D01*
X116070881Y-117667225D01*
X116086578Y-117896714D01*
X116090202Y-117949686D01*
X116091061Y-117953824D01*
X116091063Y-117953832D01*
X116140288Y-118190716D01*
X116148666Y-118231032D01*
X116150084Y-118235023D01*
X116150085Y-118235025D01*
X116189416Y-118345693D01*
X116244896Y-118501797D01*
X116377099Y-118756936D01*
X116379545Y-118760401D01*
X116540366Y-118988235D01*
X116540370Y-118988240D01*
X116542811Y-118991698D01*
X116738947Y-119201708D01*
X116961853Y-119383055D01*
X117207375Y-119532361D01*
X117470942Y-119646844D01*
X117691384Y-119708608D01*
X117743562Y-119723228D01*
X117743564Y-119723228D01*
X117747642Y-119724371D01*
X118032322Y-119763500D01*
X118036559Y-119763500D01*
X118315441Y-119763500D01*
X118319678Y-119763500D01*
X118604358Y-119724371D01*
X118881058Y-119646844D01*
X119144625Y-119532361D01*
X119390147Y-119383055D01*
X119613053Y-119201708D01*
X119809189Y-118991698D01*
X119974901Y-118756936D01*
X120107104Y-118501797D01*
X120203334Y-118231032D01*
X120261798Y-117949686D01*
X120281408Y-117663000D01*
X120261798Y-117376314D01*
X120203334Y-117094968D01*
X120134547Y-116901420D01*
X143255789Y-116901420D01*
X143285381Y-117145131D01*
X143319930Y-117264406D01*
X143353682Y-117380931D01*
X143458924Y-117602723D01*
X143598381Y-117804762D01*
X143768442Y-117981813D01*
X143964701Y-118129293D01*
X143964703Y-118129294D01*
X144182072Y-118243379D01*
X144298773Y-118282339D01*
X144414937Y-118321120D01*
X144536094Y-118340809D01*
X144657252Y-118360500D01*
X144657253Y-118360500D01*
X144838795Y-118360500D01*
X144841280Y-118360500D01*
X145024699Y-118345693D01*
X145263060Y-118286942D01*
X145488911Y-118190716D01*
X145696400Y-118059508D01*
X145880156Y-117896714D01*
X146035418Y-117706553D01*
X146158166Y-117493948D01*
X146245219Y-117264406D01*
X146294325Y-117023872D01*
X146304210Y-116778576D01*
X146274619Y-116534871D01*
X146206318Y-116299069D01*
X146101076Y-116077277D01*
X145961619Y-115875238D01*
X145791558Y-115698187D01*
X145595299Y-115550707D01*
X145595297Y-115550706D01*
X145595296Y-115550705D01*
X145377927Y-115436620D01*
X145145061Y-115358879D01*
X144902748Y-115319500D01*
X144902747Y-115319500D01*
X144718720Y-115319500D01*
X144716265Y-115319698D01*
X144716244Y-115319699D01*
X144535301Y-115334307D01*
X144296941Y-115393057D01*
X144071084Y-115489286D01*
X143863600Y-115620492D01*
X143679844Y-115783285D01*
X143524581Y-115973447D01*
X143401834Y-116186051D01*
X143314780Y-116415594D01*
X143265674Y-116656130D01*
X143255789Y-116901420D01*
X120134547Y-116901420D01*
X120107104Y-116824203D01*
X119974901Y-116569064D01*
X119809189Y-116334302D01*
X119613053Y-116124292D01*
X119609771Y-116121622D01*
X119609768Y-116121619D01*
X119393429Y-115945615D01*
X119393428Y-115945614D01*
X119390147Y-115942945D01*
X119144625Y-115793639D01*
X119140745Y-115791953D01*
X119140738Y-115791950D01*
X118884939Y-115680841D01*
X118884929Y-115680837D01*
X118881058Y-115679156D01*
X118876986Y-115678015D01*
X118608437Y-115602771D01*
X118608424Y-115602768D01*
X118604358Y-115601629D01*
X118600168Y-115601053D01*
X118600158Y-115601051D01*
X118323875Y-115563076D01*
X118323862Y-115563075D01*
X118319678Y-115562500D01*
X118032322Y-115562500D01*
X118028138Y-115563075D01*
X118028124Y-115563076D01*
X117751841Y-115601051D01*
X117751828Y-115601053D01*
X117747642Y-115601629D01*
X117743577Y-115602767D01*
X117743562Y-115602771D01*
X117475013Y-115678015D01*
X117475008Y-115678016D01*
X117470942Y-115679156D01*
X117467075Y-115680835D01*
X117467060Y-115680841D01*
X117211261Y-115791950D01*
X117211248Y-115791956D01*
X117207375Y-115793639D01*
X117203764Y-115795834D01*
X117203756Y-115795839D01*
X116965465Y-115940748D01*
X116965460Y-115940751D01*
X116961853Y-115942945D01*
X116958578Y-115945609D01*
X116958570Y-115945615D01*
X116742231Y-116121619D01*
X116742220Y-116121628D01*
X116738947Y-116124292D01*
X116736068Y-116127374D01*
X116736059Y-116127383D01*
X116545699Y-116331209D01*
X116545694Y-116331214D01*
X116542811Y-116334302D01*
X116540375Y-116337752D01*
X116540366Y-116337764D01*
X116379545Y-116565598D01*
X116379541Y-116565603D01*
X116377099Y-116569064D01*
X116375153Y-116572818D01*
X116375149Y-116572826D01*
X116246845Y-116820440D01*
X116246840Y-116820450D01*
X116244896Y-116824203D01*
X116243479Y-116828188D01*
X116243475Y-116828199D01*
X116150085Y-117090974D01*
X116148666Y-117094968D01*
X116147804Y-117099113D01*
X116147803Y-117099119D01*
X116091063Y-117372167D01*
X116091061Y-117372177D01*
X116090202Y-117376314D01*
X116089913Y-117380529D01*
X116089913Y-117380534D01*
X116074715Y-117602723D01*
X116070592Y-117663000D01*
X72281408Y-117663000D01*
X72261798Y-117376314D01*
X72203334Y-117094968D01*
X72107104Y-116824203D01*
X71974901Y-116569064D01*
X71809189Y-116334302D01*
X71613053Y-116124292D01*
X71609771Y-116121622D01*
X71609768Y-116121619D01*
X71393429Y-115945615D01*
X71393428Y-115945614D01*
X71390147Y-115942945D01*
X71144625Y-115793639D01*
X71140745Y-115791953D01*
X71140738Y-115791950D01*
X70884939Y-115680841D01*
X70884929Y-115680837D01*
X70881058Y-115679156D01*
X70876986Y-115678015D01*
X70608437Y-115602771D01*
X70608424Y-115602768D01*
X70604358Y-115601629D01*
X70600168Y-115601053D01*
X70600158Y-115601051D01*
X70323875Y-115563076D01*
X70323862Y-115563075D01*
X70319678Y-115562500D01*
X70032322Y-115562500D01*
X70028138Y-115563075D01*
X70028124Y-115563076D01*
X69751841Y-115601051D01*
X69751828Y-115601053D01*
X69747642Y-115601629D01*
X69743577Y-115602767D01*
X69743562Y-115602771D01*
X69475013Y-115678015D01*
X69475008Y-115678016D01*
X69470942Y-115679156D01*
X69467075Y-115680835D01*
X69467060Y-115680841D01*
X69211261Y-115791950D01*
X69211248Y-115791956D01*
X69207375Y-115793639D01*
X69203764Y-115795834D01*
X69203756Y-115795839D01*
X68965465Y-115940748D01*
X68965460Y-115940751D01*
X68961853Y-115942945D01*
X68958578Y-115945609D01*
X68958570Y-115945615D01*
X68742231Y-116121619D01*
X68742220Y-116121628D01*
X68738947Y-116124292D01*
X68736068Y-116127374D01*
X68736059Y-116127383D01*
X68545699Y-116331209D01*
X68545694Y-116331214D01*
X68542811Y-116334302D01*
X68540375Y-116337752D01*
X68540366Y-116337764D01*
X68379545Y-116565598D01*
X68379541Y-116565603D01*
X68377099Y-116569064D01*
X68375153Y-116572818D01*
X68375149Y-116572826D01*
X68246845Y-116820440D01*
X68246840Y-116820450D01*
X68244896Y-116824203D01*
X68243479Y-116828188D01*
X68243475Y-116828199D01*
X68150085Y-117090974D01*
X68148666Y-117094968D01*
X68147804Y-117099113D01*
X68147803Y-117099119D01*
X68091063Y-117372167D01*
X68091061Y-117372177D01*
X68090202Y-117376314D01*
X68089913Y-117380529D01*
X68089913Y-117380534D01*
X68074715Y-117602723D01*
X68070592Y-117663000D01*
X65024500Y-117663000D01*
X65024500Y-112792999D01*
X67600531Y-112792999D01*
X67620364Y-113019689D01*
X67679261Y-113239497D01*
X67775432Y-113445735D01*
X67905953Y-113632140D01*
X68066859Y-113793046D01*
X68253264Y-113923567D01*
X68253265Y-113923567D01*
X68253266Y-113923568D01*
X68459504Y-114019739D01*
X68679308Y-114078635D01*
X68830436Y-114091856D01*
X68905999Y-114098468D01*
X68905999Y-114098467D01*
X68906000Y-114098468D01*
X69132692Y-114078635D01*
X69352496Y-114019739D01*
X69558734Y-113923568D01*
X69745139Y-113793047D01*
X69906047Y-113632139D01*
X70036568Y-113445734D01*
X70063618Y-113387724D01*
X70109790Y-113335285D01*
X70176983Y-113316133D01*
X70243865Y-113336348D01*
X70288382Y-113387725D01*
X70315431Y-113445733D01*
X70445953Y-113632140D01*
X70606859Y-113793046D01*
X70793264Y-113923567D01*
X70793265Y-113923567D01*
X70793266Y-113923568D01*
X70999504Y-114019739D01*
X71219308Y-114078635D01*
X71446000Y-114098468D01*
X71672692Y-114078635D01*
X71892496Y-114019739D01*
X72098734Y-113923568D01*
X72285139Y-113793047D01*
X72446047Y-113632139D01*
X72576568Y-113445734D01*
X72672739Y-113239496D01*
X72731635Y-113019692D01*
X72751468Y-112793000D01*
X72731635Y-112566308D01*
X72672739Y-112346504D01*
X72576568Y-112140266D01*
X72446047Y-111953861D01*
X72446046Y-111953859D01*
X72285140Y-111792953D01*
X72098733Y-111662431D01*
X72040725Y-111635382D01*
X71988285Y-111589210D01*
X71969133Y-111522017D01*
X71989348Y-111455135D01*
X72040725Y-111410618D01*
X72098734Y-111383568D01*
X72285139Y-111253047D01*
X72446047Y-111092139D01*
X72576568Y-110905734D01*
X72672739Y-110699496D01*
X72731635Y-110479692D01*
X72751468Y-110253000D01*
X72731635Y-110026308D01*
X72672739Y-109806504D01*
X72576568Y-109600266D01*
X72523959Y-109525131D01*
X72446046Y-109413859D01*
X72313607Y-109281420D01*
X82295789Y-109281420D01*
X82325381Y-109525131D01*
X82393681Y-109760928D01*
X82393682Y-109760931D01*
X82498924Y-109982723D01*
X82638381Y-110184762D01*
X82808442Y-110361813D01*
X83004701Y-110509293D01*
X83004703Y-110509294D01*
X83222072Y-110623379D01*
X83338773Y-110662339D01*
X83454937Y-110701120D01*
X83576094Y-110720809D01*
X83697252Y-110740500D01*
X83697253Y-110740500D01*
X83878795Y-110740500D01*
X83881280Y-110740500D01*
X84064699Y-110725693D01*
X84303060Y-110666942D01*
X84528911Y-110570716D01*
X84736400Y-110439508D01*
X84920156Y-110276714D01*
X85075418Y-110086553D01*
X85198166Y-109873948D01*
X85285219Y-109644406D01*
X85334325Y-109403872D01*
X85339260Y-109281420D01*
X135635789Y-109281420D01*
X135665381Y-109525131D01*
X135733681Y-109760928D01*
X135733682Y-109760931D01*
X135838924Y-109982723D01*
X135978381Y-110184762D01*
X136148442Y-110361813D01*
X136344701Y-110509293D01*
X136344703Y-110509294D01*
X136562072Y-110623379D01*
X136678773Y-110662339D01*
X136794937Y-110701120D01*
X136916094Y-110720809D01*
X137037252Y-110740500D01*
X137037253Y-110740500D01*
X137218795Y-110740500D01*
X137221280Y-110740500D01*
X137404699Y-110725693D01*
X137643060Y-110666942D01*
X137868911Y-110570716D01*
X138076400Y-110439508D01*
X138260156Y-110276714D01*
X138415418Y-110086553D01*
X138538166Y-109873948D01*
X138625219Y-109644406D01*
X138674325Y-109403872D01*
X138684210Y-109158576D01*
X138654619Y-108914871D01*
X138586318Y-108679069D01*
X138481076Y-108457277D01*
X138341619Y-108255238D01*
X138171558Y-108078187D01*
X137975299Y-107930707D01*
X137975297Y-107930706D01*
X137975296Y-107930705D01*
X137757927Y-107816620D01*
X137525061Y-107738879D01*
X137282748Y-107699500D01*
X137282747Y-107699500D01*
X137098720Y-107699500D01*
X137096265Y-107699698D01*
X137096244Y-107699699D01*
X136915301Y-107714307D01*
X136676941Y-107773057D01*
X136451084Y-107869286D01*
X136243600Y-108000492D01*
X136059844Y-108163285D01*
X135904581Y-108353447D01*
X135781834Y-108566051D01*
X135694780Y-108795594D01*
X135645674Y-109036130D01*
X135635789Y-109281420D01*
X85339260Y-109281420D01*
X85344210Y-109158576D01*
X85314619Y-108914871D01*
X85246318Y-108679069D01*
X85141076Y-108457277D01*
X85001619Y-108255238D01*
X84831558Y-108078187D01*
X84635299Y-107930707D01*
X84635297Y-107930706D01*
X84635296Y-107930705D01*
X84417927Y-107816620D01*
X84185061Y-107738879D01*
X83942748Y-107699500D01*
X83942747Y-107699500D01*
X83758720Y-107699500D01*
X83756265Y-107699698D01*
X83756244Y-107699699D01*
X83575301Y-107714307D01*
X83336941Y-107773057D01*
X83111084Y-107869286D01*
X82903600Y-108000492D01*
X82719844Y-108163285D01*
X82564581Y-108353447D01*
X82441834Y-108566051D01*
X82354780Y-108795594D01*
X82305674Y-109036130D01*
X82295789Y-109281420D01*
X72313607Y-109281420D01*
X72285140Y-109252953D01*
X72098736Y-109122433D01*
X72040723Y-109095381D01*
X71988284Y-109049208D01*
X71969133Y-108982014D01*
X71989349Y-108915133D01*
X72040721Y-108870619D01*
X72098734Y-108843568D01*
X72285139Y-108713047D01*
X72446047Y-108552139D01*
X72576568Y-108365734D01*
X72672739Y-108159496D01*
X72731635Y-107939692D01*
X72751468Y-107713000D01*
X72731635Y-107486308D01*
X72672739Y-107266504D01*
X72576568Y-107060266D01*
X72446047Y-106873861D01*
X72446046Y-106873859D01*
X72285140Y-106712953D01*
X72098733Y-106582431D01*
X72040725Y-106555382D01*
X71988285Y-106509210D01*
X71969133Y-106442017D01*
X71989348Y-106375135D01*
X72040725Y-106330618D01*
X72098734Y-106303568D01*
X72285139Y-106173047D01*
X72446047Y-106012139D01*
X72576568Y-105825734D01*
X72672739Y-105619496D01*
X72728873Y-105409999D01*
X146166931Y-105409999D01*
X146186764Y-105636689D01*
X146245661Y-105856497D01*
X146341832Y-106062735D01*
X146472353Y-106249140D01*
X146633259Y-106410046D01*
X146819664Y-106540567D01*
X146819665Y-106540567D01*
X146819666Y-106540568D01*
X147025904Y-106636739D01*
X147245708Y-106695635D01*
X147472400Y-106715468D01*
X147699092Y-106695635D01*
X147918896Y-106636739D01*
X148125134Y-106540568D01*
X148311539Y-106410047D01*
X148472447Y-106249139D01*
X148602968Y-106062734D01*
X148699139Y-105856496D01*
X148758035Y-105636692D01*
X148777868Y-105410000D01*
X148758035Y-105183308D01*
X148699139Y-104963504D01*
X148602968Y-104757266D01*
X148581429Y-104726504D01*
X148472446Y-104570859D01*
X148311540Y-104409953D01*
X148125136Y-104279433D01*
X148125130Y-104279430D01*
X148066532Y-104252105D01*
X148014095Y-104205933D01*
X147994943Y-104138739D01*
X148015159Y-104071858D01*
X148066535Y-104027342D01*
X148124879Y-104000136D01*
X148197872Y-103949025D01*
X147643968Y-103395121D01*
X147760858Y-103344349D01*
X147878139Y-103248934D01*
X147965328Y-103125415D01*
X147995754Y-103039801D01*
X148551425Y-103595472D01*
X148602534Y-103522480D01*
X148698666Y-103316326D01*
X148757541Y-103096602D01*
X148777366Y-102870000D01*
X148757541Y-102643397D01*
X148698666Y-102423673D01*
X148602533Y-102217515D01*
X148551425Y-102144526D01*
X147998329Y-102697622D01*
X147995516Y-102684085D01*
X147925958Y-102549844D01*
X147822762Y-102439348D01*
X147693581Y-102360791D01*
X147642396Y-102346449D01*
X148197872Y-101790974D01*
X148197871Y-101790972D01*
X148124885Y-101739867D01*
X148066533Y-101712657D01*
X148014094Y-101666484D01*
X147994943Y-101599290D01*
X148015159Y-101532409D01*
X148066534Y-101487893D01*
X148125134Y-101460568D01*
X148311539Y-101330047D01*
X148472447Y-101169139D01*
X148602968Y-100982734D01*
X148699139Y-100776496D01*
X148758035Y-100556692D01*
X148777868Y-100330000D01*
X148758035Y-100103308D01*
X148699139Y-99883504D01*
X148602968Y-99677266D01*
X148581429Y-99646504D01*
X148472446Y-99490859D01*
X148311540Y-99329953D01*
X148125133Y-99199431D01*
X148067125Y-99172382D01*
X148014685Y-99126210D01*
X147995533Y-99059017D01*
X148015748Y-98992135D01*
X148067125Y-98947618D01*
X148125134Y-98920568D01*
X148311539Y-98790047D01*
X148472447Y-98629139D01*
X148602968Y-98442734D01*
X148699139Y-98236496D01*
X148758035Y-98016692D01*
X148777868Y-97790000D01*
X148758035Y-97563308D01*
X148699139Y-97343504D01*
X148602968Y-97137266D01*
X148581429Y-97106504D01*
X148472446Y-96950859D01*
X148311540Y-96789953D01*
X148125133Y-96659431D01*
X148067125Y-96632382D01*
X148014685Y-96586210D01*
X147995533Y-96519017D01*
X148015748Y-96452135D01*
X148067125Y-96407618D01*
X148093365Y-96395382D01*
X148125134Y-96380568D01*
X148311539Y-96250047D01*
X148472447Y-96089139D01*
X148602968Y-95902734D01*
X148699139Y-95696496D01*
X148758035Y-95476692D01*
X148777868Y-95250000D01*
X148758035Y-95023308D01*
X148699139Y-94803504D01*
X148602968Y-94597266D01*
X148581429Y-94566504D01*
X148472446Y-94410859D01*
X148311540Y-94249953D01*
X148125135Y-94119432D01*
X147918897Y-94023261D01*
X147699089Y-93964364D01*
X147472400Y-93944531D01*
X147245710Y-93964364D01*
X147025902Y-94023261D01*
X146819664Y-94119432D01*
X146633259Y-94249953D01*
X146472353Y-94410859D01*
X146341832Y-94597264D01*
X146245661Y-94803502D01*
X146186764Y-95023310D01*
X146166931Y-95250000D01*
X146186764Y-95476689D01*
X146245661Y-95696497D01*
X146341832Y-95902735D01*
X146472353Y-96089140D01*
X146633259Y-96250046D01*
X146777247Y-96350866D01*
X146819666Y-96380568D01*
X146851435Y-96395382D01*
X146877675Y-96407618D01*
X146930114Y-96453791D01*
X146949265Y-96520985D01*
X146929049Y-96587866D01*
X146877675Y-96632382D01*
X146819663Y-96659433D01*
X146633259Y-96789953D01*
X146472353Y-96950859D01*
X146341832Y-97137264D01*
X146245661Y-97343502D01*
X146186764Y-97563310D01*
X146166931Y-97789999D01*
X146186764Y-98016689D01*
X146245661Y-98236497D01*
X146341832Y-98442735D01*
X146472353Y-98629140D01*
X146633259Y-98790046D01*
X146656043Y-98805999D01*
X146819666Y-98920568D01*
X146877673Y-98947617D01*
X146930113Y-98993789D01*
X146949265Y-99060982D01*
X146929050Y-99127864D01*
X146877676Y-99172380D01*
X146819666Y-99199431D01*
X146633259Y-99329953D01*
X146472353Y-99490859D01*
X146341832Y-99677264D01*
X146245661Y-99883502D01*
X146186764Y-100103310D01*
X146166931Y-100330000D01*
X146186764Y-100556689D01*
X146245661Y-100776497D01*
X146341832Y-100982735D01*
X146472353Y-101169140D01*
X146633259Y-101330046D01*
X146819664Y-101460567D01*
X146819665Y-101460567D01*
X146819666Y-101460568D01*
X146878265Y-101487893D01*
X146930704Y-101534065D01*
X146949856Y-101601259D01*
X146929640Y-101668140D01*
X146878265Y-101712657D01*
X146819917Y-101739865D01*
X146746927Y-101790973D01*
X146746926Y-101790973D01*
X147300832Y-102344878D01*
X147183942Y-102395651D01*
X147066661Y-102491066D01*
X146979472Y-102614585D01*
X146949045Y-102700198D01*
X146393373Y-102144526D01*
X146393373Y-102144527D01*
X146342265Y-102217516D01*
X146246133Y-102423672D01*
X146187258Y-102643397D01*
X146167433Y-102870000D01*
X146187258Y-103096602D01*
X146246133Y-103316326D01*
X146342266Y-103522484D01*
X146393372Y-103595471D01*
X146393374Y-103595472D01*
X146946470Y-103042375D01*
X146949284Y-103055915D01*
X147018842Y-103190156D01*
X147122038Y-103300652D01*
X147251219Y-103379209D01*
X147302402Y-103393549D01*
X146746926Y-103949025D01*
X146746926Y-103949026D01*
X146819915Y-104000133D01*
X146878265Y-104027342D01*
X146930704Y-104073514D01*
X146949856Y-104140708D01*
X146929640Y-104207589D01*
X146878266Y-104252105D01*
X146819667Y-104279430D01*
X146633259Y-104409953D01*
X146472353Y-104570859D01*
X146341832Y-104757264D01*
X146245661Y-104963502D01*
X146186764Y-105183310D01*
X146166931Y-105409999D01*
X72728873Y-105409999D01*
X72731635Y-105399692D01*
X72751468Y-105173000D01*
X72731635Y-104946308D01*
X72672739Y-104726504D01*
X72576568Y-104520266D01*
X72446047Y-104333861D01*
X72446046Y-104333859D01*
X72285140Y-104172953D01*
X72098733Y-104042431D01*
X72040725Y-104015382D01*
X71988285Y-103969210D01*
X71969133Y-103902017D01*
X71989348Y-103835135D01*
X72040725Y-103790618D01*
X72098734Y-103763568D01*
X72285139Y-103633047D01*
X72446047Y-103472139D01*
X72576568Y-103285734D01*
X72672739Y-103079496D01*
X72731635Y-102859692D01*
X72751468Y-102633000D01*
X72731635Y-102406308D01*
X72672739Y-102186504D01*
X72576568Y-101980266D01*
X72446047Y-101793861D01*
X72446046Y-101793859D01*
X72285140Y-101632953D01*
X72098733Y-101502431D01*
X72040725Y-101475382D01*
X71988285Y-101429210D01*
X71969133Y-101362017D01*
X71973974Y-101346000D01*
X104204357Y-101346000D01*
X104224885Y-101567537D01*
X104285769Y-101781526D01*
X104384941Y-101980688D01*
X104519019Y-102158237D01*
X104683437Y-102308124D01*
X104872595Y-102425245D01*
X104872597Y-102425245D01*
X104872599Y-102425247D01*
X105080060Y-102505618D01*
X105298757Y-102546500D01*
X105298759Y-102546500D01*
X105521241Y-102546500D01*
X105521243Y-102546500D01*
X105739940Y-102505618D01*
X105947401Y-102425247D01*
X106136562Y-102308124D01*
X106300981Y-102158236D01*
X106435058Y-101980689D01*
X106534229Y-101781528D01*
X106553825Y-101712657D01*
X106566962Y-101666484D01*
X106595115Y-101567536D01*
X106615643Y-101346000D01*
X106615643Y-101345999D01*
X111824357Y-101345999D01*
X111844885Y-101567537D01*
X111905769Y-101781526D01*
X112004941Y-101980688D01*
X112139019Y-102158237D01*
X112303437Y-102308124D01*
X112492595Y-102425245D01*
X112492597Y-102425245D01*
X112492599Y-102425247D01*
X112700060Y-102505618D01*
X112918757Y-102546500D01*
X112918759Y-102546500D01*
X113141241Y-102546500D01*
X113141243Y-102546500D01*
X113359940Y-102505618D01*
X113567401Y-102425247D01*
X113756562Y-102308124D01*
X113920981Y-102158236D01*
X114055058Y-101980689D01*
X114154229Y-101781528D01*
X114173825Y-101712657D01*
X114186962Y-101666484D01*
X114215115Y-101567536D01*
X114235643Y-101346000D01*
X114215115Y-101124464D01*
X114174790Y-100982735D01*
X114154230Y-100910473D01*
X114055058Y-100711311D01*
X113920980Y-100533762D01*
X113756562Y-100383875D01*
X113567404Y-100266754D01*
X113532007Y-100253041D01*
X113373475Y-100191625D01*
X113318076Y-100149054D01*
X113294485Y-100083287D01*
X113310196Y-100015207D01*
X113360220Y-99966428D01*
X113373466Y-99960377D01*
X113567401Y-99885247D01*
X113756562Y-99768124D01*
X113856228Y-99677266D01*
X113920980Y-99618237D01*
X114011571Y-99498275D01*
X114055058Y-99440689D01*
X114154229Y-99241528D01*
X114166207Y-99199432D01*
X114196502Y-99092953D01*
X114215115Y-99027536D01*
X114235643Y-98806000D01*
X114215115Y-98584464D01*
X114174790Y-98442735D01*
X114154230Y-98370473D01*
X114055058Y-98171311D01*
X113920980Y-97993762D01*
X113756562Y-97843875D01*
X113567404Y-97726754D01*
X113532007Y-97713041D01*
X113373475Y-97651625D01*
X113318076Y-97609054D01*
X113294485Y-97543287D01*
X113310196Y-97475207D01*
X113360220Y-97426428D01*
X113373466Y-97420377D01*
X113567401Y-97345247D01*
X113756562Y-97228124D01*
X113856228Y-97137266D01*
X113920980Y-97078237D01*
X114011571Y-96958275D01*
X114055058Y-96900689D01*
X114154229Y-96701528D01*
X114166207Y-96659432D01*
X114177116Y-96621085D01*
X114215115Y-96487536D01*
X114235643Y-96266000D01*
X114215115Y-96044464D01*
X114174790Y-95902735D01*
X114154230Y-95830473D01*
X114055058Y-95631311D01*
X113920980Y-95453762D01*
X113756562Y-95303875D01*
X113567404Y-95186754D01*
X113532007Y-95173041D01*
X113373475Y-95111625D01*
X113318076Y-95069054D01*
X113294485Y-95003287D01*
X113310196Y-94935207D01*
X113360220Y-94886428D01*
X113373466Y-94880377D01*
X113567401Y-94805247D01*
X113756562Y-94688124D01*
X113856228Y-94597266D01*
X113920980Y-94538237D01*
X114011571Y-94418275D01*
X114055058Y-94360689D01*
X114154229Y-94161528D01*
X114166207Y-94119432D01*
X114196502Y-94012953D01*
X114215115Y-93947536D01*
X114235643Y-93726000D01*
X114215115Y-93504464D01*
X114168897Y-93342023D01*
X114154230Y-93290473D01*
X114055058Y-93091311D01*
X113920980Y-92913762D01*
X113756562Y-92763875D01*
X113567404Y-92646754D01*
X113532007Y-92633041D01*
X113373475Y-92571625D01*
X113318076Y-92529054D01*
X113294485Y-92463287D01*
X113310196Y-92395207D01*
X113360220Y-92346428D01*
X113373466Y-92340377D01*
X113567401Y-92265247D01*
X113756562Y-92148124D01*
X113920981Y-91998236D01*
X114055058Y-91820689D01*
X114154229Y-91621528D01*
X114215115Y-91407536D01*
X114235643Y-91186000D01*
X114215115Y-90964464D01*
X114192227Y-90884021D01*
X114154230Y-90750473D01*
X114055058Y-90551311D01*
X113920980Y-90373762D01*
X113756562Y-90223875D01*
X113567404Y-90106754D01*
X113534909Y-90094165D01*
X113372782Y-90031357D01*
X113317384Y-89988786D01*
X113293793Y-89923019D01*
X113309504Y-89854939D01*
X113359528Y-89806160D01*
X113372786Y-89800105D01*
X113567178Y-89724798D01*
X113683326Y-89652880D01*
X113683326Y-89652879D01*
X113030001Y-88999553D01*
X113030000Y-88999553D01*
X112376672Y-89652879D01*
X112376672Y-89652881D01*
X112492816Y-89724795D01*
X112687214Y-89800105D01*
X112742615Y-89842678D01*
X112766206Y-89908445D01*
X112750495Y-89976525D01*
X112700471Y-90025304D01*
X112687220Y-90031356D01*
X112546640Y-90085817D01*
X112492596Y-90106754D01*
X112303437Y-90223875D01*
X112139019Y-90373762D01*
X112004941Y-90551311D01*
X111905769Y-90750473D01*
X111844885Y-90964462D01*
X111824357Y-91185999D01*
X111844885Y-91407537D01*
X111905769Y-91621526D01*
X112004941Y-91820688D01*
X112139019Y-91998237D01*
X112303437Y-92148124D01*
X112457209Y-92243334D01*
X112492599Y-92265247D01*
X112686522Y-92340373D01*
X112741924Y-92382946D01*
X112765514Y-92448713D01*
X112749803Y-92516793D01*
X112699779Y-92565572D01*
X112686526Y-92571624D01*
X112555346Y-92622444D01*
X112492596Y-92646754D01*
X112303437Y-92763875D01*
X112139019Y-92913762D01*
X112004941Y-93091311D01*
X111905769Y-93290473D01*
X111844885Y-93504462D01*
X111824357Y-93726000D01*
X111844885Y-93947537D01*
X111905769Y-94161526D01*
X112004941Y-94360688D01*
X112139019Y-94538237D01*
X112303437Y-94688124D01*
X112457209Y-94783334D01*
X112492599Y-94805247D01*
X112686522Y-94880373D01*
X112741924Y-94922946D01*
X112765514Y-94988713D01*
X112749803Y-95056793D01*
X112699779Y-95105572D01*
X112686526Y-95111624D01*
X112555346Y-95162444D01*
X112492596Y-95186754D01*
X112303437Y-95303875D01*
X112139019Y-95453762D01*
X112004941Y-95631311D01*
X111905769Y-95830473D01*
X111844885Y-96044462D01*
X111824357Y-96265999D01*
X111844885Y-96487537D01*
X111905769Y-96701526D01*
X112004941Y-96900688D01*
X112139019Y-97078237D01*
X112303437Y-97228124D01*
X112457209Y-97323334D01*
X112492599Y-97345247D01*
X112686522Y-97420373D01*
X112741924Y-97462946D01*
X112765514Y-97528713D01*
X112749803Y-97596793D01*
X112699779Y-97645572D01*
X112686526Y-97651624D01*
X112555346Y-97702444D01*
X112492596Y-97726754D01*
X112303437Y-97843875D01*
X112139019Y-97993762D01*
X112004941Y-98171311D01*
X111905769Y-98370473D01*
X111844885Y-98584462D01*
X111824357Y-98806000D01*
X111844885Y-99027537D01*
X111905769Y-99241526D01*
X112004941Y-99440688D01*
X112139019Y-99618237D01*
X112303437Y-99768124D01*
X112457209Y-99863334D01*
X112492599Y-99885247D01*
X112686522Y-99960373D01*
X112741924Y-100002946D01*
X112765514Y-100068713D01*
X112749803Y-100136793D01*
X112699779Y-100185572D01*
X112686526Y-100191624D01*
X112555346Y-100242444D01*
X112492596Y-100266754D01*
X112303437Y-100383875D01*
X112139019Y-100533762D01*
X112004941Y-100711311D01*
X111905769Y-100910473D01*
X111844885Y-101124462D01*
X111824357Y-101345999D01*
X106615643Y-101345999D01*
X106595115Y-101124464D01*
X106554790Y-100982735D01*
X106534230Y-100910473D01*
X106435058Y-100711311D01*
X106300980Y-100533762D01*
X106136562Y-100383875D01*
X105947404Y-100266754D01*
X105912007Y-100253041D01*
X105753475Y-100191625D01*
X105698076Y-100149054D01*
X105674485Y-100083287D01*
X105690196Y-100015207D01*
X105740220Y-99966428D01*
X105753466Y-99960377D01*
X105947401Y-99885247D01*
X106136562Y-99768124D01*
X106236228Y-99677266D01*
X106300980Y-99618237D01*
X106391571Y-99498275D01*
X106435058Y-99440689D01*
X106534229Y-99241528D01*
X106546207Y-99199432D01*
X106576502Y-99092953D01*
X106595115Y-99027536D01*
X106615643Y-98806000D01*
X106595115Y-98584464D01*
X106554790Y-98442735D01*
X106534230Y-98370473D01*
X106435058Y-98171311D01*
X106300980Y-97993762D01*
X106136562Y-97843875D01*
X105947404Y-97726754D01*
X105912007Y-97713041D01*
X105753475Y-97651625D01*
X105698076Y-97609054D01*
X105674485Y-97543287D01*
X105690196Y-97475207D01*
X105740220Y-97426428D01*
X105753466Y-97420377D01*
X105947401Y-97345247D01*
X106136562Y-97228124D01*
X106236228Y-97137266D01*
X106300980Y-97078237D01*
X106391571Y-96958275D01*
X106435058Y-96900689D01*
X106534229Y-96701528D01*
X106546207Y-96659432D01*
X106557116Y-96621085D01*
X106595115Y-96487536D01*
X106615643Y-96266000D01*
X106595115Y-96044464D01*
X106554790Y-95902735D01*
X106534230Y-95830473D01*
X106435058Y-95631311D01*
X106300980Y-95453762D01*
X106136562Y-95303875D01*
X105947404Y-95186754D01*
X105912007Y-95173041D01*
X105753475Y-95111625D01*
X105698076Y-95069054D01*
X105674485Y-95003287D01*
X105690196Y-94935207D01*
X105740220Y-94886428D01*
X105753466Y-94880377D01*
X105947401Y-94805247D01*
X106136562Y-94688124D01*
X106236228Y-94597266D01*
X106300980Y-94538237D01*
X106391571Y-94418275D01*
X106435058Y-94360689D01*
X106534229Y-94161528D01*
X106546207Y-94119432D01*
X106576502Y-94012953D01*
X106595115Y-93947536D01*
X106615643Y-93726000D01*
X106595115Y-93504464D01*
X106548897Y-93342023D01*
X106534230Y-93290473D01*
X106435058Y-93091311D01*
X106300980Y-92913762D01*
X106136562Y-92763875D01*
X105947404Y-92646754D01*
X105912007Y-92633041D01*
X105753475Y-92571625D01*
X105698076Y-92529054D01*
X105674485Y-92463287D01*
X105690196Y-92395207D01*
X105740220Y-92346428D01*
X105753466Y-92340377D01*
X105947401Y-92265247D01*
X106136562Y-92148124D01*
X106300981Y-91998236D01*
X106435058Y-91820689D01*
X106534229Y-91621528D01*
X106595115Y-91407536D01*
X106615643Y-91186000D01*
X106595115Y-90964464D01*
X106572227Y-90884021D01*
X106534230Y-90750473D01*
X106435058Y-90551311D01*
X106300980Y-90373762D01*
X106136562Y-90223875D01*
X105947404Y-90106754D01*
X105912007Y-90093041D01*
X105753475Y-90031625D01*
X105698076Y-89989054D01*
X105674485Y-89923287D01*
X105690196Y-89855207D01*
X105740220Y-89806428D01*
X105753466Y-89800377D01*
X105947401Y-89725247D01*
X106136562Y-89608124D01*
X106300981Y-89458236D01*
X106435058Y-89280689D01*
X106534229Y-89081528D01*
X106534281Y-89081347D01*
X106589768Y-88886327D01*
X106595115Y-88867536D01*
X106615643Y-88646000D01*
X111824859Y-88646000D01*
X111845378Y-88867445D01*
X111906238Y-89081347D01*
X112005367Y-89280425D01*
X112021137Y-89301308D01*
X112021138Y-89301308D01*
X112647145Y-88675302D01*
X112676372Y-88675302D01*
X112705047Y-88788538D01*
X112768936Y-88886327D01*
X112861115Y-88958072D01*
X112971595Y-88996000D01*
X113059005Y-88996000D01*
X113145216Y-88981614D01*
X113247947Y-88926019D01*
X113327060Y-88840079D01*
X113373982Y-88733108D01*
X113381200Y-88646000D01*
X113383552Y-88646000D01*
X114038861Y-89301308D01*
X114054632Y-89280424D01*
X114153761Y-89081347D01*
X114205359Y-88899999D01*
X146166931Y-88899999D01*
X146186764Y-89126689D01*
X146245661Y-89346497D01*
X146341832Y-89552735D01*
X146472353Y-89739140D01*
X146633259Y-89900046D01*
X146819664Y-90030567D01*
X146819665Y-90030567D01*
X146819666Y-90030568D01*
X147025904Y-90126739D01*
X147245708Y-90185635D01*
X147472400Y-90205468D01*
X147699092Y-90185635D01*
X147918896Y-90126739D01*
X148125134Y-90030568D01*
X148311539Y-89900047D01*
X148472447Y-89739139D01*
X148602968Y-89552734D01*
X148699139Y-89346496D01*
X148758035Y-89126692D01*
X148777868Y-88900000D01*
X148758035Y-88673308D01*
X148699139Y-88453504D01*
X148602968Y-88247266D01*
X148577333Y-88210654D01*
X148472446Y-88060859D01*
X148311540Y-87899953D01*
X148125133Y-87769431D01*
X148067125Y-87742382D01*
X148014685Y-87696210D01*
X147995533Y-87629017D01*
X148015748Y-87562135D01*
X148067125Y-87517618D01*
X148125134Y-87490568D01*
X148311539Y-87360047D01*
X148472447Y-87199139D01*
X148602968Y-87012734D01*
X148699139Y-86806496D01*
X148758035Y-86586692D01*
X148777868Y-86360000D01*
X148758035Y-86133308D01*
X148699139Y-85913504D01*
X148602968Y-85707266D01*
X148577206Y-85670473D01*
X148472446Y-85520859D01*
X148311540Y-85359953D01*
X148125133Y-85229431D01*
X148067125Y-85202382D01*
X148014685Y-85156210D01*
X147995533Y-85089017D01*
X148015748Y-85022135D01*
X148067125Y-84977618D01*
X148125134Y-84950568D01*
X148311539Y-84820047D01*
X148472447Y-84659139D01*
X148602968Y-84472734D01*
X148699139Y-84266496D01*
X148758035Y-84046692D01*
X148777868Y-83820000D01*
X148758035Y-83593308D01*
X148699139Y-83373504D01*
X148602968Y-83167266D01*
X148577206Y-83130473D01*
X148472446Y-82980859D01*
X148311540Y-82819953D01*
X148125133Y-82689431D01*
X148067125Y-82662382D01*
X148014685Y-82616210D01*
X147995533Y-82549017D01*
X148015748Y-82482135D01*
X148067125Y-82437618D01*
X148125134Y-82410568D01*
X148311539Y-82280047D01*
X148472447Y-82119139D01*
X148602968Y-81932734D01*
X148699139Y-81726496D01*
X148758035Y-81506692D01*
X148777868Y-81280000D01*
X148758035Y-81053308D01*
X148699139Y-80833504D01*
X148602968Y-80627266D01*
X148577206Y-80590473D01*
X148472446Y-80440859D01*
X148311540Y-80279953D01*
X148125133Y-80149431D01*
X148067125Y-80122382D01*
X148014685Y-80076210D01*
X147995533Y-80009017D01*
X148015748Y-79942135D01*
X148067125Y-79897618D01*
X148125134Y-79870568D01*
X148311539Y-79740047D01*
X148472447Y-79579139D01*
X148602968Y-79392734D01*
X148699139Y-79186496D01*
X148758035Y-78966692D01*
X148777868Y-78740000D01*
X148758035Y-78513308D01*
X148699139Y-78293504D01*
X148602968Y-78087266D01*
X148577206Y-78050473D01*
X148472446Y-77900859D01*
X148311540Y-77739953D01*
X148125133Y-77609431D01*
X148067125Y-77582382D01*
X148014685Y-77536210D01*
X147995533Y-77469017D01*
X148015748Y-77402135D01*
X148067125Y-77357618D01*
X148125134Y-77330568D01*
X148311539Y-77200047D01*
X148472447Y-77039139D01*
X148602968Y-76852734D01*
X148699139Y-76646496D01*
X148758035Y-76426692D01*
X148777868Y-76200000D01*
X148758035Y-75973308D01*
X148699139Y-75753504D01*
X148602968Y-75547266D01*
X148602118Y-75546051D01*
X148472446Y-75360859D01*
X148311540Y-75199953D01*
X148125135Y-75069432D01*
X147918897Y-74973261D01*
X147699089Y-74914364D01*
X147472400Y-74894531D01*
X147245710Y-74914364D01*
X147025902Y-74973261D01*
X146819664Y-75069432D01*
X146633259Y-75199953D01*
X146472353Y-75360859D01*
X146341832Y-75547264D01*
X146245661Y-75753502D01*
X146186764Y-75973310D01*
X146166931Y-76200000D01*
X146186764Y-76426689D01*
X146245661Y-76646497D01*
X146341832Y-76852735D01*
X146472353Y-77039140D01*
X146633259Y-77200046D01*
X146760377Y-77289054D01*
X146819666Y-77330568D01*
X146877675Y-77357618D01*
X146930114Y-77403791D01*
X146949265Y-77470985D01*
X146929049Y-77537866D01*
X146877675Y-77582382D01*
X146819663Y-77609433D01*
X146633259Y-77739953D01*
X146472353Y-77900859D01*
X146341832Y-78087264D01*
X146245661Y-78293502D01*
X146186764Y-78513310D01*
X146166931Y-78740000D01*
X146186764Y-78966689D01*
X146245661Y-79186497D01*
X146341832Y-79392735D01*
X146472353Y-79579140D01*
X146633259Y-79740046D01*
X146760377Y-79829054D01*
X146819666Y-79870568D01*
X146877675Y-79897618D01*
X146930114Y-79943791D01*
X146949265Y-80010985D01*
X146929049Y-80077866D01*
X146877675Y-80122382D01*
X146819663Y-80149433D01*
X146633259Y-80279953D01*
X146472353Y-80440859D01*
X146341832Y-80627264D01*
X146245661Y-80833502D01*
X146186764Y-81053310D01*
X146166931Y-81279999D01*
X146186764Y-81506689D01*
X146245661Y-81726497D01*
X146341832Y-81932735D01*
X146472353Y-82119140D01*
X146633259Y-82280046D01*
X146760377Y-82369054D01*
X146819666Y-82410568D01*
X146877675Y-82437618D01*
X146930114Y-82483791D01*
X146949265Y-82550985D01*
X146929049Y-82617866D01*
X146877675Y-82662382D01*
X146819663Y-82689433D01*
X146633259Y-82819953D01*
X146472353Y-82980859D01*
X146341832Y-83167264D01*
X146245661Y-83373502D01*
X146186764Y-83593310D01*
X146166931Y-83820000D01*
X146186764Y-84046689D01*
X146245661Y-84266497D01*
X146341832Y-84472735D01*
X146472353Y-84659140D01*
X146633259Y-84820046D01*
X146760377Y-84909054D01*
X146819666Y-84950568D01*
X146877675Y-84977618D01*
X146930114Y-85023791D01*
X146949265Y-85090985D01*
X146929049Y-85157866D01*
X146877675Y-85202382D01*
X146819663Y-85229433D01*
X146633259Y-85359953D01*
X146472353Y-85520859D01*
X146341832Y-85707264D01*
X146245661Y-85913502D01*
X146186764Y-86133310D01*
X146166931Y-86360000D01*
X146186764Y-86586689D01*
X146245661Y-86806497D01*
X146341832Y-87012735D01*
X146472353Y-87199140D01*
X146633259Y-87360046D01*
X146812531Y-87485572D01*
X146819666Y-87490568D01*
X146877675Y-87517618D01*
X146930114Y-87563791D01*
X146949265Y-87630985D01*
X146929049Y-87697866D01*
X146877675Y-87742382D01*
X146819663Y-87769433D01*
X146633259Y-87899953D01*
X146472353Y-88060859D01*
X146341832Y-88247264D01*
X146245661Y-88453502D01*
X146186764Y-88673310D01*
X146166931Y-88899999D01*
X114205359Y-88899999D01*
X114214621Y-88867445D01*
X114235140Y-88646000D01*
X114214621Y-88424554D01*
X114153762Y-88210654D01*
X114054630Y-88011572D01*
X114038860Y-87990690D01*
X113383552Y-88645999D01*
X113383552Y-88646000D01*
X113381200Y-88646000D01*
X113383628Y-88616698D01*
X113354953Y-88503462D01*
X113291064Y-88405673D01*
X113198885Y-88333928D01*
X113088405Y-88296000D01*
X113000995Y-88296000D01*
X112914784Y-88310386D01*
X112812053Y-88365981D01*
X112732940Y-88451921D01*
X112686018Y-88558892D01*
X112676372Y-88675302D01*
X112647145Y-88675302D01*
X112676446Y-88646001D01*
X112676446Y-88645999D01*
X112021137Y-87990691D01*
X112005368Y-88011574D01*
X111906237Y-88210654D01*
X111845378Y-88424554D01*
X111824859Y-88646000D01*
X106615643Y-88646000D01*
X106595115Y-88424464D01*
X106544698Y-88247266D01*
X106534230Y-88210473D01*
X106435058Y-88011311D01*
X106300980Y-87833762D01*
X106136562Y-87683875D01*
X105947404Y-87566754D01*
X105912007Y-87553041D01*
X105753475Y-87491625D01*
X105698076Y-87449054D01*
X105674485Y-87383287D01*
X105690196Y-87315207D01*
X105740220Y-87266428D01*
X105753466Y-87260377D01*
X105947401Y-87185247D01*
X106136562Y-87068124D01*
X106300981Y-86918236D01*
X106435058Y-86740689D01*
X106534229Y-86541528D01*
X106595115Y-86327536D01*
X106615643Y-86106000D01*
X111824357Y-86106000D01*
X111825815Y-86121739D01*
X111844885Y-86327537D01*
X111905769Y-86541526D01*
X112004941Y-86740688D01*
X112139019Y-86918237D01*
X112303437Y-87068124D01*
X112492595Y-87185245D01*
X112492597Y-87185245D01*
X112492599Y-87185247D01*
X112687217Y-87260642D01*
X112742615Y-87303213D01*
X112766206Y-87368980D01*
X112750495Y-87437060D01*
X112700471Y-87485839D01*
X112687214Y-87491893D01*
X112492826Y-87567199D01*
X112376671Y-87639119D01*
X113030000Y-88292446D01*
X113030001Y-88292446D01*
X113683327Y-87639119D01*
X113567178Y-87567202D01*
X113372785Y-87491894D01*
X113317384Y-87449321D01*
X113293793Y-87383554D01*
X113309504Y-87315474D01*
X113359528Y-87266695D01*
X113372765Y-87260649D01*
X113567401Y-87185247D01*
X113756562Y-87068124D01*
X113920981Y-86918236D01*
X114055058Y-86740689D01*
X114154229Y-86541528D01*
X114215115Y-86327536D01*
X114235643Y-86106000D01*
X114215115Y-85884464D01*
X114164698Y-85707266D01*
X114154230Y-85670473D01*
X114055058Y-85471311D01*
X113920980Y-85293762D01*
X113756562Y-85143875D01*
X113567404Y-85026754D01*
X113532007Y-85013041D01*
X113373475Y-84951625D01*
X113318076Y-84909054D01*
X113294485Y-84843287D01*
X113310196Y-84775207D01*
X113360220Y-84726428D01*
X113373466Y-84720377D01*
X113567401Y-84645247D01*
X113756562Y-84528124D01*
X113920981Y-84378236D01*
X114055058Y-84200689D01*
X114154229Y-84001528D01*
X114215115Y-83787536D01*
X114235643Y-83566000D01*
X114215115Y-83344464D01*
X114164698Y-83167266D01*
X114154230Y-83130473D01*
X114055058Y-82931311D01*
X113920980Y-82753762D01*
X113756562Y-82603875D01*
X113567404Y-82486754D01*
X113532007Y-82473041D01*
X113373475Y-82411625D01*
X113318076Y-82369054D01*
X113294485Y-82303287D01*
X113310196Y-82235207D01*
X113360220Y-82186428D01*
X113373466Y-82180377D01*
X113567401Y-82105247D01*
X113756562Y-81988124D01*
X113920981Y-81838236D01*
X114055058Y-81660689D01*
X114154229Y-81461528D01*
X114215115Y-81247536D01*
X114235643Y-81026000D01*
X114215115Y-80804464D01*
X114164698Y-80627266D01*
X114154230Y-80590473D01*
X114055058Y-80391311D01*
X113920980Y-80213762D01*
X113756562Y-80063875D01*
X113567404Y-79946754D01*
X113532007Y-79933041D01*
X113373475Y-79871625D01*
X113318076Y-79829054D01*
X113294485Y-79763287D01*
X113310196Y-79695207D01*
X113360220Y-79646428D01*
X113373466Y-79640377D01*
X113567401Y-79565247D01*
X113756562Y-79448124D01*
X113920981Y-79298236D01*
X114055058Y-79120689D01*
X114154229Y-78921528D01*
X114215115Y-78707536D01*
X114235643Y-78486000D01*
X114215115Y-78264464D01*
X114164698Y-78087266D01*
X114154230Y-78050473D01*
X114055058Y-77851311D01*
X113920980Y-77673762D01*
X113756562Y-77523875D01*
X113567404Y-77406754D01*
X113532007Y-77393041D01*
X113373475Y-77331625D01*
X113318076Y-77289054D01*
X113294485Y-77223287D01*
X113310196Y-77155207D01*
X113360220Y-77106428D01*
X113373466Y-77100377D01*
X113567401Y-77025247D01*
X113756562Y-76908124D01*
X113920981Y-76758236D01*
X114055058Y-76580689D01*
X114154229Y-76381528D01*
X114188403Y-76261420D01*
X135635789Y-76261420D01*
X135665381Y-76505131D01*
X135733681Y-76740928D01*
X135733682Y-76740931D01*
X135838924Y-76962723D01*
X135978381Y-77164762D01*
X136148442Y-77341813D01*
X136344701Y-77489293D01*
X136344703Y-77489294D01*
X136562072Y-77603379D01*
X136678773Y-77642339D01*
X136794937Y-77681120D01*
X136916094Y-77700809D01*
X137037252Y-77720500D01*
X137037253Y-77720500D01*
X137218795Y-77720500D01*
X137221280Y-77720500D01*
X137404699Y-77705693D01*
X137643060Y-77646942D01*
X137868911Y-77550716D01*
X138076400Y-77419508D01*
X138260156Y-77256714D01*
X138415418Y-77066553D01*
X138538166Y-76853948D01*
X138625219Y-76624406D01*
X138674325Y-76383872D01*
X138684210Y-76138576D01*
X138654619Y-75894871D01*
X138586318Y-75659069D01*
X138481076Y-75437277D01*
X138341619Y-75235238D01*
X138171558Y-75058187D01*
X137975299Y-74910707D01*
X137975297Y-74910706D01*
X137975296Y-74910705D01*
X137757927Y-74796620D01*
X137525061Y-74718879D01*
X137282748Y-74679500D01*
X137282747Y-74679500D01*
X137098720Y-74679500D01*
X137096265Y-74679698D01*
X137096244Y-74679699D01*
X136915301Y-74694307D01*
X136676941Y-74753057D01*
X136451084Y-74849286D01*
X136243600Y-74980492D01*
X136059844Y-75143285D01*
X135904581Y-75333447D01*
X135781834Y-75546051D01*
X135694780Y-75775594D01*
X135645674Y-76016130D01*
X135635789Y-76261420D01*
X114188403Y-76261420D01*
X114215115Y-76167536D01*
X114235643Y-75946000D01*
X114215115Y-75724464D01*
X114164698Y-75547266D01*
X114154230Y-75510473D01*
X114055058Y-75311311D01*
X113920980Y-75133762D01*
X113756562Y-74983875D01*
X113567404Y-74866754D01*
X113532007Y-74853041D01*
X113373475Y-74791625D01*
X113318076Y-74749054D01*
X113294485Y-74683287D01*
X113310196Y-74615207D01*
X113360220Y-74566428D01*
X113373466Y-74560377D01*
X113567401Y-74485247D01*
X113756562Y-74368124D01*
X113920981Y-74218236D01*
X114055058Y-74040689D01*
X114154229Y-73841528D01*
X114215115Y-73627536D01*
X114235643Y-73406000D01*
X114215115Y-73184464D01*
X114192227Y-73104021D01*
X114154230Y-72970473D01*
X114055058Y-72771311D01*
X113920980Y-72593762D01*
X113756562Y-72443875D01*
X113567404Y-72326754D01*
X113532007Y-72313041D01*
X113373475Y-72251625D01*
X113318076Y-72209054D01*
X113294485Y-72143287D01*
X113310196Y-72075207D01*
X113360220Y-72026428D01*
X113373466Y-72020377D01*
X113567401Y-71945247D01*
X113756562Y-71828124D01*
X113920981Y-71678236D01*
X114055058Y-71500689D01*
X114154229Y-71301528D01*
X114215115Y-71087536D01*
X114235643Y-70866000D01*
X114215115Y-70644464D01*
X114192227Y-70564021D01*
X114154230Y-70430473D01*
X114055058Y-70231311D01*
X113920980Y-70053762D01*
X113756562Y-69903875D01*
X113567404Y-69786754D01*
X113532007Y-69773041D01*
X113373475Y-69711625D01*
X113318076Y-69669054D01*
X113294485Y-69603287D01*
X113310196Y-69535207D01*
X113360220Y-69486428D01*
X113373466Y-69480377D01*
X113567401Y-69405247D01*
X113756562Y-69288124D01*
X113920981Y-69138236D01*
X114055058Y-68960689D01*
X114154229Y-68761528D01*
X114215115Y-68547536D01*
X114235643Y-68326000D01*
X114215115Y-68104464D01*
X114192227Y-68024021D01*
X114154230Y-67890473D01*
X114055058Y-67691311D01*
X113920980Y-67513762D01*
X113756562Y-67363875D01*
X113567404Y-67246754D01*
X113506174Y-67223033D01*
X113359940Y-67166382D01*
X113141243Y-67125500D01*
X112918757Y-67125500D01*
X112700059Y-67166382D01*
X112700060Y-67166382D01*
X112492595Y-67246754D01*
X112303437Y-67363875D01*
X112139019Y-67513762D01*
X112004941Y-67691311D01*
X111905769Y-67890473D01*
X111844885Y-68104462D01*
X111824357Y-68326000D01*
X111844885Y-68547537D01*
X111905769Y-68761526D01*
X112004941Y-68960688D01*
X112139019Y-69138237D01*
X112303437Y-69288124D01*
X112457209Y-69383334D01*
X112492599Y-69405247D01*
X112686522Y-69480373D01*
X112741924Y-69522946D01*
X112765514Y-69588713D01*
X112749803Y-69656793D01*
X112699779Y-69705572D01*
X112686526Y-69711624D01*
X112555346Y-69762444D01*
X112492596Y-69786754D01*
X112303437Y-69903875D01*
X112139019Y-70053762D01*
X112004941Y-70231311D01*
X111905769Y-70430473D01*
X111844885Y-70644462D01*
X111824357Y-70865999D01*
X111844885Y-71087537D01*
X111905769Y-71301526D01*
X112004941Y-71500688D01*
X112139019Y-71678237D01*
X112303437Y-71828124D01*
X112390451Y-71882000D01*
X112492599Y-71945247D01*
X112686522Y-72020373D01*
X112741924Y-72062946D01*
X112765514Y-72128713D01*
X112749803Y-72196793D01*
X112699779Y-72245572D01*
X112686526Y-72251624D01*
X112555346Y-72302444D01*
X112492596Y-72326754D01*
X112303437Y-72443875D01*
X112139019Y-72593762D01*
X112004941Y-72771311D01*
X111905769Y-72970473D01*
X111844885Y-73184462D01*
X111824357Y-73406000D01*
X111844885Y-73627537D01*
X111905769Y-73841526D01*
X112004941Y-74040688D01*
X112139019Y-74218237D01*
X112303437Y-74368124D01*
X112457209Y-74463334D01*
X112492599Y-74485247D01*
X112686522Y-74560373D01*
X112741924Y-74602946D01*
X112765514Y-74668713D01*
X112749803Y-74736793D01*
X112699779Y-74785572D01*
X112686526Y-74791624D01*
X112555346Y-74842444D01*
X112492596Y-74866754D01*
X112303437Y-74983875D01*
X112139019Y-75133762D01*
X112004941Y-75311311D01*
X111905769Y-75510473D01*
X111844885Y-75724462D01*
X111824357Y-75945999D01*
X111844885Y-76167537D01*
X111905769Y-76381526D01*
X112004941Y-76580688D01*
X112139019Y-76758237D01*
X112303437Y-76908124D01*
X112391620Y-76962724D01*
X112492599Y-77025247D01*
X112686522Y-77100373D01*
X112741924Y-77142946D01*
X112765514Y-77208713D01*
X112749803Y-77276793D01*
X112699779Y-77325572D01*
X112686526Y-77331624D01*
X112619431Y-77357618D01*
X112492596Y-77406754D01*
X112303437Y-77523875D01*
X112139019Y-77673762D01*
X112004941Y-77851311D01*
X111905769Y-78050473D01*
X111844885Y-78264462D01*
X111824357Y-78486000D01*
X111844885Y-78707537D01*
X111905769Y-78921526D01*
X112004941Y-79120688D01*
X112139019Y-79298237D01*
X112303437Y-79448124D01*
X112457209Y-79543334D01*
X112492599Y-79565247D01*
X112686522Y-79640373D01*
X112741924Y-79682946D01*
X112765514Y-79748713D01*
X112749803Y-79816793D01*
X112699779Y-79865572D01*
X112686526Y-79871624D01*
X112619431Y-79897618D01*
X112492596Y-79946754D01*
X112303437Y-80063875D01*
X112139019Y-80213762D01*
X112004941Y-80391311D01*
X111905769Y-80590473D01*
X111844885Y-80804462D01*
X111824357Y-81025999D01*
X111844885Y-81247537D01*
X111905769Y-81461526D01*
X112004941Y-81660688D01*
X112139019Y-81838237D01*
X112303437Y-81988124D01*
X112457209Y-82083334D01*
X112492599Y-82105247D01*
X112686522Y-82180373D01*
X112741924Y-82222946D01*
X112765514Y-82288713D01*
X112749803Y-82356793D01*
X112699779Y-82405572D01*
X112686526Y-82411624D01*
X112619431Y-82437618D01*
X112492596Y-82486754D01*
X112303437Y-82603875D01*
X112139019Y-82753762D01*
X112004941Y-82931311D01*
X111905769Y-83130473D01*
X111844885Y-83344462D01*
X111824357Y-83566000D01*
X111844885Y-83787537D01*
X111905769Y-84001526D01*
X112004941Y-84200688D01*
X112139019Y-84378237D01*
X112303437Y-84528124D01*
X112415622Y-84597585D01*
X112492599Y-84645247D01*
X112686522Y-84720373D01*
X112741924Y-84762946D01*
X112765514Y-84828713D01*
X112749803Y-84896793D01*
X112699779Y-84945572D01*
X112686526Y-84951624D01*
X112555346Y-85002444D01*
X112492596Y-85026754D01*
X112303437Y-85143875D01*
X112139019Y-85293762D01*
X112004941Y-85471311D01*
X111905769Y-85670473D01*
X111844885Y-85884462D01*
X111844884Y-85884464D01*
X111844885Y-85884464D01*
X111824357Y-86106000D01*
X106615643Y-86106000D01*
X106595115Y-85884464D01*
X106544698Y-85707266D01*
X106534230Y-85670473D01*
X106435058Y-85471311D01*
X106300980Y-85293762D01*
X106136562Y-85143875D01*
X105947404Y-85026754D01*
X105912007Y-85013041D01*
X105753475Y-84951625D01*
X105698076Y-84909054D01*
X105674485Y-84843287D01*
X105690196Y-84775207D01*
X105740220Y-84726428D01*
X105753466Y-84720377D01*
X105947401Y-84645247D01*
X106136562Y-84528124D01*
X106300981Y-84378236D01*
X106435058Y-84200689D01*
X106534229Y-84001528D01*
X106595115Y-83787536D01*
X106615643Y-83566000D01*
X106595115Y-83344464D01*
X106544698Y-83167266D01*
X106534230Y-83130473D01*
X106435058Y-82931311D01*
X106300980Y-82753762D01*
X106136562Y-82603875D01*
X105947404Y-82486754D01*
X105912007Y-82473041D01*
X105753475Y-82411625D01*
X105698076Y-82369054D01*
X105674485Y-82303287D01*
X105690196Y-82235207D01*
X105740220Y-82186428D01*
X105753466Y-82180377D01*
X105947401Y-82105247D01*
X106136562Y-81988124D01*
X106300981Y-81838236D01*
X106435058Y-81660689D01*
X106534229Y-81461528D01*
X106595115Y-81247536D01*
X106615643Y-81026000D01*
X106595115Y-80804464D01*
X106544698Y-80627266D01*
X106534230Y-80590473D01*
X106435058Y-80391311D01*
X106300980Y-80213762D01*
X106136562Y-80063875D01*
X105947404Y-79946754D01*
X105912007Y-79933041D01*
X105753475Y-79871625D01*
X105698076Y-79829054D01*
X105674485Y-79763287D01*
X105690196Y-79695207D01*
X105740220Y-79646428D01*
X105753466Y-79640377D01*
X105947401Y-79565247D01*
X106136562Y-79448124D01*
X106300981Y-79298236D01*
X106435058Y-79120689D01*
X106534229Y-78921528D01*
X106595115Y-78707536D01*
X106615643Y-78486000D01*
X106595115Y-78264464D01*
X106544698Y-78087266D01*
X106534230Y-78050473D01*
X106435058Y-77851311D01*
X106300980Y-77673762D01*
X106136562Y-77523875D01*
X105947404Y-77406754D01*
X105912007Y-77393041D01*
X105753475Y-77331625D01*
X105698076Y-77289054D01*
X105674485Y-77223287D01*
X105690196Y-77155207D01*
X105740220Y-77106428D01*
X105753466Y-77100377D01*
X105947401Y-77025247D01*
X106136562Y-76908124D01*
X106300981Y-76758236D01*
X106435058Y-76580689D01*
X106534229Y-76381528D01*
X106595115Y-76167536D01*
X106615643Y-75946000D01*
X106595115Y-75724464D01*
X106544698Y-75547266D01*
X106534230Y-75510473D01*
X106435058Y-75311311D01*
X106300980Y-75133762D01*
X106136562Y-74983875D01*
X105947404Y-74866754D01*
X105912007Y-74853041D01*
X105753475Y-74791625D01*
X105698076Y-74749054D01*
X105674485Y-74683287D01*
X105690196Y-74615207D01*
X105740220Y-74566428D01*
X105753466Y-74560377D01*
X105947401Y-74485247D01*
X106136562Y-74368124D01*
X106300981Y-74218236D01*
X106435058Y-74040689D01*
X106534229Y-73841528D01*
X106595115Y-73627536D01*
X106615643Y-73406000D01*
X106595115Y-73184464D01*
X106572227Y-73104021D01*
X106534230Y-72970473D01*
X106435058Y-72771311D01*
X106300980Y-72593762D01*
X106136562Y-72443875D01*
X105947404Y-72326754D01*
X105912007Y-72313041D01*
X105753475Y-72251625D01*
X105698076Y-72209054D01*
X105674485Y-72143287D01*
X105690196Y-72075207D01*
X105740220Y-72026428D01*
X105753466Y-72020377D01*
X105947401Y-71945247D01*
X106136562Y-71828124D01*
X106300981Y-71678236D01*
X106435058Y-71500689D01*
X106534229Y-71301528D01*
X106595115Y-71087536D01*
X106615643Y-70866000D01*
X106595115Y-70644464D01*
X106572227Y-70564021D01*
X106534230Y-70430473D01*
X106435058Y-70231311D01*
X106300980Y-70053762D01*
X106136562Y-69903875D01*
X105947404Y-69786754D01*
X105912007Y-69773041D01*
X105753475Y-69711625D01*
X105698076Y-69669054D01*
X105674485Y-69603287D01*
X105690196Y-69535207D01*
X105740220Y-69486428D01*
X105753466Y-69480377D01*
X105947401Y-69405247D01*
X106136562Y-69288124D01*
X106300981Y-69138236D01*
X106435058Y-68960689D01*
X106534229Y-68761528D01*
X106595115Y-68547536D01*
X106615643Y-68326000D01*
X106595115Y-68104464D01*
X106572227Y-68024021D01*
X106534230Y-67890473D01*
X106435058Y-67691311D01*
X106300980Y-67513762D01*
X106136562Y-67363875D01*
X105947404Y-67246754D01*
X105886174Y-67223033D01*
X105739940Y-67166382D01*
X105521243Y-67125500D01*
X105298757Y-67125500D01*
X105080059Y-67166382D01*
X105080060Y-67166382D01*
X104872595Y-67246754D01*
X104683437Y-67363875D01*
X104519019Y-67513762D01*
X104384941Y-67691311D01*
X104285769Y-67890473D01*
X104224885Y-68104462D01*
X104204357Y-68325999D01*
X104224885Y-68547537D01*
X104285769Y-68761526D01*
X104384941Y-68960688D01*
X104519019Y-69138237D01*
X104683437Y-69288124D01*
X104837209Y-69383334D01*
X104872599Y-69405247D01*
X105066522Y-69480373D01*
X105121924Y-69522946D01*
X105145514Y-69588713D01*
X105129803Y-69656793D01*
X105079779Y-69705572D01*
X105066526Y-69711624D01*
X104935346Y-69762444D01*
X104872596Y-69786754D01*
X104683437Y-69903875D01*
X104519019Y-70053762D01*
X104384941Y-70231311D01*
X104285769Y-70430473D01*
X104224885Y-70644462D01*
X104204357Y-70866000D01*
X104224885Y-71087537D01*
X104285769Y-71301526D01*
X104384941Y-71500688D01*
X104519019Y-71678237D01*
X104683437Y-71828124D01*
X104770451Y-71882000D01*
X104872599Y-71945247D01*
X105066522Y-72020373D01*
X105121924Y-72062946D01*
X105145514Y-72128713D01*
X105129803Y-72196793D01*
X105079779Y-72245572D01*
X105066526Y-72251624D01*
X104935346Y-72302444D01*
X104872596Y-72326754D01*
X104683437Y-72443875D01*
X104519019Y-72593762D01*
X104384941Y-72771311D01*
X104285769Y-72970473D01*
X104224885Y-73184462D01*
X104204357Y-73405999D01*
X104224885Y-73627537D01*
X104285769Y-73841526D01*
X104384941Y-74040688D01*
X104519019Y-74218237D01*
X104683437Y-74368124D01*
X104837209Y-74463334D01*
X104872599Y-74485247D01*
X105066522Y-74560373D01*
X105121924Y-74602946D01*
X105145514Y-74668713D01*
X105129803Y-74736793D01*
X105079779Y-74785572D01*
X105066526Y-74791624D01*
X104935346Y-74842444D01*
X104872596Y-74866754D01*
X104683437Y-74983875D01*
X104519019Y-75133762D01*
X104384941Y-75311311D01*
X104285769Y-75510473D01*
X104224885Y-75724462D01*
X104204357Y-75946000D01*
X104224885Y-76167537D01*
X104285769Y-76381526D01*
X104384941Y-76580688D01*
X104519019Y-76758237D01*
X104683437Y-76908124D01*
X104771620Y-76962724D01*
X104872599Y-77025247D01*
X105066522Y-77100373D01*
X105121924Y-77142946D01*
X105145514Y-77208713D01*
X105129803Y-77276793D01*
X105079779Y-77325572D01*
X105066526Y-77331624D01*
X104999431Y-77357618D01*
X104872596Y-77406754D01*
X104683437Y-77523875D01*
X104519019Y-77673762D01*
X104384941Y-77851311D01*
X104285769Y-78050473D01*
X104224885Y-78264462D01*
X104204357Y-78485999D01*
X104224885Y-78707537D01*
X104285769Y-78921526D01*
X104384941Y-79120688D01*
X104519019Y-79298237D01*
X104683437Y-79448124D01*
X104837209Y-79543334D01*
X104872599Y-79565247D01*
X105066522Y-79640373D01*
X105121924Y-79682946D01*
X105145514Y-79748713D01*
X105129803Y-79816793D01*
X105079779Y-79865572D01*
X105066526Y-79871624D01*
X104999431Y-79897618D01*
X104872596Y-79946754D01*
X104683437Y-80063875D01*
X104519019Y-80213762D01*
X104384941Y-80391311D01*
X104285769Y-80590473D01*
X104224885Y-80804462D01*
X104204357Y-81026000D01*
X104224885Y-81247537D01*
X104285769Y-81461526D01*
X104384941Y-81660688D01*
X104519019Y-81838237D01*
X104683437Y-81988124D01*
X104837209Y-82083334D01*
X104872599Y-82105247D01*
X105066522Y-82180373D01*
X105121924Y-82222946D01*
X105145514Y-82288713D01*
X105129803Y-82356793D01*
X105079779Y-82405572D01*
X105066526Y-82411624D01*
X104999431Y-82437618D01*
X104872596Y-82486754D01*
X104683437Y-82603875D01*
X104519019Y-82753762D01*
X104384941Y-82931311D01*
X104285769Y-83130473D01*
X104224885Y-83344462D01*
X104224884Y-83344464D01*
X104224885Y-83344464D01*
X104204357Y-83566000D01*
X104205932Y-83583000D01*
X104224885Y-83787537D01*
X104285769Y-84001526D01*
X104384941Y-84200688D01*
X104519019Y-84378237D01*
X104683437Y-84528124D01*
X104795622Y-84597585D01*
X104872599Y-84645247D01*
X105066522Y-84720373D01*
X105121924Y-84762946D01*
X105145514Y-84828713D01*
X105129803Y-84896793D01*
X105079779Y-84945572D01*
X105066526Y-84951624D01*
X104935346Y-85002444D01*
X104872596Y-85026754D01*
X104683437Y-85143875D01*
X104519019Y-85293762D01*
X104384941Y-85471311D01*
X104285769Y-85670473D01*
X104224885Y-85884462D01*
X104204357Y-86106000D01*
X104224885Y-86327537D01*
X104285769Y-86541526D01*
X104384941Y-86740688D01*
X104519019Y-86918237D01*
X104683437Y-87068124D01*
X104837209Y-87163334D01*
X104872599Y-87185247D01*
X105066522Y-87260373D01*
X105121924Y-87302946D01*
X105145514Y-87368713D01*
X105129803Y-87436793D01*
X105079779Y-87485572D01*
X105066526Y-87491624D01*
X104999431Y-87517618D01*
X104872596Y-87566754D01*
X104683437Y-87683875D01*
X104519019Y-87833762D01*
X104384941Y-88011311D01*
X104285769Y-88210473D01*
X104224885Y-88424462D01*
X104204357Y-88645999D01*
X104224885Y-88867537D01*
X104285769Y-89081526D01*
X104384941Y-89280688D01*
X104519019Y-89458237D01*
X104683437Y-89608124D01*
X104755723Y-89652881D01*
X104872599Y-89725247D01*
X105066522Y-89800373D01*
X105121924Y-89842946D01*
X105145514Y-89908713D01*
X105129803Y-89976793D01*
X105079779Y-90025572D01*
X105066526Y-90031624D01*
X104935346Y-90082444D01*
X104872596Y-90106754D01*
X104683437Y-90223875D01*
X104519019Y-90373762D01*
X104384941Y-90551311D01*
X104285769Y-90750473D01*
X104224885Y-90964462D01*
X104204357Y-91186000D01*
X104224885Y-91407537D01*
X104285769Y-91621526D01*
X104384941Y-91820688D01*
X104519019Y-91998237D01*
X104683437Y-92148124D01*
X104837209Y-92243334D01*
X104872599Y-92265247D01*
X105066522Y-92340373D01*
X105121924Y-92382946D01*
X105145514Y-92448713D01*
X105129803Y-92516793D01*
X105079779Y-92565572D01*
X105066526Y-92571624D01*
X104935346Y-92622444D01*
X104872596Y-92646754D01*
X104683437Y-92763875D01*
X104519019Y-92913762D01*
X104384941Y-93091311D01*
X104285769Y-93290473D01*
X104224885Y-93504462D01*
X104204357Y-93725999D01*
X104224885Y-93947537D01*
X104285769Y-94161526D01*
X104384941Y-94360688D01*
X104519019Y-94538237D01*
X104683437Y-94688124D01*
X104837209Y-94783334D01*
X104872599Y-94805247D01*
X105066522Y-94880373D01*
X105121924Y-94922946D01*
X105145514Y-94988713D01*
X105129803Y-95056793D01*
X105079779Y-95105572D01*
X105066526Y-95111624D01*
X104935346Y-95162444D01*
X104872596Y-95186754D01*
X104683437Y-95303875D01*
X104519019Y-95453762D01*
X104384941Y-95631311D01*
X104285769Y-95830473D01*
X104224885Y-96044462D01*
X104204357Y-96266000D01*
X104224885Y-96487537D01*
X104285769Y-96701526D01*
X104384941Y-96900688D01*
X104519019Y-97078237D01*
X104683437Y-97228124D01*
X104837209Y-97323334D01*
X104872599Y-97345247D01*
X105066522Y-97420373D01*
X105121924Y-97462946D01*
X105145514Y-97528713D01*
X105129803Y-97596793D01*
X105079779Y-97645572D01*
X105066526Y-97651624D01*
X104935346Y-97702444D01*
X104872596Y-97726754D01*
X104683437Y-97843875D01*
X104519019Y-97993762D01*
X104384941Y-98171311D01*
X104285769Y-98370473D01*
X104224885Y-98584462D01*
X104204357Y-98805999D01*
X104224885Y-99027537D01*
X104285769Y-99241526D01*
X104384941Y-99440688D01*
X104519019Y-99618237D01*
X104683437Y-99768124D01*
X104837209Y-99863334D01*
X104872599Y-99885247D01*
X105066522Y-99960373D01*
X105121924Y-100002946D01*
X105145514Y-100068713D01*
X105129803Y-100136793D01*
X105079779Y-100185572D01*
X105066526Y-100191624D01*
X104935346Y-100242444D01*
X104872596Y-100266754D01*
X104683437Y-100383875D01*
X104519019Y-100533762D01*
X104384941Y-100711311D01*
X104285769Y-100910473D01*
X104224885Y-101124462D01*
X104204357Y-101346000D01*
X71973974Y-101346000D01*
X71989348Y-101295135D01*
X72040725Y-101250618D01*
X72098734Y-101223568D01*
X72285139Y-101093047D01*
X72446047Y-100932139D01*
X72576568Y-100745734D01*
X72672739Y-100539496D01*
X72731635Y-100319692D01*
X72751468Y-100093000D01*
X72731635Y-99866308D01*
X72672739Y-99646504D01*
X72576568Y-99440266D01*
X72446047Y-99253861D01*
X72446046Y-99253859D01*
X72285140Y-99092953D01*
X72098733Y-98962431D01*
X72040725Y-98935382D01*
X71988285Y-98889210D01*
X71969133Y-98822017D01*
X71989348Y-98755135D01*
X72040725Y-98710618D01*
X72098734Y-98683568D01*
X72285139Y-98553047D01*
X72446047Y-98392139D01*
X72576568Y-98205734D01*
X72672739Y-97999496D01*
X72731635Y-97779692D01*
X72751468Y-97553000D01*
X72731635Y-97326308D01*
X72672739Y-97106504D01*
X72576568Y-96900266D01*
X72446047Y-96713861D01*
X72446046Y-96713859D01*
X72285140Y-96552953D01*
X72098733Y-96422431D01*
X72040725Y-96395382D01*
X71988285Y-96349210D01*
X71969133Y-96282017D01*
X71989348Y-96215135D01*
X72040725Y-96170618D01*
X72098734Y-96143568D01*
X72285139Y-96013047D01*
X72446047Y-95852139D01*
X72576568Y-95665734D01*
X72672739Y-95459496D01*
X72731635Y-95239692D01*
X72751468Y-95013000D01*
X72749981Y-94995999D01*
X96884540Y-94995999D01*
X96904326Y-95184257D01*
X96962820Y-95364284D01*
X97057466Y-95528216D01*
X97184129Y-95668889D01*
X97337269Y-95780151D01*
X97510197Y-95857144D01*
X97695352Y-95896500D01*
X97695354Y-95896500D01*
X97884648Y-95896500D01*
X98008083Y-95870262D01*
X98069803Y-95857144D01*
X98242730Y-95780151D01*
X98242730Y-95780150D01*
X98395870Y-95668889D01*
X98522533Y-95528216D01*
X98617179Y-95364284D01*
X98654312Y-95250000D01*
X98675674Y-95184256D01*
X98695460Y-94996000D01*
X98675674Y-94807744D01*
X98617179Y-94627716D01*
X98617179Y-94627715D01*
X98522533Y-94463783D01*
X98395870Y-94323110D01*
X98242730Y-94211848D01*
X98069802Y-94134855D01*
X97884648Y-94095500D01*
X97884646Y-94095500D01*
X97695354Y-94095500D01*
X97695352Y-94095500D01*
X97510197Y-94134855D01*
X97337269Y-94211848D01*
X97184129Y-94323110D01*
X97057466Y-94463783D01*
X96962820Y-94627715D01*
X96904326Y-94807742D01*
X96884540Y-94995999D01*
X72749981Y-94995999D01*
X72731635Y-94786308D01*
X72672739Y-94566504D01*
X72576568Y-94360266D01*
X72550552Y-94323110D01*
X72446046Y-94173859D01*
X72285140Y-94012953D01*
X72098733Y-93882431D01*
X72040725Y-93855382D01*
X71988285Y-93809210D01*
X71969133Y-93742017D01*
X71989348Y-93675135D01*
X72040725Y-93630618D01*
X72098734Y-93603568D01*
X72285139Y-93473047D01*
X72446047Y-93312139D01*
X72576568Y-93125734D01*
X72672739Y-92919496D01*
X72731635Y-92699692D01*
X72751468Y-92473000D01*
X72741232Y-92356000D01*
X90180659Y-92356000D01*
X90199976Y-92552133D01*
X90257185Y-92740726D01*
X90269559Y-92763876D01*
X90350090Y-92914538D01*
X90475117Y-93066883D01*
X90627462Y-93191910D01*
X90801273Y-93284814D01*
X90989868Y-93342024D01*
X91186000Y-93361341D01*
X91382132Y-93342024D01*
X91570727Y-93284814D01*
X91744538Y-93191910D01*
X91896883Y-93066883D01*
X92021910Y-92914538D01*
X92114814Y-92740727D01*
X92172024Y-92552132D01*
X92191341Y-92356000D01*
X92172024Y-92159868D01*
X92114814Y-91971273D01*
X92021910Y-91797462D01*
X91896883Y-91645117D01*
X91744538Y-91520090D01*
X91656351Y-91472953D01*
X91570726Y-91427185D01*
X91382133Y-91369976D01*
X91186000Y-91350659D01*
X90989866Y-91369976D01*
X90801273Y-91427185D01*
X90627463Y-91520089D01*
X90475117Y-91645117D01*
X90350089Y-91797463D01*
X90257185Y-91971273D01*
X90199976Y-92159866D01*
X90180659Y-92356000D01*
X72741232Y-92356000D01*
X72731635Y-92246308D01*
X72672739Y-92026504D01*
X72576568Y-91820266D01*
X72560602Y-91797463D01*
X72446046Y-91633859D01*
X72285140Y-91472953D01*
X72098733Y-91342431D01*
X72040725Y-91315382D01*
X71988285Y-91269210D01*
X71969133Y-91202017D01*
X71989348Y-91135135D01*
X72040725Y-91090618D01*
X72098734Y-91063568D01*
X72285139Y-90933047D01*
X72446047Y-90772139D01*
X72576568Y-90585734D01*
X72672739Y-90379496D01*
X72731635Y-90159692D01*
X72751468Y-89933000D01*
X72731635Y-89706308D01*
X72672739Y-89486504D01*
X72576568Y-89280266D01*
X72469036Y-89126692D01*
X72446046Y-89093859D01*
X72285140Y-88932953D01*
X72098733Y-88802431D01*
X72040725Y-88775382D01*
X71988285Y-88729210D01*
X71969133Y-88662017D01*
X71989348Y-88595135D01*
X72040725Y-88550618D01*
X72098734Y-88523568D01*
X72285139Y-88393047D01*
X72446047Y-88232139D01*
X72576568Y-88045734D01*
X72672739Y-87839496D01*
X72731635Y-87619692D01*
X72744206Y-87476000D01*
X90180659Y-87476000D01*
X90199976Y-87672133D01*
X90257185Y-87860726D01*
X90286801Y-87916133D01*
X90350090Y-88034538D01*
X90475117Y-88186883D01*
X90627462Y-88311910D01*
X90801273Y-88404814D01*
X90989868Y-88462024D01*
X91186000Y-88481341D01*
X91382132Y-88462024D01*
X91570727Y-88404814D01*
X91744538Y-88311910D01*
X91896883Y-88186883D01*
X92021910Y-88034538D01*
X92114814Y-87860727D01*
X92172024Y-87672132D01*
X92191341Y-87476000D01*
X92172024Y-87279868D01*
X92114814Y-87091273D01*
X92021910Y-86917462D01*
X91896883Y-86765117D01*
X91744538Y-86640090D01*
X91722091Y-86628091D01*
X91570726Y-86547185D01*
X91382133Y-86489976D01*
X91186000Y-86470659D01*
X90989866Y-86489976D01*
X90801273Y-86547185D01*
X90627463Y-86640089D01*
X90475117Y-86765117D01*
X90350089Y-86917463D01*
X90257185Y-87091273D01*
X90199976Y-87279866D01*
X90180659Y-87476000D01*
X72744206Y-87476000D01*
X72751468Y-87393000D01*
X72731635Y-87166308D01*
X72672739Y-86946504D01*
X72576568Y-86740266D01*
X72469036Y-86586692D01*
X72446046Y-86553859D01*
X72285140Y-86392953D01*
X72098733Y-86262431D01*
X72040725Y-86235382D01*
X71988285Y-86189210D01*
X71969133Y-86122017D01*
X71989348Y-86055135D01*
X72040725Y-86010618D01*
X72041317Y-86010342D01*
X72098734Y-85983568D01*
X72285139Y-85853047D01*
X72446047Y-85692139D01*
X72576568Y-85505734D01*
X72672739Y-85299496D01*
X72731635Y-85079692D01*
X72751468Y-84853000D01*
X72749981Y-84835999D01*
X97138540Y-84835999D01*
X97158326Y-85024257D01*
X97216820Y-85204284D01*
X97311466Y-85368216D01*
X97438129Y-85508889D01*
X97591269Y-85620151D01*
X97764197Y-85697144D01*
X97949352Y-85736500D01*
X97949354Y-85736500D01*
X98138648Y-85736500D01*
X98276192Y-85707264D01*
X98323803Y-85697144D01*
X98496730Y-85620151D01*
X98633392Y-85520861D01*
X98649870Y-85508889D01*
X98652940Y-85505480D01*
X98776533Y-85368216D01*
X98871179Y-85204284D01*
X98929674Y-85024256D01*
X98949460Y-84836000D01*
X98929674Y-84647744D01*
X98899332Y-84554363D01*
X98871179Y-84467715D01*
X98776533Y-84303783D01*
X98649870Y-84163110D01*
X98496730Y-84051848D01*
X98323802Y-83974855D01*
X98138648Y-83935500D01*
X98138646Y-83935500D01*
X97949354Y-83935500D01*
X97949352Y-83935500D01*
X97764197Y-83974855D01*
X97591269Y-84051848D01*
X97438129Y-84163110D01*
X97311466Y-84303783D01*
X97216820Y-84467715D01*
X97158326Y-84647742D01*
X97138540Y-84835999D01*
X72749981Y-84835999D01*
X72731635Y-84626308D01*
X72672739Y-84406504D01*
X72576568Y-84200266D01*
X72550552Y-84163110D01*
X72446046Y-84013859D01*
X72285140Y-83852953D01*
X72098733Y-83722431D01*
X72040725Y-83695382D01*
X71988285Y-83649210D01*
X71969133Y-83582017D01*
X71989348Y-83515135D01*
X72040725Y-83470618D01*
X72098734Y-83443568D01*
X72285139Y-83313047D01*
X72446047Y-83152139D01*
X72576568Y-82965734D01*
X72672739Y-82759496D01*
X72731635Y-82539692D01*
X72751468Y-82313000D01*
X72731635Y-82086308D01*
X72672739Y-81866504D01*
X72576568Y-81660266D01*
X72469036Y-81506692D01*
X72446046Y-81473859D01*
X72285140Y-81312953D01*
X72098733Y-81182431D01*
X72040725Y-81155382D01*
X71988285Y-81109210D01*
X71969133Y-81042017D01*
X71989348Y-80975135D01*
X72040725Y-80930618D01*
X72098734Y-80903568D01*
X72285139Y-80773047D01*
X72446047Y-80612139D01*
X72576568Y-80425734D01*
X72672739Y-80219496D01*
X72731635Y-79999692D01*
X72751468Y-79773000D01*
X72731635Y-79546308D01*
X72672739Y-79326504D01*
X72576568Y-79120266D01*
X72469036Y-78966692D01*
X72446046Y-78933859D01*
X72285140Y-78772953D01*
X72098733Y-78642431D01*
X72040725Y-78615382D01*
X71988285Y-78569210D01*
X71969133Y-78502017D01*
X71989348Y-78435135D01*
X72040725Y-78390618D01*
X72098734Y-78363568D01*
X72285139Y-78233047D01*
X72446047Y-78072139D01*
X72576568Y-77885734D01*
X72672739Y-77679496D01*
X72731635Y-77459692D01*
X72751468Y-77233000D01*
X72731635Y-77006308D01*
X72672739Y-76786504D01*
X72576568Y-76580266D01*
X72523959Y-76505131D01*
X72446046Y-76393859D01*
X72313607Y-76261420D01*
X82295789Y-76261420D01*
X82325381Y-76505131D01*
X82393681Y-76740928D01*
X82393682Y-76740931D01*
X82498924Y-76962723D01*
X82638381Y-77164762D01*
X82808442Y-77341813D01*
X83004701Y-77489293D01*
X83004703Y-77489294D01*
X83222072Y-77603379D01*
X83338773Y-77642339D01*
X83454937Y-77681120D01*
X83576095Y-77700809D01*
X83697252Y-77720500D01*
X83697253Y-77720500D01*
X83878795Y-77720500D01*
X83881280Y-77720500D01*
X84064699Y-77705693D01*
X84303060Y-77646942D01*
X84528911Y-77550716D01*
X84736400Y-77419508D01*
X84920156Y-77256714D01*
X85075418Y-77066553D01*
X85198166Y-76853948D01*
X85285219Y-76624406D01*
X85334325Y-76383872D01*
X85344210Y-76138576D01*
X85314619Y-75894871D01*
X85246318Y-75659069D01*
X85141076Y-75437277D01*
X85001619Y-75235238D01*
X84831558Y-75058187D01*
X84635299Y-74910707D01*
X84635297Y-74910706D01*
X84635296Y-74910705D01*
X84417927Y-74796620D01*
X84185061Y-74718879D01*
X83942748Y-74679500D01*
X83942747Y-74679500D01*
X83758720Y-74679500D01*
X83756265Y-74679698D01*
X83756244Y-74679699D01*
X83575301Y-74694307D01*
X83336941Y-74753057D01*
X83111084Y-74849286D01*
X82903600Y-74980492D01*
X82719844Y-75143285D01*
X82564581Y-75333447D01*
X82441834Y-75546051D01*
X82354780Y-75775594D01*
X82305674Y-76016130D01*
X82295789Y-76261420D01*
X72313607Y-76261420D01*
X72285140Y-76232953D01*
X72098733Y-76102431D01*
X72040725Y-76075382D01*
X71988285Y-76029210D01*
X71969133Y-75962017D01*
X71989348Y-75895135D01*
X72040725Y-75850618D01*
X72098734Y-75823568D01*
X72285139Y-75693047D01*
X72446047Y-75532139D01*
X72576568Y-75345734D01*
X72672739Y-75139496D01*
X72731635Y-74919692D01*
X72751468Y-74693000D01*
X72731635Y-74466308D01*
X72672739Y-74246504D01*
X72576568Y-74040266D01*
X72446047Y-73853861D01*
X72446046Y-73853859D01*
X72285140Y-73692953D01*
X72098733Y-73562431D01*
X72040725Y-73535382D01*
X71988285Y-73489210D01*
X71969133Y-73422017D01*
X71989348Y-73355135D01*
X72040725Y-73310618D01*
X72098734Y-73283568D01*
X72285139Y-73153047D01*
X72446047Y-72992139D01*
X72576568Y-72805734D01*
X72672739Y-72599496D01*
X72731635Y-72379692D01*
X72751468Y-72153000D01*
X72731635Y-71926308D01*
X72719763Y-71882000D01*
X86724540Y-71882000D01*
X86744326Y-72070257D01*
X86802820Y-72250284D01*
X86897466Y-72414216D01*
X87024129Y-72554889D01*
X87177269Y-72666151D01*
X87350197Y-72743144D01*
X87535352Y-72782500D01*
X87535354Y-72782500D01*
X87724648Y-72782500D01*
X87848083Y-72756262D01*
X87909803Y-72743144D01*
X88082730Y-72666151D01*
X88182363Y-72593764D01*
X88235870Y-72554889D01*
X88362533Y-72414216D01*
X88457179Y-72250284D01*
X88458710Y-72245572D01*
X88515674Y-72070256D01*
X88535460Y-71882000D01*
X88515674Y-71693744D01*
X88457179Y-71513716D01*
X88457179Y-71513715D01*
X88362533Y-71349783D01*
X88235870Y-71209110D01*
X88082730Y-71097848D01*
X87909802Y-71020855D01*
X87724648Y-70981500D01*
X87724646Y-70981500D01*
X87535354Y-70981500D01*
X87535352Y-70981500D01*
X87350197Y-71020855D01*
X87177269Y-71097848D01*
X87024129Y-71209110D01*
X86897466Y-71349783D01*
X86802820Y-71513715D01*
X86744326Y-71693742D01*
X86724540Y-71882000D01*
X72719763Y-71882000D01*
X72672739Y-71706504D01*
X72576568Y-71500266D01*
X72471201Y-71349784D01*
X72446046Y-71313859D01*
X72285140Y-71152953D01*
X72098733Y-71022431D01*
X72040725Y-70995382D01*
X71988285Y-70949210D01*
X71969133Y-70882017D01*
X71989348Y-70815135D01*
X72040725Y-70770618D01*
X72098734Y-70743568D01*
X72285139Y-70613047D01*
X72446047Y-70452139D01*
X72576568Y-70265734D01*
X72672739Y-70059496D01*
X72731635Y-69839692D01*
X72751468Y-69613000D01*
X72731635Y-69386308D01*
X72672739Y-69166504D01*
X72576568Y-68960266D01*
X72446047Y-68773861D01*
X72446046Y-68773859D01*
X72285140Y-68612953D01*
X72098733Y-68482431D01*
X72040725Y-68455382D01*
X71988285Y-68409210D01*
X71969133Y-68342017D01*
X71989348Y-68275135D01*
X72040725Y-68230618D01*
X72098734Y-68203568D01*
X72285139Y-68073047D01*
X72446047Y-67912139D01*
X72576568Y-67725734D01*
X72672739Y-67519496D01*
X72731635Y-67299692D01*
X72751468Y-67073000D01*
X72731635Y-66846308D01*
X72719763Y-66802000D01*
X109076540Y-66802000D01*
X109096326Y-66990257D01*
X109154820Y-67170284D01*
X109249466Y-67334216D01*
X109376129Y-67474889D01*
X109529269Y-67586151D01*
X109702197Y-67663144D01*
X109887352Y-67702500D01*
X109887354Y-67702500D01*
X110076648Y-67702500D01*
X110200083Y-67676262D01*
X110261803Y-67663144D01*
X110434730Y-67586151D01*
X110534363Y-67513764D01*
X110587870Y-67474889D01*
X110714533Y-67334216D01*
X110809179Y-67170284D01*
X110823730Y-67125500D01*
X110867674Y-66990256D01*
X110887460Y-66802000D01*
X110867674Y-66613744D01*
X110809179Y-66433716D01*
X110809179Y-66433715D01*
X110714533Y-66269783D01*
X110587870Y-66129110D01*
X110434730Y-66017848D01*
X110261802Y-65940855D01*
X110076648Y-65901500D01*
X110076646Y-65901500D01*
X109887354Y-65901500D01*
X109887352Y-65901500D01*
X109702197Y-65940855D01*
X109529269Y-66017848D01*
X109376129Y-66129110D01*
X109249466Y-66269783D01*
X109154820Y-66433715D01*
X109096326Y-66613742D01*
X109076540Y-66802000D01*
X72719763Y-66802000D01*
X72672739Y-66626504D01*
X72576568Y-66420266D01*
X72557578Y-66393144D01*
X72446046Y-66233859D01*
X72285140Y-66072953D01*
X72098736Y-65942433D01*
X72040723Y-65915381D01*
X71988284Y-65869208D01*
X71969133Y-65802014D01*
X71989349Y-65735133D01*
X72040721Y-65690619D01*
X72098734Y-65663568D01*
X72285139Y-65533047D01*
X72286187Y-65531999D01*
X120760540Y-65531999D01*
X120780326Y-65720257D01*
X120838820Y-65900284D01*
X120933466Y-66064216D01*
X121060129Y-66204889D01*
X121213269Y-66316151D01*
X121386197Y-66393144D01*
X121571352Y-66432500D01*
X121571354Y-66432500D01*
X121760648Y-66432500D01*
X121884083Y-66406262D01*
X121945803Y-66393144D01*
X122118730Y-66316151D01*
X122271871Y-66204888D01*
X122398533Y-66064216D01*
X122493179Y-65900284D01*
X122551674Y-65720256D01*
X122571460Y-65532000D01*
X122551674Y-65343744D01*
X122521332Y-65250363D01*
X122493179Y-65163715D01*
X122398533Y-64999783D01*
X122271870Y-64859110D01*
X122118730Y-64747848D01*
X121945802Y-64670855D01*
X121760648Y-64631500D01*
X121760646Y-64631500D01*
X121571354Y-64631500D01*
X121571352Y-64631500D01*
X121386197Y-64670855D01*
X121213269Y-64747848D01*
X121060129Y-64859110D01*
X120933466Y-64999783D01*
X120838820Y-65163715D01*
X120780326Y-65343742D01*
X120760540Y-65531999D01*
X72286187Y-65531999D01*
X72446047Y-65372139D01*
X72576568Y-65185734D01*
X72672739Y-64979496D01*
X72731635Y-64759692D01*
X72751468Y-64533000D01*
X72731635Y-64306308D01*
X72672739Y-64086504D01*
X72576568Y-63880266D01*
X72557578Y-63853144D01*
X72488157Y-63754000D01*
X88756540Y-63754000D01*
X88776326Y-63942257D01*
X88834820Y-64122284D01*
X88929466Y-64286216D01*
X89056129Y-64426889D01*
X89209269Y-64538151D01*
X89382197Y-64615144D01*
X89567352Y-64654500D01*
X89567354Y-64654500D01*
X89756648Y-64654500D01*
X89880083Y-64628262D01*
X89941803Y-64615144D01*
X90114730Y-64538151D01*
X90267871Y-64426888D01*
X90394533Y-64286216D01*
X90489179Y-64122284D01*
X90547674Y-63942256D01*
X90567460Y-63754000D01*
X90547674Y-63565744D01*
X90517332Y-63472363D01*
X90489179Y-63385715D01*
X90394533Y-63221783D01*
X90267870Y-63081110D01*
X90145218Y-62991999D01*
X134476540Y-62991999D01*
X134496326Y-63180257D01*
X134554820Y-63360284D01*
X134649466Y-63524216D01*
X134776129Y-63664889D01*
X134929269Y-63776151D01*
X135102197Y-63853144D01*
X135287352Y-63892500D01*
X135287354Y-63892500D01*
X135476648Y-63892500D01*
X135600083Y-63866262D01*
X135661803Y-63853144D01*
X135834730Y-63776151D01*
X135955398Y-63688481D01*
X135987870Y-63664889D01*
X136023225Y-63625624D01*
X136114533Y-63524216D01*
X136209179Y-63360284D01*
X136267674Y-63180256D01*
X136287460Y-62992000D01*
X136267674Y-62803744D01*
X136209179Y-62623716D01*
X136209179Y-62623715D01*
X136114533Y-62459783D01*
X135987870Y-62319110D01*
X135834730Y-62207848D01*
X135661802Y-62130855D01*
X135476648Y-62091500D01*
X135476646Y-62091500D01*
X135287354Y-62091500D01*
X135287352Y-62091500D01*
X135102197Y-62130855D01*
X134929269Y-62207848D01*
X134776129Y-62319110D01*
X134649466Y-62459783D01*
X134554820Y-62623715D01*
X134496326Y-62803742D01*
X134476540Y-62991999D01*
X90145218Y-62991999D01*
X90114730Y-62969848D01*
X89941802Y-62892855D01*
X89756648Y-62853500D01*
X89756646Y-62853500D01*
X89567354Y-62853500D01*
X89567352Y-62853500D01*
X89382197Y-62892855D01*
X89209269Y-62969848D01*
X89056129Y-63081110D01*
X88929466Y-63221783D01*
X88834820Y-63385715D01*
X88776326Y-63565742D01*
X88756540Y-63754000D01*
X72488157Y-63754000D01*
X72446046Y-63693859D01*
X72285140Y-63532953D01*
X72098735Y-63402432D01*
X71892497Y-63306261D01*
X71672689Y-63247364D01*
X71446000Y-63227531D01*
X71219310Y-63247364D01*
X70999502Y-63306261D01*
X70793264Y-63402432D01*
X70606859Y-63532953D01*
X70445953Y-63693859D01*
X70428288Y-63719088D01*
X70373711Y-63762712D01*
X70304212Y-63769904D01*
X70241858Y-63738381D01*
X70206445Y-63678151D01*
X70203424Y-63661217D01*
X70199597Y-63625624D01*
X70149352Y-63490910D01*
X70063188Y-63375811D01*
X69948089Y-63289647D01*
X69813371Y-63239400D01*
X69757132Y-63233354D01*
X69750518Y-63233000D01*
X69156000Y-63233000D01*
X69156000Y-64041316D01*
X69127181Y-64023791D01*
X68981596Y-63983000D01*
X68868378Y-63983000D01*
X68756217Y-63998416D01*
X68656000Y-64041946D01*
X68656000Y-63233000D01*
X68061482Y-63233000D01*
X68054867Y-63233354D01*
X67998628Y-63239400D01*
X67863910Y-63289647D01*
X67748811Y-63375811D01*
X67662647Y-63490910D01*
X67612400Y-63625628D01*
X67606354Y-63681867D01*
X67606000Y-63688481D01*
X67606000Y-64283000D01*
X68411148Y-64283000D01*
X68362441Y-64420047D01*
X68352123Y-64570886D01*
X68382884Y-64718915D01*
X68416090Y-64783000D01*
X67606000Y-64783000D01*
X67606000Y-65377518D01*
X67606354Y-65384132D01*
X67612400Y-65440371D01*
X67662647Y-65575089D01*
X67748811Y-65690188D01*
X67863910Y-65776352D01*
X67998624Y-65826597D01*
X68034217Y-65830424D01*
X68098768Y-65857162D01*
X68138617Y-65914554D01*
X68141112Y-65984379D01*
X68105460Y-66044468D01*
X68092088Y-66055288D01*
X68066859Y-66072953D01*
X67905953Y-66233859D01*
X67775432Y-66420264D01*
X67679261Y-66626502D01*
X67620364Y-66846310D01*
X67600531Y-67072999D01*
X67620364Y-67299689D01*
X67679261Y-67519497D01*
X67775432Y-67725735D01*
X67905953Y-67912140D01*
X68066859Y-68073046D01*
X68253263Y-68203566D01*
X68253266Y-68203568D01*
X68311275Y-68230618D01*
X68363714Y-68276791D01*
X68382865Y-68343985D01*
X68362649Y-68410866D01*
X68311275Y-68455382D01*
X68253263Y-68482433D01*
X68066859Y-68612953D01*
X67905953Y-68773859D01*
X67775432Y-68960264D01*
X67679261Y-69166502D01*
X67620364Y-69386310D01*
X67600531Y-69612999D01*
X67620364Y-69839689D01*
X67679261Y-70059497D01*
X67775432Y-70265735D01*
X67905953Y-70452140D01*
X68066859Y-70613046D01*
X68253263Y-70743566D01*
X68253266Y-70743568D01*
X68311275Y-70770618D01*
X68363714Y-70816791D01*
X68382865Y-70883985D01*
X68362649Y-70950866D01*
X68311275Y-70995382D01*
X68253263Y-71022433D01*
X68066859Y-71152953D01*
X67905953Y-71313859D01*
X67775432Y-71500264D01*
X67679261Y-71706502D01*
X67620364Y-71926310D01*
X67600531Y-72153000D01*
X67620364Y-72379689D01*
X67679261Y-72599497D01*
X67775432Y-72805735D01*
X67905953Y-72992140D01*
X68066859Y-73153046D01*
X68253263Y-73283566D01*
X68253266Y-73283568D01*
X68311275Y-73310618D01*
X68363714Y-73356791D01*
X68382865Y-73423985D01*
X68362649Y-73490866D01*
X68311275Y-73535382D01*
X68253263Y-73562433D01*
X68066859Y-73692953D01*
X67905953Y-73853859D01*
X67775432Y-74040264D01*
X67679261Y-74246502D01*
X67620364Y-74466310D01*
X67600531Y-74693000D01*
X67620364Y-74919689D01*
X67679261Y-75139497D01*
X67775432Y-75345735D01*
X67905953Y-75532140D01*
X68066859Y-75693046D01*
X68153200Y-75753502D01*
X68253266Y-75823568D01*
X68311275Y-75850618D01*
X68363714Y-75896791D01*
X68382865Y-75963985D01*
X68362649Y-76030866D01*
X68311275Y-76075382D01*
X68253263Y-76102433D01*
X68066859Y-76232953D01*
X67905953Y-76393859D01*
X67775432Y-76580264D01*
X67679261Y-76786502D01*
X67620364Y-77006310D01*
X67600531Y-77233000D01*
X67620364Y-77459689D01*
X67679261Y-77679497D01*
X67775432Y-77885735D01*
X67905953Y-78072140D01*
X68066859Y-78233046D01*
X68153200Y-78293502D01*
X68253266Y-78363568D01*
X68311275Y-78390618D01*
X68363714Y-78436791D01*
X68382865Y-78503985D01*
X68362649Y-78570866D01*
X68311275Y-78615382D01*
X68253263Y-78642433D01*
X68066859Y-78772953D01*
X67905953Y-78933859D01*
X67775432Y-79120264D01*
X67679261Y-79326502D01*
X67620364Y-79546310D01*
X67600531Y-79772999D01*
X67620364Y-79999689D01*
X67679261Y-80219497D01*
X67775432Y-80425735D01*
X67905953Y-80612140D01*
X68066859Y-80773046D01*
X68153200Y-80833502D01*
X68253266Y-80903568D01*
X68311275Y-80930618D01*
X68363714Y-80976791D01*
X68382865Y-81043985D01*
X68362649Y-81110866D01*
X68311275Y-81155382D01*
X68253263Y-81182433D01*
X68066859Y-81312953D01*
X67905953Y-81473859D01*
X67775432Y-81660264D01*
X67679261Y-81866502D01*
X67620364Y-82086310D01*
X67600531Y-82313000D01*
X67620364Y-82539689D01*
X67679261Y-82759497D01*
X67775432Y-82965735D01*
X67905953Y-83152140D01*
X68066859Y-83313046D01*
X68253264Y-83443567D01*
X68253265Y-83443567D01*
X68253266Y-83443568D01*
X68311865Y-83470893D01*
X68364304Y-83517065D01*
X68383456Y-83584259D01*
X68363240Y-83651140D01*
X68311866Y-83695656D01*
X68253522Y-83722863D01*
X68067180Y-83853341D01*
X67906341Y-84014180D01*
X67775865Y-84200519D01*
X67679733Y-84406673D01*
X67627128Y-84602999D01*
X67627128Y-84603000D01*
X68411148Y-84603000D01*
X68362441Y-84740047D01*
X68352123Y-84890886D01*
X68382884Y-85038915D01*
X68416090Y-85103000D01*
X67627128Y-85103000D01*
X67679733Y-85299326D01*
X67775865Y-85505480D01*
X67906341Y-85691819D01*
X68067180Y-85852658D01*
X68253519Y-85983134D01*
X68311865Y-86010342D01*
X68364304Y-86056514D01*
X68383456Y-86123708D01*
X68363240Y-86190589D01*
X68311866Y-86235105D01*
X68253267Y-86262430D01*
X68066859Y-86392953D01*
X67905953Y-86553859D01*
X67775432Y-86740264D01*
X67679261Y-86946502D01*
X67620364Y-87166310D01*
X67600531Y-87393000D01*
X67620364Y-87619689D01*
X67679261Y-87839497D01*
X67775432Y-88045735D01*
X67905953Y-88232140D01*
X68066859Y-88393046D01*
X68192959Y-88481341D01*
X68253266Y-88523568D01*
X68311275Y-88550618D01*
X68363714Y-88596791D01*
X68382865Y-88663985D01*
X68362649Y-88730866D01*
X68311275Y-88775382D01*
X68253263Y-88802433D01*
X68066859Y-88932953D01*
X67905953Y-89093859D01*
X67775432Y-89280264D01*
X67679261Y-89486502D01*
X67620364Y-89706310D01*
X67600531Y-89932999D01*
X67620364Y-90159689D01*
X67679261Y-90379497D01*
X67775432Y-90585735D01*
X67905953Y-90772140D01*
X68066859Y-90933046D01*
X68253263Y-91063566D01*
X68253266Y-91063568D01*
X68311273Y-91090617D01*
X68363713Y-91136789D01*
X68382865Y-91203982D01*
X68362650Y-91270864D01*
X68311276Y-91315380D01*
X68253266Y-91342431D01*
X68066859Y-91472953D01*
X67905953Y-91633859D01*
X67775432Y-91820264D01*
X67679261Y-92026502D01*
X67620364Y-92246310D01*
X67600531Y-92472999D01*
X67620364Y-92699689D01*
X67679261Y-92919497D01*
X67775432Y-93125735D01*
X67905953Y-93312140D01*
X68066859Y-93473046D01*
X68253263Y-93603566D01*
X68253266Y-93603568D01*
X68311275Y-93630618D01*
X68363714Y-93676791D01*
X68382865Y-93743985D01*
X68362649Y-93810866D01*
X68311275Y-93855382D01*
X68253263Y-93882433D01*
X68066859Y-94012953D01*
X67905953Y-94173859D01*
X67775432Y-94360264D01*
X67679261Y-94566502D01*
X67620364Y-94786310D01*
X67600531Y-95013000D01*
X67620364Y-95239689D01*
X67679261Y-95459497D01*
X67775432Y-95665735D01*
X67905953Y-95852140D01*
X68066859Y-96013046D01*
X68175534Y-96089140D01*
X68253266Y-96143568D01*
X68311275Y-96170618D01*
X68363714Y-96216791D01*
X68382865Y-96283985D01*
X68362649Y-96350866D01*
X68311275Y-96395382D01*
X68253263Y-96422433D01*
X68066859Y-96552953D01*
X67905953Y-96713859D01*
X67775432Y-96900264D01*
X67679261Y-97106502D01*
X67620364Y-97326310D01*
X67600531Y-97553000D01*
X67620364Y-97779689D01*
X67679261Y-97999497D01*
X67775432Y-98205735D01*
X67905953Y-98392140D01*
X68066859Y-98553046D01*
X68175534Y-98629140D01*
X68253266Y-98683568D01*
X68311275Y-98710618D01*
X68363714Y-98756791D01*
X68382865Y-98823985D01*
X68362649Y-98890866D01*
X68311275Y-98935382D01*
X68253263Y-98962433D01*
X68066859Y-99092953D01*
X67905953Y-99253859D01*
X67775432Y-99440264D01*
X67679261Y-99646502D01*
X67620364Y-99866310D01*
X67600531Y-100093000D01*
X67620364Y-100319689D01*
X67679261Y-100539497D01*
X67775432Y-100745735D01*
X67905953Y-100932140D01*
X68066859Y-101093046D01*
X68175534Y-101169140D01*
X68253266Y-101223568D01*
X68311275Y-101250618D01*
X68363714Y-101296791D01*
X68382865Y-101363985D01*
X68362649Y-101430866D01*
X68311275Y-101475382D01*
X68253263Y-101502433D01*
X68066859Y-101632953D01*
X67905953Y-101793859D01*
X67775432Y-101980264D01*
X67679261Y-102186502D01*
X67620364Y-102406310D01*
X67600531Y-102633000D01*
X67620364Y-102859689D01*
X67679261Y-103079497D01*
X67775432Y-103285735D01*
X67905953Y-103472140D01*
X68066859Y-103633046D01*
X68253263Y-103763566D01*
X68253266Y-103763568D01*
X68311275Y-103790618D01*
X68363714Y-103836791D01*
X68382865Y-103903985D01*
X68362649Y-103970866D01*
X68311275Y-104015382D01*
X68253263Y-104042433D01*
X68066859Y-104172953D01*
X67905953Y-104333859D01*
X67775432Y-104520264D01*
X67679261Y-104726502D01*
X67620364Y-104946310D01*
X67600531Y-105172999D01*
X67620364Y-105399689D01*
X67679261Y-105619497D01*
X67775432Y-105825735D01*
X67905953Y-106012140D01*
X68066859Y-106173046D01*
X68175534Y-106249140D01*
X68253266Y-106303568D01*
X68311275Y-106330618D01*
X68363714Y-106376791D01*
X68382865Y-106443985D01*
X68362649Y-106510866D01*
X68311275Y-106555382D01*
X68253263Y-106582433D01*
X68066859Y-106712953D01*
X67905953Y-106873859D01*
X67775432Y-107060264D01*
X67679261Y-107266502D01*
X67620364Y-107486310D01*
X67600531Y-107713000D01*
X67620364Y-107939689D01*
X67679261Y-108159497D01*
X67775432Y-108365735D01*
X67905953Y-108552140D01*
X68066859Y-108713046D01*
X68184751Y-108795594D01*
X68253266Y-108843568D01*
X68311273Y-108870617D01*
X68363713Y-108916789D01*
X68382865Y-108983982D01*
X68362650Y-109050864D01*
X68311276Y-109095380D01*
X68253266Y-109122431D01*
X68066859Y-109252953D01*
X67905953Y-109413859D01*
X67775432Y-109600264D01*
X67679261Y-109806502D01*
X67620364Y-110026310D01*
X67600531Y-110252999D01*
X67620364Y-110479689D01*
X67679261Y-110699497D01*
X67775432Y-110905735D01*
X67905953Y-111092140D01*
X68066859Y-111253046D01*
X68253263Y-111383566D01*
X68253266Y-111383568D01*
X68311273Y-111410617D01*
X68363713Y-111456789D01*
X68382865Y-111523982D01*
X68362650Y-111590864D01*
X68311276Y-111635380D01*
X68253266Y-111662431D01*
X68066859Y-111792953D01*
X67905953Y-111953859D01*
X67775432Y-112140264D01*
X67679261Y-112346502D01*
X67620364Y-112566310D01*
X67600531Y-112792999D01*
X65024500Y-112792999D01*
X65024500Y-61849000D01*
X104631540Y-61849000D01*
X104651326Y-62037257D01*
X104709820Y-62217284D01*
X104804466Y-62381216D01*
X104931129Y-62521889D01*
X105084269Y-62633151D01*
X105257197Y-62710144D01*
X105442352Y-62749500D01*
X105442354Y-62749500D01*
X105631648Y-62749500D01*
X105755083Y-62723262D01*
X105816803Y-62710144D01*
X105989730Y-62633151D01*
X106142871Y-62521888D01*
X106269533Y-62381216D01*
X106364179Y-62217284D01*
X106422674Y-62037256D01*
X106442460Y-61849000D01*
X106422674Y-61660744D01*
X106380960Y-61532361D01*
X106364179Y-61480715D01*
X106269533Y-61316783D01*
X106142870Y-61176110D01*
X105989730Y-61064848D01*
X105816802Y-60987855D01*
X105631648Y-60948500D01*
X105631646Y-60948500D01*
X105442354Y-60948500D01*
X105442352Y-60948500D01*
X105257197Y-60987855D01*
X105084269Y-61064848D01*
X104931129Y-61176110D01*
X104804466Y-61316783D01*
X104709820Y-61480715D01*
X104651326Y-61660742D01*
X104631540Y-61849000D01*
X65024500Y-61849000D01*
X65024500Y-59663000D01*
X68070592Y-59663000D01*
X68070881Y-59667225D01*
X68089731Y-59942809D01*
X68090202Y-59949686D01*
X68091061Y-59953824D01*
X68091063Y-59953832D01*
X68126742Y-60125528D01*
X68148666Y-60231032D01*
X68150084Y-60235023D01*
X68150085Y-60235025D01*
X68189279Y-60345308D01*
X68244896Y-60501797D01*
X68246843Y-60505555D01*
X68246845Y-60505559D01*
X68345980Y-60696879D01*
X68377099Y-60756936D01*
X68379545Y-60760401D01*
X68540366Y-60988235D01*
X68540370Y-60988240D01*
X68542811Y-60991698D01*
X68738947Y-61201708D01*
X68742228Y-61204377D01*
X68742231Y-61204380D01*
X68880395Y-61316784D01*
X68961853Y-61383055D01*
X69207375Y-61532361D01*
X69470942Y-61646844D01*
X69691384Y-61708608D01*
X69743562Y-61723228D01*
X69743564Y-61723228D01*
X69747642Y-61724371D01*
X70032322Y-61763500D01*
X70036559Y-61763500D01*
X70315441Y-61763500D01*
X70319678Y-61763500D01*
X70604358Y-61724371D01*
X70881058Y-61646844D01*
X71144625Y-61532361D01*
X71390147Y-61383055D01*
X71613053Y-61201708D01*
X71809189Y-60991698D01*
X71974901Y-60756936D01*
X72107104Y-60501797D01*
X72203334Y-60231032D01*
X72261798Y-59949686D01*
X72281408Y-59663000D01*
X116070592Y-59663000D01*
X116070881Y-59667225D01*
X116089731Y-59942809D01*
X116090202Y-59949686D01*
X116091061Y-59953824D01*
X116091063Y-59953832D01*
X116126742Y-60125528D01*
X116148666Y-60231032D01*
X116150084Y-60235023D01*
X116150085Y-60235025D01*
X116189279Y-60345308D01*
X116244896Y-60501797D01*
X116246843Y-60505555D01*
X116246845Y-60505559D01*
X116345980Y-60696879D01*
X116377099Y-60756936D01*
X116379545Y-60760401D01*
X116540366Y-60988235D01*
X116540370Y-60988240D01*
X116542811Y-60991698D01*
X116738947Y-61201708D01*
X116742228Y-61204377D01*
X116742231Y-61204380D01*
X116880395Y-61316784D01*
X116961853Y-61383055D01*
X117207375Y-61532361D01*
X117470942Y-61646844D01*
X117691384Y-61708608D01*
X117743562Y-61723228D01*
X117743564Y-61723228D01*
X117747642Y-61724371D01*
X118032322Y-61763500D01*
X118036559Y-61763500D01*
X118315441Y-61763500D01*
X118319678Y-61763500D01*
X118604358Y-61724371D01*
X118881058Y-61646844D01*
X119144625Y-61532361D01*
X119390147Y-61383055D01*
X119613053Y-61201708D01*
X119809189Y-60991698D01*
X119974901Y-60756936D01*
X120107104Y-60501797D01*
X120203334Y-60231032D01*
X120261798Y-59949686D01*
X120279561Y-59690000D01*
X141542859Y-59690000D01*
X141563378Y-59911445D01*
X141624238Y-60125347D01*
X141723367Y-60324425D01*
X141739137Y-60345308D01*
X141739138Y-60345308D01*
X142350046Y-59734400D01*
X142362835Y-59815148D01*
X142420359Y-59928045D01*
X142509955Y-60017641D01*
X142622852Y-60075165D01*
X142703599Y-60087953D01*
X142094672Y-60696879D01*
X142094672Y-60696881D01*
X142210816Y-60768795D01*
X142418198Y-60849135D01*
X142636806Y-60890000D01*
X142859194Y-60890000D01*
X143077801Y-60849135D01*
X143285180Y-60768797D01*
X143401326Y-60696880D01*
X143401326Y-60696879D01*
X142792401Y-60087953D01*
X142873148Y-60075165D01*
X142986045Y-60017641D01*
X143075641Y-59928045D01*
X143133165Y-59815148D01*
X143145953Y-59734400D01*
X143756861Y-60345308D01*
X143772632Y-60324424D01*
X143871759Y-60125351D01*
X143898473Y-60031461D01*
X143935752Y-59972367D01*
X143999062Y-59942809D01*
X144068301Y-59952171D01*
X144121488Y-59997480D01*
X144137006Y-60031460D01*
X144163769Y-60125526D01*
X144262941Y-60324688D01*
X144397019Y-60502237D01*
X144561437Y-60652124D01*
X144750595Y-60769245D01*
X144750597Y-60769245D01*
X144750599Y-60769247D01*
X144958060Y-60849618D01*
X145176757Y-60890500D01*
X145176759Y-60890500D01*
X145399241Y-60890500D01*
X145399243Y-60890500D01*
X145617940Y-60849618D01*
X145825401Y-60769247D01*
X146014562Y-60652124D01*
X146178981Y-60502236D01*
X146313058Y-60324689D01*
X146412229Y-60125528D01*
X146412280Y-60125351D01*
X146438994Y-60031460D01*
X146473115Y-59911536D01*
X146493643Y-59690000D01*
X146473115Y-59468464D01*
X146442926Y-59362359D01*
X146412230Y-59254473D01*
X146313058Y-59055311D01*
X146178980Y-58877762D01*
X146014562Y-58727875D01*
X145825404Y-58610754D01*
X145727500Y-58572826D01*
X145617940Y-58530382D01*
X145399243Y-58489500D01*
X145176757Y-58489500D01*
X144958059Y-58530382D01*
X144958060Y-58530382D01*
X144750595Y-58610754D01*
X144561437Y-58727875D01*
X144397019Y-58877762D01*
X144262941Y-59055311D01*
X144163769Y-59254473D01*
X144137006Y-59348539D01*
X144099727Y-59407633D01*
X144036417Y-59437190D01*
X143967178Y-59427828D01*
X143913991Y-59382518D01*
X143898473Y-59348539D01*
X143871759Y-59254650D01*
X143772630Y-59055572D01*
X143756860Y-59034690D01*
X143145953Y-59645598D01*
X143133165Y-59564852D01*
X143075641Y-59451955D01*
X142986045Y-59362359D01*
X142873148Y-59304835D01*
X142792401Y-59292046D01*
X143401327Y-58683119D01*
X143285179Y-58611202D01*
X143077801Y-58530864D01*
X142859194Y-58490000D01*
X142636806Y-58490000D01*
X142418198Y-58530864D01*
X142210821Y-58611202D01*
X142094671Y-58683119D01*
X142703599Y-59292046D01*
X142622852Y-59304835D01*
X142509955Y-59362359D01*
X142420359Y-59451955D01*
X142362835Y-59564852D01*
X142350046Y-59645599D01*
X141739138Y-59034691D01*
X141739137Y-59034691D01*
X141723368Y-59055574D01*
X141624237Y-59254654D01*
X141563378Y-59468554D01*
X141542859Y-59690000D01*
X120279561Y-59690000D01*
X120281408Y-59663000D01*
X120261798Y-59376314D01*
X120203334Y-59094968D01*
X120107104Y-58824203D01*
X119974901Y-58569064D01*
X119809189Y-58334302D01*
X119613053Y-58124292D01*
X119609771Y-58121622D01*
X119609768Y-58121619D01*
X119393429Y-57945615D01*
X119393428Y-57945614D01*
X119390147Y-57942945D01*
X119144625Y-57793639D01*
X119140745Y-57791953D01*
X119140738Y-57791950D01*
X118884939Y-57680841D01*
X118884929Y-57680837D01*
X118881058Y-57679156D01*
X118876986Y-57678015D01*
X118608437Y-57602771D01*
X118608424Y-57602768D01*
X118604358Y-57601629D01*
X118600168Y-57601053D01*
X118600158Y-57601051D01*
X118323875Y-57563076D01*
X118323862Y-57563075D01*
X118319678Y-57562500D01*
X118032322Y-57562500D01*
X118028138Y-57563075D01*
X118028124Y-57563076D01*
X117751841Y-57601051D01*
X117751828Y-57601053D01*
X117747642Y-57601629D01*
X117743577Y-57602767D01*
X117743562Y-57602771D01*
X117475013Y-57678015D01*
X117475008Y-57678016D01*
X117470942Y-57679156D01*
X117467075Y-57680835D01*
X117467060Y-57680841D01*
X117211261Y-57791950D01*
X117211248Y-57791956D01*
X117207375Y-57793639D01*
X117203764Y-57795834D01*
X117203756Y-57795839D01*
X116965465Y-57940748D01*
X116965460Y-57940751D01*
X116961853Y-57942945D01*
X116958578Y-57945609D01*
X116958570Y-57945615D01*
X116742231Y-58121619D01*
X116742220Y-58121628D01*
X116738947Y-58124292D01*
X116736068Y-58127374D01*
X116736059Y-58127383D01*
X116545699Y-58331209D01*
X116545694Y-58331214D01*
X116542811Y-58334302D01*
X116540375Y-58337752D01*
X116540366Y-58337764D01*
X116379545Y-58565598D01*
X116379541Y-58565603D01*
X116377099Y-58569064D01*
X116375153Y-58572818D01*
X116375149Y-58572826D01*
X116246845Y-58820440D01*
X116246840Y-58820450D01*
X116244896Y-58824203D01*
X116243479Y-58828188D01*
X116243475Y-58828199D01*
X116150085Y-59090974D01*
X116148666Y-59094968D01*
X116147804Y-59099113D01*
X116147803Y-59099119D01*
X116091063Y-59372167D01*
X116091061Y-59372177D01*
X116090202Y-59376314D01*
X116089913Y-59380529D01*
X116089913Y-59380534D01*
X116070881Y-59658774D01*
X116070592Y-59663000D01*
X72281408Y-59663000D01*
X72261798Y-59376314D01*
X72203334Y-59094968D01*
X72107104Y-58824203D01*
X71974901Y-58569064D01*
X71809189Y-58334302D01*
X71613053Y-58124292D01*
X71609771Y-58121622D01*
X71609768Y-58121619D01*
X71393429Y-57945615D01*
X71393428Y-57945614D01*
X71390147Y-57942945D01*
X71144625Y-57793639D01*
X71140745Y-57791953D01*
X71140738Y-57791950D01*
X70884939Y-57680841D01*
X70884929Y-57680837D01*
X70881058Y-57679156D01*
X70876986Y-57678015D01*
X70608437Y-57602771D01*
X70608424Y-57602768D01*
X70604358Y-57601629D01*
X70600168Y-57601053D01*
X70600158Y-57601051D01*
X70323875Y-57563076D01*
X70323862Y-57563075D01*
X70319678Y-57562500D01*
X70032322Y-57562500D01*
X70028138Y-57563075D01*
X70028124Y-57563076D01*
X69751841Y-57601051D01*
X69751828Y-57601053D01*
X69747642Y-57601629D01*
X69743577Y-57602767D01*
X69743562Y-57602771D01*
X69475013Y-57678015D01*
X69475008Y-57678016D01*
X69470942Y-57679156D01*
X69467075Y-57680835D01*
X69467060Y-57680841D01*
X69211261Y-57791950D01*
X69211248Y-57791956D01*
X69207375Y-57793639D01*
X69203764Y-57795834D01*
X69203756Y-57795839D01*
X68965465Y-57940748D01*
X68965460Y-57940751D01*
X68961853Y-57942945D01*
X68958578Y-57945609D01*
X68958570Y-57945615D01*
X68742231Y-58121619D01*
X68742220Y-58121628D01*
X68738947Y-58124292D01*
X68736068Y-58127374D01*
X68736059Y-58127383D01*
X68545699Y-58331209D01*
X68545694Y-58331214D01*
X68542811Y-58334302D01*
X68540375Y-58337752D01*
X68540366Y-58337764D01*
X68379545Y-58565598D01*
X68379541Y-58565603D01*
X68377099Y-58569064D01*
X68375153Y-58572818D01*
X68375149Y-58572826D01*
X68246845Y-58820440D01*
X68246840Y-58820450D01*
X68244896Y-58824203D01*
X68243479Y-58828188D01*
X68243475Y-58828199D01*
X68150085Y-59090974D01*
X68148666Y-59094968D01*
X68147804Y-59099113D01*
X68147803Y-59099119D01*
X68091063Y-59372167D01*
X68091061Y-59372177D01*
X68090202Y-59376314D01*
X68089913Y-59380529D01*
X68089913Y-59380534D01*
X68070881Y-59658774D01*
X68070592Y-59663000D01*
X65024500Y-59663000D01*
X65024500Y-45465999D01*
X68170450Y-45465999D01*
X68190616Y-45735100D01*
X68236312Y-45935305D01*
X68250666Y-45998195D01*
X68349257Y-46249398D01*
X68484185Y-46483102D01*
X68652439Y-46694085D01*
X68850259Y-46877635D01*
X69073226Y-47029651D01*
X69316359Y-47146738D01*
X69574228Y-47226280D01*
X69841071Y-47266500D01*
X70110929Y-47266500D01*
X70377772Y-47226280D01*
X70635641Y-47146738D01*
X70878775Y-47029651D01*
X71101741Y-46877635D01*
X71299561Y-46694085D01*
X71467815Y-46483102D01*
X71602743Y-46249398D01*
X71701334Y-45998195D01*
X71761383Y-45735103D01*
X71776471Y-45533764D01*
X76766787Y-45533764D01*
X76796413Y-45803016D01*
X76796414Y-45803018D01*
X76864928Y-46065088D01*
X76970870Y-46314390D01*
X76970871Y-46314392D01*
X77111982Y-46545611D01*
X77235543Y-46694085D01*
X77285255Y-46753820D01*
X77486998Y-46934582D01*
X77712910Y-47084044D01*
X77819211Y-47133876D01*
X77958177Y-47199021D01*
X78182469Y-47266500D01*
X78217569Y-47277060D01*
X78485561Y-47316500D01*
X78485564Y-47316500D01*
X78686369Y-47316500D01*
X78688631Y-47316500D01*
X78891156Y-47301677D01*
X79155553Y-47242780D01*
X79408558Y-47146014D01*
X79644777Y-47013441D01*
X79859177Y-46847888D01*
X80047186Y-46652881D01*
X80204799Y-46432579D01*
X80328656Y-46191675D01*
X80416118Y-45935305D01*
X80465319Y-45668933D01*
X80470259Y-45533764D01*
X132376787Y-45533764D01*
X132406413Y-45803016D01*
X132406414Y-45803018D01*
X132474928Y-46065088D01*
X132580870Y-46314390D01*
X132580871Y-46314392D01*
X132721982Y-46545611D01*
X132845543Y-46694085D01*
X132895255Y-46753820D01*
X133096998Y-46934582D01*
X133322910Y-47084044D01*
X133429211Y-47133876D01*
X133568177Y-47199021D01*
X133792469Y-47266500D01*
X133827569Y-47277060D01*
X134095561Y-47316500D01*
X134095564Y-47316500D01*
X134296369Y-47316500D01*
X134298631Y-47316500D01*
X134501156Y-47301677D01*
X134765553Y-47242780D01*
X135018558Y-47146014D01*
X135254777Y-47013441D01*
X135469177Y-46847888D01*
X135657186Y-46652881D01*
X135814799Y-46432579D01*
X135938656Y-46191675D01*
X136026118Y-45935305D01*
X136075319Y-45668933D01*
X136082735Y-45465999D01*
X141070450Y-45465999D01*
X141090616Y-45735100D01*
X141136312Y-45935305D01*
X141150666Y-45998195D01*
X141249257Y-46249398D01*
X141384185Y-46483102D01*
X141552439Y-46694085D01*
X141750259Y-46877635D01*
X141973226Y-47029651D01*
X142216359Y-47146738D01*
X142474228Y-47226280D01*
X142741071Y-47266500D01*
X143010929Y-47266500D01*
X143277772Y-47226280D01*
X143535641Y-47146738D01*
X143778775Y-47029651D01*
X144001741Y-46877635D01*
X144199561Y-46694085D01*
X144367815Y-46483102D01*
X144502743Y-46249398D01*
X144601334Y-45998195D01*
X144661383Y-45735103D01*
X144681549Y-45466000D01*
X144661383Y-45196897D01*
X144601334Y-44933805D01*
X144502743Y-44682602D01*
X144367815Y-44448898D01*
X144199561Y-44237915D01*
X144033801Y-44084112D01*
X144001743Y-44054366D01*
X143918215Y-43997418D01*
X143778775Y-43902349D01*
X143535641Y-43785262D01*
X143456097Y-43760726D01*
X143277771Y-43705719D01*
X143010929Y-43665500D01*
X142741071Y-43665500D01*
X142474228Y-43705719D01*
X142216359Y-43785262D01*
X141973228Y-43902347D01*
X141750257Y-44054366D01*
X141552439Y-44237915D01*
X141384184Y-44448899D01*
X141249257Y-44682601D01*
X141150666Y-44933804D01*
X141090616Y-45196899D01*
X141070450Y-45465999D01*
X136082735Y-45465999D01*
X136085212Y-45398235D01*
X136055586Y-45128982D01*
X135987072Y-44866912D01*
X135881130Y-44617610D01*
X135740018Y-44386390D01*
X135740017Y-44386388D01*
X135566746Y-44178181D01*
X135461759Y-44084112D01*
X135365002Y-43997418D01*
X135139090Y-43847956D01*
X135139086Y-43847954D01*
X134893822Y-43732978D01*
X134634437Y-43654941D01*
X134634431Y-43654940D01*
X134366439Y-43615500D01*
X134163369Y-43615500D01*
X134161120Y-43615664D01*
X134161109Y-43615665D01*
X133960843Y-43630322D01*
X133696449Y-43689219D01*
X133443441Y-43785986D01*
X133207223Y-43918559D01*
X132992825Y-44084109D01*
X132804813Y-44279120D01*
X132647201Y-44499420D01*
X132523342Y-44740329D01*
X132435881Y-44996695D01*
X132386680Y-45263066D01*
X132376787Y-45533764D01*
X80470259Y-45533764D01*
X80475212Y-45398235D01*
X80445586Y-45128982D01*
X80377072Y-44866912D01*
X80271130Y-44617610D01*
X80130018Y-44386390D01*
X80130017Y-44386388D01*
X79956746Y-44178181D01*
X79851759Y-44084112D01*
X79755002Y-43997418D01*
X79529090Y-43847956D01*
X79529086Y-43847954D01*
X79283822Y-43732978D01*
X79024437Y-43654941D01*
X79024431Y-43654940D01*
X78756439Y-43615500D01*
X78553369Y-43615500D01*
X78551120Y-43615664D01*
X78551109Y-43615665D01*
X78350843Y-43630322D01*
X78086449Y-43689219D01*
X77833441Y-43785986D01*
X77597223Y-43918559D01*
X77382825Y-44084109D01*
X77194813Y-44279120D01*
X77037201Y-44499420D01*
X76913342Y-44740329D01*
X76825881Y-44996695D01*
X76776680Y-45263066D01*
X76766787Y-45533764D01*
X71776471Y-45533764D01*
X71781549Y-45466000D01*
X71761383Y-45196897D01*
X71701334Y-44933805D01*
X71602743Y-44682602D01*
X71467815Y-44448898D01*
X71299561Y-44237915D01*
X71133801Y-44084112D01*
X71101743Y-44054366D01*
X71018215Y-43997418D01*
X70878775Y-43902349D01*
X70635641Y-43785262D01*
X70556098Y-43760726D01*
X70377771Y-43705719D01*
X70110929Y-43665500D01*
X69841071Y-43665500D01*
X69574228Y-43705719D01*
X69316359Y-43785262D01*
X69073228Y-43902347D01*
X68850257Y-44054366D01*
X68652439Y-44237915D01*
X68484184Y-44448899D01*
X68349257Y-44682601D01*
X68250666Y-44933804D01*
X68190616Y-45196899D01*
X68170450Y-45465999D01*
X65024500Y-45465999D01*
X65024500Y-31750000D01*
X91042540Y-31750000D01*
X91062326Y-31938257D01*
X91120820Y-32118284D01*
X91215466Y-32282216D01*
X91342129Y-32422889D01*
X91495269Y-32534151D01*
X91668197Y-32611144D01*
X91853352Y-32650500D01*
X91853354Y-32650500D01*
X92042648Y-32650500D01*
X92166084Y-32624262D01*
X92227803Y-32611144D01*
X92400730Y-32534151D01*
X92553871Y-32422888D01*
X92680533Y-32282216D01*
X92775179Y-32118284D01*
X92833674Y-31938256D01*
X92853460Y-31750000D01*
X92833674Y-31561744D01*
X92775179Y-31381716D01*
X92775179Y-31381715D01*
X92680533Y-31217783D01*
X92553870Y-31077110D01*
X92431220Y-30988000D01*
X117458540Y-30988000D01*
X117478326Y-31176257D01*
X117536820Y-31356284D01*
X117631466Y-31520216D01*
X117758129Y-31660889D01*
X117911269Y-31772151D01*
X118084197Y-31849144D01*
X118269352Y-31888500D01*
X118269354Y-31888500D01*
X118458648Y-31888500D01*
X118582084Y-31862262D01*
X118643803Y-31849144D01*
X118816730Y-31772151D01*
X118847218Y-31750000D01*
X118969870Y-31660889D01*
X119096533Y-31520216D01*
X119191179Y-31356284D01*
X119198505Y-31333738D01*
X119249674Y-31176256D01*
X119269460Y-30988000D01*
X119249674Y-30799744D01*
X119191179Y-30619716D01*
X119191179Y-30619715D01*
X119096533Y-30455783D01*
X118969870Y-30315110D01*
X118847220Y-30226000D01*
X120288356Y-30226000D01*
X120308891Y-30473816D01*
X120308891Y-30473819D01*
X120308892Y-30473821D01*
X120369937Y-30714881D01*
X120414960Y-30817523D01*
X120469825Y-30942604D01*
X120469827Y-30942607D01*
X120605836Y-31150785D01*
X120774256Y-31333738D01*
X120774259Y-31333740D01*
X120970485Y-31486470D01*
X120970487Y-31486471D01*
X120970491Y-31486474D01*
X121189190Y-31604828D01*
X121424386Y-31685571D01*
X121669665Y-31726500D01*
X121918335Y-31726500D01*
X122163614Y-31685571D01*
X122398810Y-31604828D01*
X122617509Y-31486474D01*
X122813744Y-31333738D01*
X122972772Y-31160986D01*
X123032656Y-31124999D01*
X123102494Y-31127099D01*
X123155229Y-31160989D01*
X123198855Y-31208379D01*
X123314256Y-31333738D01*
X123314259Y-31333740D01*
X123510485Y-31486470D01*
X123510487Y-31486471D01*
X123510491Y-31486474D01*
X123729190Y-31604828D01*
X123964386Y-31685571D01*
X124209665Y-31726500D01*
X124458335Y-31726500D01*
X124703614Y-31685571D01*
X124938810Y-31604828D01*
X125157509Y-31486474D01*
X125353744Y-31333738D01*
X125522164Y-31150785D01*
X125658173Y-30942607D01*
X125758063Y-30714881D01*
X125819108Y-30473821D01*
X125839643Y-30226000D01*
X130448356Y-30226000D01*
X130468891Y-30473816D01*
X130468891Y-30473819D01*
X130468892Y-30473821D01*
X130529937Y-30714881D01*
X130574960Y-30817523D01*
X130629825Y-30942604D01*
X130629827Y-30942607D01*
X130765836Y-31150785D01*
X130934256Y-31333738D01*
X130934259Y-31333740D01*
X131130485Y-31486470D01*
X131130487Y-31486471D01*
X131130491Y-31486474D01*
X131349190Y-31604828D01*
X131584386Y-31685571D01*
X131829665Y-31726500D01*
X132078335Y-31726500D01*
X132323614Y-31685571D01*
X132558810Y-31604828D01*
X132777509Y-31486474D01*
X132973744Y-31333738D01*
X133142164Y-31150785D01*
X133278173Y-30942607D01*
X133378063Y-30714881D01*
X133439108Y-30473821D01*
X133459643Y-30226000D01*
X133439108Y-29978179D01*
X133378063Y-29737119D01*
X133278173Y-29509393D01*
X133142164Y-29301215D01*
X132973744Y-29118262D01*
X132951612Y-29101036D01*
X132777514Y-28965529D01*
X132777510Y-28965526D01*
X132777509Y-28965526D01*
X132558810Y-28847172D01*
X132558806Y-28847170D01*
X132558805Y-28847170D01*
X132430140Y-28802999D01*
X136938699Y-28802999D01*
X136957865Y-29034299D01*
X136957865Y-29034301D01*
X136957866Y-29034305D01*
X136979127Y-29118261D01*
X137014844Y-29259303D01*
X137088173Y-29426474D01*
X137108076Y-29471849D01*
X137235021Y-29666153D01*
X137392216Y-29836913D01*
X137575374Y-29979470D01*
X137779497Y-30089936D01*
X137887038Y-30126855D01*
X137999015Y-30165297D01*
X137999017Y-30165297D01*
X137999019Y-30165298D01*
X138227951Y-30203500D01*
X138227952Y-30203500D01*
X138460048Y-30203500D01*
X138460049Y-30203500D01*
X138688981Y-30165298D01*
X138908503Y-30089936D01*
X139112626Y-29979470D01*
X139295784Y-29836913D01*
X139452979Y-29666153D01*
X139490192Y-29609194D01*
X139543337Y-29563838D01*
X139612568Y-29554414D01*
X139675904Y-29583916D01*
X139697807Y-29609192D01*
X139735021Y-29666153D01*
X139892216Y-29836913D01*
X140075374Y-29979470D01*
X140279497Y-30089936D01*
X140387038Y-30126855D01*
X140499015Y-30165297D01*
X140499017Y-30165297D01*
X140499019Y-30165298D01*
X140727951Y-30203500D01*
X140727952Y-30203500D01*
X140960048Y-30203500D01*
X140960049Y-30203500D01*
X141188981Y-30165298D01*
X141408503Y-30089936D01*
X141612626Y-29979470D01*
X141795784Y-29836913D01*
X141952979Y-29666153D01*
X141990192Y-29609194D01*
X142043337Y-29563838D01*
X142112568Y-29554414D01*
X142175904Y-29583916D01*
X142197807Y-29609192D01*
X142235021Y-29666153D01*
X142392216Y-29836913D01*
X142575374Y-29979470D01*
X142779497Y-30089936D01*
X142887038Y-30126855D01*
X142999015Y-30165297D01*
X142999017Y-30165297D01*
X142999019Y-30165298D01*
X143227951Y-30203500D01*
X143227952Y-30203500D01*
X143460048Y-30203500D01*
X143460049Y-30203500D01*
X143688981Y-30165298D01*
X143908503Y-30089936D01*
X144112626Y-29979470D01*
X144295784Y-29836913D01*
X144452979Y-29666153D01*
X144579924Y-29471849D01*
X144673157Y-29259300D01*
X144730134Y-29034305D01*
X144749300Y-28803000D01*
X144730134Y-28571695D01*
X144673157Y-28346700D01*
X144579924Y-28134151D01*
X144452979Y-27939847D01*
X144295784Y-27769087D01*
X144112626Y-27626530D01*
X143908503Y-27516064D01*
X143908499Y-27516062D01*
X143908498Y-27516062D01*
X143688984Y-27440702D01*
X143517281Y-27412050D01*
X143460049Y-27402500D01*
X143227951Y-27402500D01*
X143182164Y-27410140D01*
X142999015Y-27440702D01*
X142779501Y-27516062D01*
X142575372Y-27626531D01*
X142392215Y-27769087D01*
X142246590Y-27927279D01*
X142235021Y-27939847D01*
X142235021Y-27939848D01*
X142197809Y-27996805D01*
X142144662Y-28042161D01*
X142075431Y-28051585D01*
X142012095Y-28022083D01*
X141990191Y-27996805D01*
X141952979Y-27939847D01*
X141795784Y-27769087D01*
X141612626Y-27626530D01*
X141408503Y-27516064D01*
X141408499Y-27516062D01*
X141408498Y-27516062D01*
X141188984Y-27440702D01*
X141017281Y-27412050D01*
X140960049Y-27402500D01*
X140727951Y-27402500D01*
X140682164Y-27410140D01*
X140499015Y-27440702D01*
X140279501Y-27516062D01*
X140075372Y-27626531D01*
X139892215Y-27769087D01*
X139746590Y-27927279D01*
X139735021Y-27939847D01*
X139735021Y-27939848D01*
X139697809Y-27996805D01*
X139644662Y-28042161D01*
X139575431Y-28051585D01*
X139512095Y-28022083D01*
X139490191Y-27996805D01*
X139452979Y-27939847D01*
X139295784Y-27769087D01*
X139112626Y-27626530D01*
X138908503Y-27516064D01*
X138908499Y-27516062D01*
X138908498Y-27516062D01*
X138688984Y-27440702D01*
X138517281Y-27412050D01*
X138460049Y-27402500D01*
X138227951Y-27402500D01*
X138182164Y-27410140D01*
X137999015Y-27440702D01*
X137779501Y-27516062D01*
X137575372Y-27626531D01*
X137392215Y-27769087D01*
X137235020Y-27939848D01*
X137108076Y-28134150D01*
X137014844Y-28346696D01*
X137014842Y-28346700D01*
X137014843Y-28346700D01*
X136976074Y-28499796D01*
X136957865Y-28571700D01*
X136938699Y-28802999D01*
X132430140Y-28802999D01*
X132323615Y-28766429D01*
X132078335Y-28725500D01*
X131829665Y-28725500D01*
X131584384Y-28766429D01*
X131349194Y-28847170D01*
X131130485Y-28965529D01*
X130934259Y-29118259D01*
X130934256Y-29118261D01*
X130934256Y-29118262D01*
X130804419Y-29259303D01*
X130765837Y-29301214D01*
X130629825Y-29509395D01*
X130529938Y-29737117D01*
X130468891Y-29978183D01*
X130448356Y-30226000D01*
X125839643Y-30226000D01*
X125819108Y-29978179D01*
X125758063Y-29737119D01*
X125658173Y-29509393D01*
X125522164Y-29301215D01*
X125353744Y-29118262D01*
X125331612Y-29101036D01*
X125157514Y-28965529D01*
X125157510Y-28965526D01*
X125157509Y-28965526D01*
X124938810Y-28847172D01*
X124938806Y-28847170D01*
X124938805Y-28847170D01*
X124703615Y-28766429D01*
X124458335Y-28725500D01*
X124209665Y-28725500D01*
X123964384Y-28766429D01*
X123729194Y-28847170D01*
X123510485Y-28965529D01*
X123314255Y-29118261D01*
X123155228Y-29291010D01*
X123095341Y-29327001D01*
X123025503Y-29324900D01*
X122972770Y-29291011D01*
X122813744Y-29118262D01*
X122791612Y-29101036D01*
X122617514Y-28965529D01*
X122617510Y-28965526D01*
X122617509Y-28965526D01*
X122398810Y-28847172D01*
X122398806Y-28847170D01*
X122398805Y-28847170D01*
X122163615Y-28766429D01*
X121918335Y-28725500D01*
X121669665Y-28725500D01*
X121424384Y-28766429D01*
X121189194Y-28847170D01*
X120970485Y-28965529D01*
X120774259Y-29118259D01*
X120774256Y-29118261D01*
X120774256Y-29118262D01*
X120644419Y-29259303D01*
X120605837Y-29301214D01*
X120469825Y-29509395D01*
X120369938Y-29737117D01*
X120308891Y-29978183D01*
X120288356Y-30226000D01*
X118847220Y-30226000D01*
X118816730Y-30203848D01*
X118643802Y-30126855D01*
X118458648Y-30087500D01*
X118458646Y-30087500D01*
X118269354Y-30087500D01*
X118269352Y-30087500D01*
X118084197Y-30126855D01*
X117911269Y-30203848D01*
X117758129Y-30315110D01*
X117631466Y-30455783D01*
X117536820Y-30619715D01*
X117478326Y-30799742D01*
X117458540Y-30988000D01*
X92431220Y-30988000D01*
X92400730Y-30965848D01*
X92227802Y-30888855D01*
X92042648Y-30849500D01*
X92042646Y-30849500D01*
X91853354Y-30849500D01*
X91853352Y-30849500D01*
X91668197Y-30888855D01*
X91495269Y-30965848D01*
X91342129Y-31077110D01*
X91215466Y-31217783D01*
X91120820Y-31381715D01*
X91062326Y-31561742D01*
X91042540Y-31750000D01*
X65024500Y-31750000D01*
X65024500Y-28100578D01*
X73397500Y-28100578D01*
X73397501Y-28103872D01*
X73403909Y-28163483D01*
X73454204Y-28298331D01*
X73540454Y-28413546D01*
X73655669Y-28499796D01*
X73790517Y-28550091D01*
X73850127Y-28556500D01*
X77945872Y-28556499D01*
X78005483Y-28550091D01*
X78140331Y-28499796D01*
X78255546Y-28413546D01*
X78341796Y-28298331D01*
X78392091Y-28163483D01*
X78398500Y-28103873D01*
X78398500Y-27685999D01*
X101837540Y-27685999D01*
X101857326Y-27874257D01*
X101915820Y-28054284D01*
X102010466Y-28218216D01*
X102137129Y-28358889D01*
X102290269Y-28470151D01*
X102463197Y-28547144D01*
X102648352Y-28586500D01*
X102648354Y-28586500D01*
X102837648Y-28586500D01*
X103008938Y-28550091D01*
X103022803Y-28547144D01*
X103195730Y-28470151D01*
X103195729Y-28470150D01*
X103348870Y-28358889D01*
X103475533Y-28218216D01*
X103570179Y-28054284D01*
X103588855Y-27996805D01*
X103628674Y-27874256D01*
X103648460Y-27686000D01*
X103628674Y-27497744D01*
X103570179Y-27317716D01*
X103570179Y-27317715D01*
X103475533Y-27153783D01*
X103348870Y-27013110D01*
X103189495Y-26897318D01*
X103146829Y-26841988D01*
X103140850Y-26772375D01*
X103173456Y-26710580D01*
X103189495Y-26696682D01*
X103348870Y-26580889D01*
X103350765Y-26578785D01*
X103475533Y-26440216D01*
X103570179Y-26276284D01*
X103628674Y-26096256D01*
X103648460Y-25908000D01*
X103628674Y-25719744D01*
X103598332Y-25626363D01*
X103570179Y-25539715D01*
X103475533Y-25375783D01*
X103348870Y-25235110D01*
X103226218Y-25145999D01*
X120288356Y-25145999D01*
X120308891Y-25393816D01*
X120308891Y-25393819D01*
X120308892Y-25393821D01*
X120369937Y-25634881D01*
X120414960Y-25737523D01*
X120469825Y-25862604D01*
X120469827Y-25862607D01*
X120605836Y-26070785D01*
X120774256Y-26253738D01*
X120774259Y-26253740D01*
X120970485Y-26406470D01*
X120970487Y-26406471D01*
X120970491Y-26406474D01*
X121189190Y-26524828D01*
X121424386Y-26605571D01*
X121669665Y-26646500D01*
X121918335Y-26646500D01*
X122163614Y-26605571D01*
X122398810Y-26524828D01*
X122617509Y-26406474D01*
X122813744Y-26253738D01*
X122972772Y-26080986D01*
X123032656Y-26044999D01*
X123102494Y-26047099D01*
X123155229Y-26080989D01*
X123183965Y-26112204D01*
X123314256Y-26253738D01*
X123314259Y-26253740D01*
X123510485Y-26406470D01*
X123510487Y-26406471D01*
X123510491Y-26406474D01*
X123729190Y-26524828D01*
X123964386Y-26605571D01*
X124209665Y-26646500D01*
X124458335Y-26646500D01*
X124703614Y-26605571D01*
X124938810Y-26524828D01*
X125157509Y-26406474D01*
X125353744Y-26253738D01*
X125522164Y-26070785D01*
X125658173Y-25862607D01*
X125758063Y-25634881D01*
X125819108Y-25393821D01*
X125839643Y-25146000D01*
X130448356Y-25146000D01*
X130468891Y-25393816D01*
X130468891Y-25393819D01*
X130468892Y-25393821D01*
X130529937Y-25634881D01*
X130574960Y-25737523D01*
X130629825Y-25862604D01*
X130629827Y-25862607D01*
X130765836Y-26070785D01*
X130934256Y-26253738D01*
X130934259Y-26253740D01*
X131130485Y-26406470D01*
X131130487Y-26406471D01*
X131130491Y-26406474D01*
X131349190Y-26524828D01*
X131584386Y-26605571D01*
X131829665Y-26646500D01*
X132078335Y-26646500D01*
X132323614Y-26605571D01*
X132558810Y-26524828D01*
X132777509Y-26406474D01*
X132973744Y-26253738D01*
X133142164Y-26070785D01*
X133278173Y-25862607D01*
X133378063Y-25634881D01*
X133398798Y-25552999D01*
X136938699Y-25552999D01*
X136957865Y-25784299D01*
X136957865Y-25784301D01*
X136957866Y-25784305D01*
X136989190Y-25907999D01*
X137014844Y-26009303D01*
X137052986Y-26096257D01*
X137108076Y-26221849D01*
X137235021Y-26416153D01*
X137316663Y-26504840D01*
X137386670Y-26580889D01*
X137392216Y-26586913D01*
X137575374Y-26729470D01*
X137779497Y-26839936D01*
X137889258Y-26877616D01*
X137999015Y-26915297D01*
X137999017Y-26915297D01*
X137999019Y-26915298D01*
X138227951Y-26953500D01*
X138227952Y-26953500D01*
X138460048Y-26953500D01*
X138460049Y-26953500D01*
X138688981Y-26915298D01*
X138908503Y-26839936D01*
X139112626Y-26729470D01*
X139295784Y-26586913D01*
X139452979Y-26416153D01*
X139490192Y-26359194D01*
X139543337Y-26313838D01*
X139612568Y-26304414D01*
X139675904Y-26333916D01*
X139697807Y-26359192D01*
X139735021Y-26416153D01*
X139816663Y-26504840D01*
X139886670Y-26580889D01*
X139892216Y-26586913D01*
X140075374Y-26729470D01*
X140279497Y-26839936D01*
X140389258Y-26877616D01*
X140499015Y-26915297D01*
X140499017Y-26915297D01*
X140499019Y-26915298D01*
X140727951Y-26953500D01*
X140727952Y-26953500D01*
X140960048Y-26953500D01*
X140960049Y-26953500D01*
X141188981Y-26915298D01*
X141408503Y-26839936D01*
X141612626Y-26729470D01*
X141795784Y-26586913D01*
X141952979Y-26416153D01*
X141990192Y-26359194D01*
X142043337Y-26313838D01*
X142112568Y-26304414D01*
X142175904Y-26333916D01*
X142197807Y-26359192D01*
X142235021Y-26416153D01*
X142316663Y-26504840D01*
X142386670Y-26580889D01*
X142392216Y-26586913D01*
X142575374Y-26729470D01*
X142779497Y-26839936D01*
X142889258Y-26877616D01*
X142999015Y-26915297D01*
X142999017Y-26915297D01*
X142999019Y-26915298D01*
X143227951Y-26953500D01*
X143227952Y-26953500D01*
X143460048Y-26953500D01*
X143460049Y-26953500D01*
X143688981Y-26915298D01*
X143908503Y-26839936D01*
X144112626Y-26729470D01*
X144295784Y-26586913D01*
X144452979Y-26416153D01*
X144579924Y-26221849D01*
X144673157Y-26009300D01*
X144730134Y-25784305D01*
X144749300Y-25553000D01*
X144730134Y-25321695D01*
X144673157Y-25096700D01*
X144579924Y-24884151D01*
X144452979Y-24689847D01*
X144295784Y-24519087D01*
X144112626Y-24376530D01*
X143908503Y-24266064D01*
X143908499Y-24266062D01*
X143908498Y-24266062D01*
X143688984Y-24190702D01*
X143517282Y-24162050D01*
X143460049Y-24152500D01*
X143227951Y-24152500D01*
X143182164Y-24160140D01*
X142999015Y-24190702D01*
X142779501Y-24266062D01*
X142779497Y-24266063D01*
X142779497Y-24266064D01*
X142643414Y-24339707D01*
X142575372Y-24376531D01*
X142392215Y-24519087D01*
X142271196Y-24650550D01*
X142235021Y-24689847D01*
X142209302Y-24729214D01*
X142197809Y-24746805D01*
X142144662Y-24792161D01*
X142075431Y-24801585D01*
X142012095Y-24772083D01*
X141990191Y-24746805D01*
X141978699Y-24729215D01*
X141952979Y-24689847D01*
X141795784Y-24519087D01*
X141612626Y-24376530D01*
X141408503Y-24266064D01*
X141408499Y-24266062D01*
X141408498Y-24266062D01*
X141188984Y-24190702D01*
X141017282Y-24162050D01*
X140960049Y-24152500D01*
X140727951Y-24152500D01*
X140682164Y-24160140D01*
X140499015Y-24190702D01*
X140279501Y-24266062D01*
X140279497Y-24266063D01*
X140279497Y-24266064D01*
X140143415Y-24339707D01*
X140075372Y-24376531D01*
X139892215Y-24519087D01*
X139771196Y-24650550D01*
X139735021Y-24689847D01*
X139709302Y-24729214D01*
X139697809Y-24746805D01*
X139644662Y-24792161D01*
X139575431Y-24801585D01*
X139512095Y-24772083D01*
X139490191Y-24746805D01*
X139478699Y-24729215D01*
X139452979Y-24689847D01*
X139295784Y-24519087D01*
X139112626Y-24376530D01*
X138908503Y-24266064D01*
X138908499Y-24266062D01*
X138908498Y-24266062D01*
X138688984Y-24190702D01*
X138517282Y-24162050D01*
X138460049Y-24152500D01*
X138227951Y-24152500D01*
X138182164Y-24160140D01*
X137999015Y-24190702D01*
X137779501Y-24266062D01*
X137779497Y-24266063D01*
X137779497Y-24266064D01*
X137643415Y-24339707D01*
X137575372Y-24376531D01*
X137392215Y-24519087D01*
X137235020Y-24689848D01*
X137108076Y-24884150D01*
X137014844Y-25096696D01*
X136957865Y-25321700D01*
X136938699Y-25552999D01*
X133398798Y-25552999D01*
X133439108Y-25393821D01*
X133459643Y-25146000D01*
X133439108Y-24898179D01*
X133378063Y-24657119D01*
X133278173Y-24429393D01*
X133142164Y-24221215D01*
X132973744Y-24038262D01*
X132951612Y-24021036D01*
X132777514Y-23885529D01*
X132777510Y-23885526D01*
X132777509Y-23885526D01*
X132558810Y-23767172D01*
X132558806Y-23767170D01*
X132558805Y-23767170D01*
X132323615Y-23686429D01*
X132078335Y-23645500D01*
X131829665Y-23645500D01*
X131584384Y-23686429D01*
X131349194Y-23767170D01*
X131130485Y-23885529D01*
X130934259Y-24038259D01*
X130934256Y-24038261D01*
X130934256Y-24038262D01*
X130765836Y-24221215D01*
X130765493Y-24221740D01*
X130629825Y-24429395D01*
X130578564Y-24546260D01*
X130529937Y-24657119D01*
X130500824Y-24772083D01*
X130468891Y-24898183D01*
X130448356Y-25146000D01*
X125839643Y-25146000D01*
X125819108Y-24898179D01*
X125758063Y-24657119D01*
X125658173Y-24429393D01*
X125522164Y-24221215D01*
X125353744Y-24038262D01*
X125331612Y-24021036D01*
X125157514Y-23885529D01*
X125157510Y-23885526D01*
X125157509Y-23885526D01*
X124938810Y-23767172D01*
X124938806Y-23767170D01*
X124938805Y-23767170D01*
X124703615Y-23686429D01*
X124458335Y-23645500D01*
X124209665Y-23645500D01*
X123964384Y-23686429D01*
X123729194Y-23767170D01*
X123510485Y-23885529D01*
X123314259Y-24038259D01*
X123155230Y-24211010D01*
X123095343Y-24247001D01*
X123025504Y-24244900D01*
X122972770Y-24211010D01*
X122918907Y-24152500D01*
X122813744Y-24038262D01*
X122791612Y-24021036D01*
X122617514Y-23885529D01*
X122617510Y-23885526D01*
X122617509Y-23885526D01*
X122398810Y-23767172D01*
X122398806Y-23767170D01*
X122398805Y-23767170D01*
X122163615Y-23686429D01*
X121918335Y-23645500D01*
X121669665Y-23645500D01*
X121424384Y-23686429D01*
X121189194Y-23767170D01*
X120970485Y-23885529D01*
X120774259Y-24038259D01*
X120774256Y-24038261D01*
X120774256Y-24038262D01*
X120605836Y-24221215D01*
X120605493Y-24221740D01*
X120469825Y-24429395D01*
X120418564Y-24546260D01*
X120369937Y-24657119D01*
X120340824Y-24772083D01*
X120308891Y-24898183D01*
X120288356Y-25145999D01*
X103226218Y-25145999D01*
X103195730Y-25123848D01*
X103022802Y-25046855D01*
X102837648Y-25007500D01*
X102837646Y-25007500D01*
X102648354Y-25007500D01*
X102648352Y-25007500D01*
X102463197Y-25046855D01*
X102290269Y-25123848D01*
X102137129Y-25235110D01*
X102010466Y-25375783D01*
X101915820Y-25539715D01*
X101857326Y-25719742D01*
X101837540Y-25907999D01*
X101857326Y-26096257D01*
X101915820Y-26276284D01*
X102010466Y-26440216D01*
X102137127Y-26580887D01*
X102296505Y-26696682D01*
X102339170Y-26752012D01*
X102345149Y-26821626D01*
X102312543Y-26883420D01*
X102296505Y-26897318D01*
X102137127Y-27013112D01*
X102010466Y-27153783D01*
X101915820Y-27317715D01*
X101857326Y-27497742D01*
X101837540Y-27685999D01*
X78398500Y-27685999D01*
X78398499Y-26508128D01*
X78392091Y-26448517D01*
X78341796Y-26313669D01*
X78255546Y-26198454D01*
X78140331Y-26112204D01*
X78005483Y-26061909D01*
X77945873Y-26055500D01*
X77942550Y-26055500D01*
X73853439Y-26055500D01*
X73853420Y-26055500D01*
X73850128Y-26055501D01*
X73846848Y-26055853D01*
X73846840Y-26055854D01*
X73790515Y-26061909D01*
X73655669Y-26112204D01*
X73540454Y-26198454D01*
X73454204Y-26313668D01*
X73403910Y-26448515D01*
X73403909Y-26448517D01*
X73397500Y-26508127D01*
X73397500Y-26511448D01*
X73397500Y-26511449D01*
X73397500Y-28100560D01*
X73397500Y-28100578D01*
X65024500Y-28100578D01*
X65024500Y-25653999D01*
X87013356Y-25653999D01*
X87033891Y-25901816D01*
X87033891Y-25901819D01*
X87033892Y-25901821D01*
X87094937Y-26142881D01*
X87115500Y-26189759D01*
X87194825Y-26370604D01*
X87194827Y-26370607D01*
X87330836Y-26578785D01*
X87499256Y-26761738D01*
X87544561Y-26797000D01*
X87695485Y-26914470D01*
X87695487Y-26914471D01*
X87695491Y-26914474D01*
X87914190Y-27032828D01*
X88149386Y-27113571D01*
X88394665Y-27154500D01*
X88643335Y-27154500D01*
X88888614Y-27113571D01*
X89123810Y-27032828D01*
X89342509Y-26914474D01*
X89538744Y-26761738D01*
X89707164Y-26578785D01*
X89843173Y-26370607D01*
X89943063Y-26142881D01*
X90004108Y-25901821D01*
X90024643Y-25654000D01*
X90004108Y-25406179D01*
X89943063Y-25165119D01*
X89843173Y-24937393D01*
X89707164Y-24729215D01*
X89538744Y-24546262D01*
X89503830Y-24519087D01*
X89455992Y-24481853D01*
X89415179Y-24425143D01*
X89411504Y-24355370D01*
X89446136Y-24294687D01*
X89455992Y-24286147D01*
X89481797Y-24266062D01*
X89538744Y-24221738D01*
X89707164Y-24038785D01*
X89843173Y-23830607D01*
X89943063Y-23602881D01*
X90004108Y-23361821D01*
X90024643Y-23114000D01*
X90004108Y-22866179D01*
X89943063Y-22625119D01*
X89843173Y-22397393D01*
X89707164Y-22189215D01*
X89538744Y-22006262D01*
X89522437Y-21993570D01*
X89455992Y-21941853D01*
X89415179Y-21885143D01*
X89411504Y-21815370D01*
X89446136Y-21754687D01*
X89455992Y-21746147D01*
X89485244Y-21723379D01*
X89538744Y-21681738D01*
X89707164Y-21498785D01*
X89843173Y-21290607D01*
X89943063Y-21062881D01*
X90004108Y-20821821D01*
X90024643Y-20574000D01*
X90004108Y-20326179D01*
X89943063Y-20085119D01*
X89843173Y-19857393D01*
X89707164Y-19649215D01*
X89623195Y-19558000D01*
X109030357Y-19558000D01*
X109050885Y-19779537D01*
X109111769Y-19993526D01*
X109210941Y-20192688D01*
X109345019Y-20370237D01*
X109509437Y-20520124D01*
X109698595Y-20637245D01*
X109698597Y-20637245D01*
X109698599Y-20637247D01*
X109906060Y-20717618D01*
X110124757Y-20758500D01*
X110124759Y-20758500D01*
X110347241Y-20758500D01*
X110347243Y-20758500D01*
X110565940Y-20717618D01*
X110773401Y-20637247D01*
X110962562Y-20520124D01*
X111126981Y-20370236D01*
X111261058Y-20192689D01*
X111360229Y-19993528D01*
X111360280Y-19993351D01*
X111386734Y-19900374D01*
X111424013Y-19841281D01*
X111487322Y-19811723D01*
X111556562Y-19821085D01*
X111609749Y-19866395D01*
X111625266Y-19900374D01*
X111651769Y-19993526D01*
X111750941Y-20192688D01*
X111885019Y-20370237D01*
X112049437Y-20520124D01*
X112238595Y-20637245D01*
X112238597Y-20637245D01*
X112238599Y-20637247D01*
X112446060Y-20717618D01*
X112664757Y-20758500D01*
X112664759Y-20758500D01*
X112887241Y-20758500D01*
X112887243Y-20758500D01*
X113105940Y-20717618D01*
X113313401Y-20637247D01*
X113502562Y-20520124D01*
X113666981Y-20370236D01*
X113801058Y-20192689D01*
X113900229Y-19993528D01*
X113900280Y-19993351D01*
X113928094Y-19895594D01*
X113961115Y-19779536D01*
X113981643Y-19558000D01*
X114364859Y-19558000D01*
X114385378Y-19779445D01*
X114446238Y-19993347D01*
X114545367Y-20192425D01*
X114561137Y-20213308D01*
X114561138Y-20213308D01*
X115172046Y-19602400D01*
X115184835Y-19683148D01*
X115242359Y-19796045D01*
X115331955Y-19885641D01*
X115444852Y-19943165D01*
X115525599Y-19955953D01*
X114916672Y-20564879D01*
X114916672Y-20564881D01*
X115032816Y-20636795D01*
X115240198Y-20717135D01*
X115458806Y-20758000D01*
X115681194Y-20758000D01*
X115899801Y-20717135D01*
X116107180Y-20636797D01*
X116223326Y-20564880D01*
X116223326Y-20564879D01*
X115614401Y-19955953D01*
X115695148Y-19943165D01*
X115808045Y-19885641D01*
X115897641Y-19796045D01*
X115955165Y-19683148D01*
X115967953Y-19602400D01*
X116578861Y-20213308D01*
X116594632Y-20192424D01*
X116693759Y-19993351D01*
X116720473Y-19899461D01*
X116757752Y-19840367D01*
X116821062Y-19810809D01*
X116890301Y-19820171D01*
X116943488Y-19865480D01*
X116959006Y-19899460D01*
X116985769Y-19993526D01*
X117084941Y-20192688D01*
X117219019Y-20370237D01*
X117383437Y-20520124D01*
X117572595Y-20637245D01*
X117572597Y-20637245D01*
X117572599Y-20637247D01*
X117780060Y-20717618D01*
X117998757Y-20758500D01*
X117998759Y-20758500D01*
X118221241Y-20758500D01*
X118221243Y-20758500D01*
X118439940Y-20717618D01*
X118647401Y-20637247D01*
X118836562Y-20520124D01*
X118988713Y-20381420D01*
X143255789Y-20381420D01*
X143285381Y-20625131D01*
X143353681Y-20860928D01*
X143353682Y-20860931D01*
X143458924Y-21082723D01*
X143598381Y-21284762D01*
X143768442Y-21461813D01*
X143964701Y-21609293D01*
X143964703Y-21609294D01*
X144182072Y-21723379D01*
X144275852Y-21754687D01*
X144414937Y-21801120D01*
X144502621Y-21815370D01*
X144657252Y-21840500D01*
X144657253Y-21840500D01*
X144838795Y-21840500D01*
X144841280Y-21840500D01*
X145024699Y-21825693D01*
X145263060Y-21766942D01*
X145488911Y-21670716D01*
X145696400Y-21539508D01*
X145880156Y-21376714D01*
X146035418Y-21186553D01*
X146158166Y-20973948D01*
X146245219Y-20744406D01*
X146294325Y-20503872D01*
X146304210Y-20258576D01*
X146274619Y-20014871D01*
X146206318Y-19779069D01*
X146101076Y-19557277D01*
X145961619Y-19355238D01*
X145791558Y-19178187D01*
X145595299Y-19030707D01*
X145595297Y-19030706D01*
X145595296Y-19030705D01*
X145377927Y-18916620D01*
X145145061Y-18838879D01*
X144902748Y-18799500D01*
X144902747Y-18799500D01*
X144718720Y-18799500D01*
X144716265Y-18799698D01*
X144716244Y-18799699D01*
X144535301Y-18814307D01*
X144296941Y-18873057D01*
X144071084Y-18969286D01*
X143863600Y-19100492D01*
X143679844Y-19263285D01*
X143524581Y-19453447D01*
X143401834Y-19666051D01*
X143314780Y-19895594D01*
X143265674Y-20136130D01*
X143255789Y-20381420D01*
X118988713Y-20381420D01*
X119000981Y-20370236D01*
X119135058Y-20192689D01*
X119234229Y-19993528D01*
X119234280Y-19993351D01*
X119262094Y-19895594D01*
X119295115Y-19779536D01*
X119315643Y-19558000D01*
X119295115Y-19336464D01*
X119264926Y-19230359D01*
X119234230Y-19122473D01*
X119135058Y-18923311D01*
X119000980Y-18745762D01*
X118836562Y-18595875D01*
X118647404Y-18478754D01*
X118586174Y-18455033D01*
X118439940Y-18398382D01*
X118221243Y-18357500D01*
X117998757Y-18357500D01*
X117780060Y-18398382D01*
X117572595Y-18478754D01*
X117383437Y-18595875D01*
X117219019Y-18745762D01*
X117084941Y-18923311D01*
X116985769Y-19122473D01*
X116959006Y-19216539D01*
X116921727Y-19275633D01*
X116858417Y-19305190D01*
X116789178Y-19295828D01*
X116735991Y-19250518D01*
X116720473Y-19216539D01*
X116693759Y-19122650D01*
X116594630Y-18923572D01*
X116578860Y-18902690D01*
X115967953Y-19513598D01*
X115955165Y-19432852D01*
X115897641Y-19319955D01*
X115808045Y-19230359D01*
X115695148Y-19172835D01*
X115614401Y-19160046D01*
X116223327Y-18551119D01*
X116107179Y-18479202D01*
X115899801Y-18398864D01*
X115681194Y-18358000D01*
X115458806Y-18358000D01*
X115240198Y-18398864D01*
X115032821Y-18479202D01*
X114916671Y-18551119D01*
X115525599Y-19160046D01*
X115444852Y-19172835D01*
X115331955Y-19230359D01*
X115242359Y-19319955D01*
X115184835Y-19432852D01*
X115172046Y-19513599D01*
X114561138Y-18902691D01*
X114561137Y-18902691D01*
X114545368Y-18923574D01*
X114446237Y-19122654D01*
X114385378Y-19336554D01*
X114364859Y-19558000D01*
X113981643Y-19558000D01*
X113961115Y-19336464D01*
X113930926Y-19230359D01*
X113900230Y-19122473D01*
X113801058Y-18923311D01*
X113666980Y-18745762D01*
X113502562Y-18595875D01*
X113313404Y-18478754D01*
X113252174Y-18455033D01*
X113105940Y-18398382D01*
X112887243Y-18357500D01*
X112664757Y-18357500D01*
X112446059Y-18398382D01*
X112446060Y-18398382D01*
X112238595Y-18478754D01*
X112049437Y-18595875D01*
X111885019Y-18745762D01*
X111750941Y-18923311D01*
X111651769Y-19122473D01*
X111625266Y-19215625D01*
X111587987Y-19274719D01*
X111524677Y-19304276D01*
X111455438Y-19294914D01*
X111402251Y-19249604D01*
X111386734Y-19215625D01*
X111360230Y-19122473D01*
X111261058Y-18923311D01*
X111126980Y-18745762D01*
X110962562Y-18595875D01*
X110773404Y-18478754D01*
X110712174Y-18455033D01*
X110565940Y-18398382D01*
X110347243Y-18357500D01*
X110124757Y-18357500D01*
X109906060Y-18398382D01*
X109698595Y-18478754D01*
X109509437Y-18595875D01*
X109345019Y-18745762D01*
X109210941Y-18923311D01*
X109111769Y-19122473D01*
X109050885Y-19336462D01*
X109030357Y-19558000D01*
X89623195Y-19558000D01*
X89538744Y-19466262D01*
X89396101Y-19355238D01*
X89342514Y-19313529D01*
X89342510Y-19313526D01*
X89342509Y-19313526D01*
X89123810Y-19195172D01*
X89123806Y-19195170D01*
X89123805Y-19195170D01*
X88888615Y-19114429D01*
X88643335Y-19073500D01*
X88394665Y-19073500D01*
X88149384Y-19114429D01*
X87914194Y-19195170D01*
X87914190Y-19195171D01*
X87914190Y-19195172D01*
X87876396Y-19215625D01*
X87695485Y-19313529D01*
X87499259Y-19466259D01*
X87330837Y-19649214D01*
X87194825Y-19857395D01*
X87104780Y-20062678D01*
X87094937Y-20085119D01*
X87051011Y-20258579D01*
X87033891Y-20326183D01*
X87013356Y-20573999D01*
X87033891Y-20821816D01*
X87033891Y-20821819D01*
X87033892Y-20821821D01*
X87094937Y-21062881D01*
X87103641Y-21082723D01*
X87194825Y-21290604D01*
X87194827Y-21290607D01*
X87330836Y-21498785D01*
X87432566Y-21609293D01*
X87499256Y-21681738D01*
X87582008Y-21746147D01*
X87622821Y-21802858D01*
X87626494Y-21872631D01*
X87591863Y-21933314D01*
X87582008Y-21941853D01*
X87499256Y-22006261D01*
X87330837Y-22189214D01*
X87194825Y-22397395D01*
X87094938Y-22625117D01*
X87033891Y-22866183D01*
X87013356Y-23114000D01*
X87033891Y-23361816D01*
X87033891Y-23361819D01*
X87033892Y-23361821D01*
X87094937Y-23602881D01*
X87131585Y-23686429D01*
X87194825Y-23830604D01*
X87194827Y-23830607D01*
X87330836Y-24038785D01*
X87435518Y-24152500D01*
X87498774Y-24221215D01*
X87499256Y-24221738D01*
X87582008Y-24286146D01*
X87622820Y-24342856D01*
X87626495Y-24412629D01*
X87591863Y-24473312D01*
X87582009Y-24481851D01*
X87499257Y-24546260D01*
X87367078Y-24689846D01*
X87330836Y-24729215D01*
X87285499Y-24798607D01*
X87194825Y-24937395D01*
X87145522Y-25049796D01*
X87094937Y-25165119D01*
X87033892Y-25406179D01*
X87033891Y-25406183D01*
X87013356Y-25653999D01*
X65024500Y-25653999D01*
X65024500Y-24650578D01*
X71647500Y-24650578D01*
X71647501Y-24653872D01*
X71647853Y-24657152D01*
X71647854Y-24657159D01*
X71653909Y-24713484D01*
X71666337Y-24746805D01*
X71704204Y-24848331D01*
X71790454Y-24963546D01*
X71905669Y-25049796D01*
X72040517Y-25100091D01*
X72100127Y-25106500D01*
X73695872Y-25106499D01*
X73755483Y-25100091D01*
X73890331Y-25049796D01*
X74005546Y-24963546D01*
X74091796Y-24848331D01*
X74142091Y-24713483D01*
X74148500Y-24653873D01*
X74148500Y-24650578D01*
X77647500Y-24650578D01*
X77647501Y-24653872D01*
X77647853Y-24657152D01*
X77647854Y-24657159D01*
X77653909Y-24713484D01*
X77666337Y-24746805D01*
X77704204Y-24848331D01*
X77790454Y-24963546D01*
X77905669Y-25049796D01*
X78040517Y-25100091D01*
X78100127Y-25106500D01*
X79695872Y-25106499D01*
X79755483Y-25100091D01*
X79890331Y-25049796D01*
X80005546Y-24963546D01*
X80091796Y-24848331D01*
X80142091Y-24713483D01*
X80148500Y-24653873D01*
X80148499Y-20558128D01*
X80142091Y-20498517D01*
X80091796Y-20363669D01*
X80005546Y-20248454D01*
X79890331Y-20162204D01*
X79755483Y-20111909D01*
X79695873Y-20105500D01*
X79692550Y-20105500D01*
X78103439Y-20105500D01*
X78103420Y-20105500D01*
X78100128Y-20105501D01*
X78096848Y-20105853D01*
X78096840Y-20105854D01*
X78040515Y-20111909D01*
X77905669Y-20162204D01*
X77790454Y-20248454D01*
X77704204Y-20363668D01*
X77653909Y-20498516D01*
X77653334Y-20503869D01*
X77647500Y-20558127D01*
X77647500Y-20561448D01*
X77647500Y-20561449D01*
X77647500Y-24650560D01*
X77647500Y-24650578D01*
X74148500Y-24650578D01*
X74148499Y-20558128D01*
X74142091Y-20498517D01*
X74091796Y-20363669D01*
X74005546Y-20248454D01*
X73890331Y-20162204D01*
X73755483Y-20111909D01*
X73695873Y-20105500D01*
X73692550Y-20105500D01*
X72103439Y-20105500D01*
X72103420Y-20105500D01*
X72100128Y-20105501D01*
X72096848Y-20105853D01*
X72096840Y-20105854D01*
X72040515Y-20111909D01*
X71905669Y-20162204D01*
X71790454Y-20248454D01*
X71704204Y-20363668D01*
X71653909Y-20498516D01*
X71653334Y-20503869D01*
X71647500Y-20558127D01*
X71647500Y-20561448D01*
X71647500Y-20561449D01*
X71647500Y-24650560D01*
X71647500Y-24650578D01*
X65024500Y-24650578D01*
X65024500Y-15364500D01*
X65044185Y-15297461D01*
X65096989Y-15251706D01*
X65148500Y-15240500D01*
X149227500Y-15240500D01*
X149294539Y-15260185D01*
G37*
%TD.AperFunction*%
%TD*%
M02*
