%TF.GenerationSoftware,KiCad,Pcbnew,7.0.2-0*%
%TF.CreationDate,2023-08-30T19:58:31-04:00*%
%TF.ProjectId,Pedometer_Prototype_1,5065646f-6d65-4746-9572-5f50726f746f,rev?*%
%TF.SameCoordinates,Original*%
%TF.FileFunction,Legend,Top*%
%TF.FilePolarity,Positive*%
%FSLAX46Y46*%
G04 Gerber Fmt 4.6, Leading zero omitted, Abs format (unit mm)*
G04 Created by KiCad (PCBNEW 7.0.2-0) date 2023-08-30 19:58:31*
%MOMM*%
%LPD*%
G01*
G04 APERTURE LIST*
%ADD10C,0.100000*%
%ADD11C,0.150000*%
%ADD12C,0.120000*%
G04 APERTURE END LIST*
D10*
X116395523Y-17885333D02*
X115786000Y-17885333D01*
X116090761Y-18190095D02*
X116090761Y-17580571D01*
X111061523Y-17885333D02*
X110452000Y-17885333D01*
X110756761Y-18190095D02*
X110756761Y-17580571D01*
X143827523Y-58271333D02*
X143218000Y-58271333D01*
X143522761Y-58576095D02*
X143522761Y-57966571D01*
X110791523Y-23404380D02*
X110743904Y-23452000D01*
X110743904Y-23452000D02*
X110601047Y-23499619D01*
X110601047Y-23499619D02*
X110505809Y-23499619D01*
X110505809Y-23499619D02*
X110362952Y-23452000D01*
X110362952Y-23452000D02*
X110267714Y-23356761D01*
X110267714Y-23356761D02*
X110220095Y-23261523D01*
X110220095Y-23261523D02*
X110172476Y-23071047D01*
X110172476Y-23071047D02*
X110172476Y-22928190D01*
X110172476Y-22928190D02*
X110220095Y-22737714D01*
X110220095Y-22737714D02*
X110267714Y-22642476D01*
X110267714Y-22642476D02*
X110362952Y-22547238D01*
X110362952Y-22547238D02*
X110505809Y-22499619D01*
X110505809Y-22499619D02*
X110601047Y-22499619D01*
X110601047Y-22499619D02*
X110743904Y-22547238D01*
X110743904Y-22547238D02*
X110791523Y-22594857D01*
X111220095Y-23499619D02*
X111220095Y-22499619D01*
X111220095Y-22975809D02*
X111791523Y-22975809D01*
X111791523Y-23499619D02*
X111791523Y-22499619D01*
X112791523Y-22547238D02*
X112696285Y-22499619D01*
X112696285Y-22499619D02*
X112553428Y-22499619D01*
X112553428Y-22499619D02*
X112410571Y-22547238D01*
X112410571Y-22547238D02*
X112315333Y-22642476D01*
X112315333Y-22642476D02*
X112267714Y-22737714D01*
X112267714Y-22737714D02*
X112220095Y-22928190D01*
X112220095Y-22928190D02*
X112220095Y-23071047D01*
X112220095Y-23071047D02*
X112267714Y-23261523D01*
X112267714Y-23261523D02*
X112315333Y-23356761D01*
X112315333Y-23356761D02*
X112410571Y-23452000D01*
X112410571Y-23452000D02*
X112553428Y-23499619D01*
X112553428Y-23499619D02*
X112648666Y-23499619D01*
X112648666Y-23499619D02*
X112791523Y-23452000D01*
X112791523Y-23452000D02*
X112839142Y-23404380D01*
X112839142Y-23404380D02*
X112839142Y-23071047D01*
X112839142Y-23071047D02*
X112648666Y-23071047D01*
X139906285Y-63631619D02*
X139430095Y-63631619D01*
X139430095Y-63631619D02*
X139430095Y-62631619D01*
X140430095Y-62631619D02*
X140620571Y-62631619D01*
X140620571Y-62631619D02*
X140715809Y-62679238D01*
X140715809Y-62679238D02*
X140811047Y-62774476D01*
X140811047Y-62774476D02*
X140858666Y-62964952D01*
X140858666Y-62964952D02*
X140858666Y-63298285D01*
X140858666Y-63298285D02*
X140811047Y-63488761D01*
X140811047Y-63488761D02*
X140715809Y-63584000D01*
X140715809Y-63584000D02*
X140620571Y-63631619D01*
X140620571Y-63631619D02*
X140430095Y-63631619D01*
X140430095Y-63631619D02*
X140334857Y-63584000D01*
X140334857Y-63584000D02*
X140239619Y-63488761D01*
X140239619Y-63488761D02*
X140192000Y-63298285D01*
X140192000Y-63298285D02*
X140192000Y-62964952D01*
X140192000Y-62964952D02*
X140239619Y-62774476D01*
X140239619Y-62774476D02*
X140334857Y-62679238D01*
X140334857Y-62679238D02*
X140430095Y-62631619D01*
X141192000Y-62631619D02*
X141430095Y-63631619D01*
X141430095Y-63631619D02*
X141620571Y-62917333D01*
X141620571Y-62917333D02*
X141811047Y-63631619D01*
X141811047Y-63631619D02*
X142049143Y-62631619D01*
X143525333Y-63107809D02*
X143668190Y-63155428D01*
X143668190Y-63155428D02*
X143715809Y-63203047D01*
X143715809Y-63203047D02*
X143763428Y-63298285D01*
X143763428Y-63298285D02*
X143763428Y-63441142D01*
X143763428Y-63441142D02*
X143715809Y-63536380D01*
X143715809Y-63536380D02*
X143668190Y-63584000D01*
X143668190Y-63584000D02*
X143572952Y-63631619D01*
X143572952Y-63631619D02*
X143192000Y-63631619D01*
X143192000Y-63631619D02*
X143192000Y-62631619D01*
X143192000Y-62631619D02*
X143525333Y-62631619D01*
X143525333Y-62631619D02*
X143620571Y-62679238D01*
X143620571Y-62679238D02*
X143668190Y-62726857D01*
X143668190Y-62726857D02*
X143715809Y-62822095D01*
X143715809Y-62822095D02*
X143715809Y-62917333D01*
X143715809Y-62917333D02*
X143668190Y-63012571D01*
X143668190Y-63012571D02*
X143620571Y-63060190D01*
X143620571Y-63060190D02*
X143525333Y-63107809D01*
X143525333Y-63107809D02*
X143192000Y-63107809D01*
X144144381Y-63345904D02*
X144620571Y-63345904D01*
X144049143Y-63631619D02*
X144382476Y-62631619D01*
X144382476Y-62631619D02*
X144715809Y-63631619D01*
X144906286Y-62631619D02*
X145477714Y-62631619D01*
X145192000Y-63631619D02*
X145192000Y-62631619D01*
X145668191Y-62631619D02*
X146239619Y-62631619D01*
X145953905Y-63631619D02*
X145953905Y-62631619D01*
X146572953Y-63107809D02*
X146906286Y-63107809D01*
X147049143Y-63631619D02*
X146572953Y-63631619D01*
X146572953Y-63631619D02*
X146572953Y-62631619D01*
X146572953Y-62631619D02*
X147049143Y-62631619D01*
X148049143Y-63631619D02*
X147715810Y-63155428D01*
X147477715Y-63631619D02*
X147477715Y-62631619D01*
X147477715Y-62631619D02*
X147858667Y-62631619D01*
X147858667Y-62631619D02*
X147953905Y-62679238D01*
X147953905Y-62679238D02*
X148001524Y-62726857D01*
X148001524Y-62726857D02*
X148049143Y-62822095D01*
X148049143Y-62822095D02*
X148049143Y-62964952D01*
X148049143Y-62964952D02*
X148001524Y-63060190D01*
X148001524Y-63060190D02*
X147953905Y-63107809D01*
X147953905Y-63107809D02*
X147858667Y-63155428D01*
X147858667Y-63155428D02*
X147477715Y-63155428D01*
X148668191Y-63155428D02*
X148668191Y-63631619D01*
X148334858Y-62631619D02*
X148668191Y-63155428D01*
X148668191Y-63155428D02*
X149001524Y-62631619D01*
X137842571Y-21737619D02*
X138033047Y-21737619D01*
X138033047Y-21737619D02*
X138128285Y-21785238D01*
X138128285Y-21785238D02*
X138223523Y-21880476D01*
X138223523Y-21880476D02*
X138271142Y-22070952D01*
X138271142Y-22070952D02*
X138271142Y-22404285D01*
X138271142Y-22404285D02*
X138223523Y-22594761D01*
X138223523Y-22594761D02*
X138128285Y-22690000D01*
X138128285Y-22690000D02*
X138033047Y-22737619D01*
X138033047Y-22737619D02*
X137842571Y-22737619D01*
X137842571Y-22737619D02*
X137747333Y-22690000D01*
X137747333Y-22690000D02*
X137652095Y-22594761D01*
X137652095Y-22594761D02*
X137604476Y-22404285D01*
X137604476Y-22404285D02*
X137604476Y-22070952D01*
X137604476Y-22070952D02*
X137652095Y-21880476D01*
X137652095Y-21880476D02*
X137747333Y-21785238D01*
X137747333Y-21785238D02*
X137842571Y-21737619D01*
X138699714Y-22737619D02*
X138699714Y-21737619D01*
X138699714Y-21737619D02*
X139271142Y-22737619D01*
X139271142Y-22737619D02*
X139271142Y-21737619D01*
X140461618Y-21690000D02*
X139604476Y-22975714D01*
X140985428Y-21737619D02*
X141175904Y-21737619D01*
X141175904Y-21737619D02*
X141271142Y-21785238D01*
X141271142Y-21785238D02*
X141366380Y-21880476D01*
X141366380Y-21880476D02*
X141413999Y-22070952D01*
X141413999Y-22070952D02*
X141413999Y-22404285D01*
X141413999Y-22404285D02*
X141366380Y-22594761D01*
X141366380Y-22594761D02*
X141271142Y-22690000D01*
X141271142Y-22690000D02*
X141175904Y-22737619D01*
X141175904Y-22737619D02*
X140985428Y-22737619D01*
X140985428Y-22737619D02*
X140890190Y-22690000D01*
X140890190Y-22690000D02*
X140794952Y-22594761D01*
X140794952Y-22594761D02*
X140747333Y-22404285D01*
X140747333Y-22404285D02*
X140747333Y-22070952D01*
X140747333Y-22070952D02*
X140794952Y-21880476D01*
X140794952Y-21880476D02*
X140890190Y-21785238D01*
X140890190Y-21785238D02*
X140985428Y-21737619D01*
X142175904Y-22213809D02*
X141842571Y-22213809D01*
X141842571Y-22737619D02*
X141842571Y-21737619D01*
X141842571Y-21737619D02*
X142318761Y-21737619D01*
X143033047Y-22213809D02*
X142699714Y-22213809D01*
X142699714Y-22737619D02*
X142699714Y-21737619D01*
X142699714Y-21737619D02*
X143175904Y-21737619D01*
X116252571Y-22499619D02*
X116443047Y-22499619D01*
X116443047Y-22499619D02*
X116538285Y-22547238D01*
X116538285Y-22547238D02*
X116633523Y-22642476D01*
X116633523Y-22642476D02*
X116681142Y-22832952D01*
X116681142Y-22832952D02*
X116681142Y-23166285D01*
X116681142Y-23166285D02*
X116633523Y-23356761D01*
X116633523Y-23356761D02*
X116538285Y-23452000D01*
X116538285Y-23452000D02*
X116443047Y-23499619D01*
X116443047Y-23499619D02*
X116252571Y-23499619D01*
X116252571Y-23499619D02*
X116157333Y-23452000D01*
X116157333Y-23452000D02*
X116062095Y-23356761D01*
X116062095Y-23356761D02*
X116014476Y-23166285D01*
X116014476Y-23166285D02*
X116014476Y-22832952D01*
X116014476Y-22832952D02*
X116062095Y-22642476D01*
X116062095Y-22642476D02*
X116157333Y-22547238D01*
X116157333Y-22547238D02*
X116252571Y-22499619D01*
X117109714Y-23499619D02*
X117109714Y-22499619D01*
X117109714Y-22499619D02*
X117681142Y-23499619D01*
X117681142Y-23499619D02*
X117681142Y-22499619D01*
X144918190Y-75501428D02*
X144870571Y-75644285D01*
X144870571Y-75644285D02*
X144822952Y-75691904D01*
X144822952Y-75691904D02*
X144727714Y-75739523D01*
X144727714Y-75739523D02*
X144584857Y-75739523D01*
X144584857Y-75739523D02*
X144489619Y-75691904D01*
X144489619Y-75691904D02*
X144442000Y-75644285D01*
X144442000Y-75644285D02*
X144394380Y-75549047D01*
X144394380Y-75549047D02*
X144394380Y-75168095D01*
X144394380Y-75168095D02*
X145394380Y-75168095D01*
X145394380Y-75168095D02*
X145394380Y-75501428D01*
X145394380Y-75501428D02*
X145346761Y-75596666D01*
X145346761Y-75596666D02*
X145299142Y-75644285D01*
X145299142Y-75644285D02*
X145203904Y-75691904D01*
X145203904Y-75691904D02*
X145108666Y-75691904D01*
X145108666Y-75691904D02*
X145013428Y-75644285D01*
X145013428Y-75644285D02*
X144965809Y-75596666D01*
X144965809Y-75596666D02*
X144918190Y-75501428D01*
X144918190Y-75501428D02*
X144918190Y-75168095D01*
X144394380Y-76644285D02*
X144394380Y-76168095D01*
X144394380Y-76168095D02*
X145394380Y-76168095D01*
X144918190Y-76977619D02*
X144918190Y-77310952D01*
X144394380Y-77453809D02*
X144394380Y-76977619D01*
X144394380Y-76977619D02*
X145394380Y-76977619D01*
X145394380Y-76977619D02*
X145394380Y-77453809D01*
X144394380Y-78644286D02*
X145394380Y-78644286D01*
X144394380Y-79120476D02*
X145394380Y-79120476D01*
X145394380Y-79120476D02*
X144394380Y-79691904D01*
X144394380Y-79691904D02*
X145394380Y-79691904D01*
X145394380Y-80025238D02*
X145394380Y-80596666D01*
X144394380Y-80310952D02*
X145394380Y-80310952D01*
X144918190Y-80930000D02*
X144918190Y-81263333D01*
X144394380Y-81406190D02*
X144394380Y-80930000D01*
X144394380Y-80930000D02*
X145394380Y-80930000D01*
X145394380Y-80930000D02*
X145394380Y-81406190D01*
X144394380Y-82406190D02*
X144870571Y-82072857D01*
X144394380Y-81834762D02*
X145394380Y-81834762D01*
X145394380Y-81834762D02*
X145394380Y-82215714D01*
X145394380Y-82215714D02*
X145346761Y-82310952D01*
X145346761Y-82310952D02*
X145299142Y-82358571D01*
X145299142Y-82358571D02*
X145203904Y-82406190D01*
X145203904Y-82406190D02*
X145061047Y-82406190D01*
X145061047Y-82406190D02*
X144965809Y-82358571D01*
X144965809Y-82358571D02*
X144918190Y-82310952D01*
X144918190Y-82310952D02*
X144870571Y-82215714D01*
X144870571Y-82215714D02*
X144870571Y-81834762D01*
X144918190Y-83168095D02*
X144918190Y-82834762D01*
X144394380Y-82834762D02*
X145394380Y-82834762D01*
X145394380Y-82834762D02*
X145394380Y-83310952D01*
X144680095Y-83644286D02*
X144680095Y-84120476D01*
X144394380Y-83549048D02*
X145394380Y-83882381D01*
X145394380Y-83882381D02*
X144394380Y-84215714D01*
X144489619Y-85120476D02*
X144442000Y-85072857D01*
X144442000Y-85072857D02*
X144394380Y-84930000D01*
X144394380Y-84930000D02*
X144394380Y-84834762D01*
X144394380Y-84834762D02*
X144442000Y-84691905D01*
X144442000Y-84691905D02*
X144537238Y-84596667D01*
X144537238Y-84596667D02*
X144632476Y-84549048D01*
X144632476Y-84549048D02*
X144822952Y-84501429D01*
X144822952Y-84501429D02*
X144965809Y-84501429D01*
X144965809Y-84501429D02*
X145156285Y-84549048D01*
X145156285Y-84549048D02*
X145251523Y-84596667D01*
X145251523Y-84596667D02*
X145346761Y-84691905D01*
X145346761Y-84691905D02*
X145394380Y-84834762D01*
X145394380Y-84834762D02*
X145394380Y-84930000D01*
X145394380Y-84930000D02*
X145346761Y-85072857D01*
X145346761Y-85072857D02*
X145299142Y-85120476D01*
X144918190Y-85549048D02*
X144918190Y-85882381D01*
X144394380Y-86025238D02*
X144394380Y-85549048D01*
X144394380Y-85549048D02*
X145394380Y-85549048D01*
X145394380Y-85549048D02*
X145394380Y-86025238D01*
X144140380Y-94218095D02*
X145140380Y-94218095D01*
X145140380Y-94218095D02*
X145140380Y-94599047D01*
X145140380Y-94599047D02*
X145092761Y-94694285D01*
X145092761Y-94694285D02*
X145045142Y-94741904D01*
X145045142Y-94741904D02*
X144949904Y-94789523D01*
X144949904Y-94789523D02*
X144807047Y-94789523D01*
X144807047Y-94789523D02*
X144711809Y-94741904D01*
X144711809Y-94741904D02*
X144664190Y-94694285D01*
X144664190Y-94694285D02*
X144616571Y-94599047D01*
X144616571Y-94599047D02*
X144616571Y-94218095D01*
X144140380Y-95789523D02*
X144616571Y-95456190D01*
X144140380Y-95218095D02*
X145140380Y-95218095D01*
X145140380Y-95218095D02*
X145140380Y-95599047D01*
X145140380Y-95599047D02*
X145092761Y-95694285D01*
X145092761Y-95694285D02*
X145045142Y-95741904D01*
X145045142Y-95741904D02*
X144949904Y-95789523D01*
X144949904Y-95789523D02*
X144807047Y-95789523D01*
X144807047Y-95789523D02*
X144711809Y-95741904D01*
X144711809Y-95741904D02*
X144664190Y-95694285D01*
X144664190Y-95694285D02*
X144616571Y-95599047D01*
X144616571Y-95599047D02*
X144616571Y-95218095D01*
X145140380Y-96408571D02*
X145140380Y-96599047D01*
X145140380Y-96599047D02*
X145092761Y-96694285D01*
X145092761Y-96694285D02*
X144997523Y-96789523D01*
X144997523Y-96789523D02*
X144807047Y-96837142D01*
X144807047Y-96837142D02*
X144473714Y-96837142D01*
X144473714Y-96837142D02*
X144283238Y-96789523D01*
X144283238Y-96789523D02*
X144188000Y-96694285D01*
X144188000Y-96694285D02*
X144140380Y-96599047D01*
X144140380Y-96599047D02*
X144140380Y-96408571D01*
X144140380Y-96408571D02*
X144188000Y-96313333D01*
X144188000Y-96313333D02*
X144283238Y-96218095D01*
X144283238Y-96218095D02*
X144473714Y-96170476D01*
X144473714Y-96170476D02*
X144807047Y-96170476D01*
X144807047Y-96170476D02*
X144997523Y-96218095D01*
X144997523Y-96218095D02*
X145092761Y-96313333D01*
X145092761Y-96313333D02*
X145140380Y-96408571D01*
X145092761Y-97789523D02*
X145140380Y-97694285D01*
X145140380Y-97694285D02*
X145140380Y-97551428D01*
X145140380Y-97551428D02*
X145092761Y-97408571D01*
X145092761Y-97408571D02*
X144997523Y-97313333D01*
X144997523Y-97313333D02*
X144902285Y-97265714D01*
X144902285Y-97265714D02*
X144711809Y-97218095D01*
X144711809Y-97218095D02*
X144568952Y-97218095D01*
X144568952Y-97218095D02*
X144378476Y-97265714D01*
X144378476Y-97265714D02*
X144283238Y-97313333D01*
X144283238Y-97313333D02*
X144188000Y-97408571D01*
X144188000Y-97408571D02*
X144140380Y-97551428D01*
X144140380Y-97551428D02*
X144140380Y-97646666D01*
X144140380Y-97646666D02*
X144188000Y-97789523D01*
X144188000Y-97789523D02*
X144235619Y-97837142D01*
X144235619Y-97837142D02*
X144568952Y-97837142D01*
X144568952Y-97837142D02*
X144568952Y-97646666D01*
X144140380Y-98837142D02*
X144616571Y-98503809D01*
X144140380Y-98265714D02*
X145140380Y-98265714D01*
X145140380Y-98265714D02*
X145140380Y-98646666D01*
X145140380Y-98646666D02*
X145092761Y-98741904D01*
X145092761Y-98741904D02*
X145045142Y-98789523D01*
X145045142Y-98789523D02*
X144949904Y-98837142D01*
X144949904Y-98837142D02*
X144807047Y-98837142D01*
X144807047Y-98837142D02*
X144711809Y-98789523D01*
X144711809Y-98789523D02*
X144664190Y-98741904D01*
X144664190Y-98741904D02*
X144616571Y-98646666D01*
X144616571Y-98646666D02*
X144616571Y-98265714D01*
X144426095Y-99218095D02*
X144426095Y-99694285D01*
X144140380Y-99122857D02*
X145140380Y-99456190D01*
X145140380Y-99456190D02*
X144140380Y-99789523D01*
X144140380Y-100122857D02*
X145140380Y-100122857D01*
X145140380Y-100122857D02*
X144426095Y-100456190D01*
X144426095Y-100456190D02*
X145140380Y-100789523D01*
X145140380Y-100789523D02*
X144140380Y-100789523D01*
X144140380Y-102027619D02*
X145140380Y-102027619D01*
X144664190Y-102027619D02*
X144664190Y-102599047D01*
X144140380Y-102599047D02*
X145140380Y-102599047D01*
X144664190Y-103075238D02*
X144664190Y-103408571D01*
X144140380Y-103551428D02*
X144140380Y-103075238D01*
X144140380Y-103075238D02*
X145140380Y-103075238D01*
X145140380Y-103075238D02*
X145140380Y-103551428D01*
X144426095Y-103932381D02*
X144426095Y-104408571D01*
X144140380Y-103837143D02*
X145140380Y-104170476D01*
X145140380Y-104170476D02*
X144140380Y-104503809D01*
X144140380Y-104837143D02*
X145140380Y-104837143D01*
X145140380Y-104837143D02*
X145140380Y-105075238D01*
X145140380Y-105075238D02*
X145092761Y-105218095D01*
X145092761Y-105218095D02*
X144997523Y-105313333D01*
X144997523Y-105313333D02*
X144902285Y-105360952D01*
X144902285Y-105360952D02*
X144711809Y-105408571D01*
X144711809Y-105408571D02*
X144568952Y-105408571D01*
X144568952Y-105408571D02*
X144378476Y-105360952D01*
X144378476Y-105360952D02*
X144283238Y-105313333D01*
X144283238Y-105313333D02*
X144188000Y-105218095D01*
X144188000Y-105218095D02*
X144140380Y-105075238D01*
X144140380Y-105075238D02*
X144140380Y-104837143D01*
X144664190Y-105837143D02*
X144664190Y-106170476D01*
X144140380Y-106313333D02*
X144140380Y-105837143D01*
X144140380Y-105837143D02*
X145140380Y-105837143D01*
X145140380Y-105837143D02*
X145140380Y-106313333D01*
X144140380Y-107313333D02*
X144616571Y-106980000D01*
X144140380Y-106741905D02*
X145140380Y-106741905D01*
X145140380Y-106741905D02*
X145140380Y-107122857D01*
X145140380Y-107122857D02*
X145092761Y-107218095D01*
X145092761Y-107218095D02*
X145045142Y-107265714D01*
X145045142Y-107265714D02*
X144949904Y-107313333D01*
X144949904Y-107313333D02*
X144807047Y-107313333D01*
X144807047Y-107313333D02*
X144711809Y-107265714D01*
X144711809Y-107265714D02*
X144664190Y-107218095D01*
X144664190Y-107218095D02*
X144616571Y-107122857D01*
X144616571Y-107122857D02*
X144616571Y-106741905D01*
X74084000Y-63944476D02*
X74036380Y-64087333D01*
X74036380Y-64087333D02*
X74036380Y-64325428D01*
X74036380Y-64325428D02*
X74084000Y-64420666D01*
X74084000Y-64420666D02*
X74131619Y-64468285D01*
X74131619Y-64468285D02*
X74226857Y-64515904D01*
X74226857Y-64515904D02*
X74322095Y-64515904D01*
X74322095Y-64515904D02*
X74417333Y-64468285D01*
X74417333Y-64468285D02*
X74464952Y-64420666D01*
X74464952Y-64420666D02*
X74512571Y-64325428D01*
X74512571Y-64325428D02*
X74560190Y-64134952D01*
X74560190Y-64134952D02*
X74607809Y-64039714D01*
X74607809Y-64039714D02*
X74655428Y-63992095D01*
X74655428Y-63992095D02*
X74750666Y-63944476D01*
X74750666Y-63944476D02*
X74845904Y-63944476D01*
X74845904Y-63944476D02*
X74941142Y-63992095D01*
X74941142Y-63992095D02*
X74988761Y-64039714D01*
X74988761Y-64039714D02*
X75036380Y-64134952D01*
X75036380Y-64134952D02*
X75036380Y-64373047D01*
X75036380Y-64373047D02*
X74988761Y-64515904D01*
X74560190Y-64944476D02*
X74560190Y-65277809D01*
X74036380Y-65420666D02*
X74036380Y-64944476D01*
X74036380Y-64944476D02*
X75036380Y-64944476D01*
X75036380Y-64944476D02*
X75036380Y-65420666D01*
X74036380Y-65849238D02*
X75036380Y-65849238D01*
X75036380Y-65849238D02*
X74036380Y-66420666D01*
X74036380Y-66420666D02*
X75036380Y-66420666D01*
X74084000Y-66849238D02*
X74036380Y-66992095D01*
X74036380Y-66992095D02*
X74036380Y-67230190D01*
X74036380Y-67230190D02*
X74084000Y-67325428D01*
X74084000Y-67325428D02*
X74131619Y-67373047D01*
X74131619Y-67373047D02*
X74226857Y-67420666D01*
X74226857Y-67420666D02*
X74322095Y-67420666D01*
X74322095Y-67420666D02*
X74417333Y-67373047D01*
X74417333Y-67373047D02*
X74464952Y-67325428D01*
X74464952Y-67325428D02*
X74512571Y-67230190D01*
X74512571Y-67230190D02*
X74560190Y-67039714D01*
X74560190Y-67039714D02*
X74607809Y-66944476D01*
X74607809Y-66944476D02*
X74655428Y-66896857D01*
X74655428Y-66896857D02*
X74750666Y-66849238D01*
X74750666Y-66849238D02*
X74845904Y-66849238D01*
X74845904Y-66849238D02*
X74941142Y-66896857D01*
X74941142Y-66896857D02*
X74988761Y-66944476D01*
X74988761Y-66944476D02*
X75036380Y-67039714D01*
X75036380Y-67039714D02*
X75036380Y-67277809D01*
X75036380Y-67277809D02*
X74988761Y-67420666D01*
X74560190Y-67849238D02*
X74560190Y-68182571D01*
X74036380Y-68325428D02*
X74036380Y-67849238D01*
X74036380Y-67849238D02*
X75036380Y-67849238D01*
X75036380Y-67849238D02*
X75036380Y-68325428D01*
X74036380Y-69515905D02*
X75036380Y-69515905D01*
X74560190Y-69515905D02*
X74560190Y-70087333D01*
X74036380Y-70087333D02*
X75036380Y-70087333D01*
X74322095Y-70515905D02*
X74322095Y-70992095D01*
X74036380Y-70420667D02*
X75036380Y-70754000D01*
X75036380Y-70754000D02*
X74036380Y-71087333D01*
X75036380Y-71277810D02*
X75036380Y-71849238D01*
X74036380Y-71563524D02*
X75036380Y-71563524D01*
X74036380Y-72944477D02*
X75036380Y-72944477D01*
X74036380Y-73420667D02*
X75036380Y-73420667D01*
X75036380Y-73420667D02*
X74036380Y-73992095D01*
X74036380Y-73992095D02*
X75036380Y-73992095D01*
X75036380Y-74325429D02*
X75036380Y-74896857D01*
X74036380Y-74611143D02*
X75036380Y-74611143D01*
X74560190Y-75230191D02*
X74560190Y-75563524D01*
X74036380Y-75706381D02*
X74036380Y-75230191D01*
X74036380Y-75230191D02*
X75036380Y-75230191D01*
X75036380Y-75230191D02*
X75036380Y-75706381D01*
X74036380Y-76706381D02*
X74512571Y-76373048D01*
X74036380Y-76134953D02*
X75036380Y-76134953D01*
X75036380Y-76134953D02*
X75036380Y-76515905D01*
X75036380Y-76515905D02*
X74988761Y-76611143D01*
X74988761Y-76611143D02*
X74941142Y-76658762D01*
X74941142Y-76658762D02*
X74845904Y-76706381D01*
X74845904Y-76706381D02*
X74703047Y-76706381D01*
X74703047Y-76706381D02*
X74607809Y-76658762D01*
X74607809Y-76658762D02*
X74560190Y-76611143D01*
X74560190Y-76611143D02*
X74512571Y-76515905D01*
X74512571Y-76515905D02*
X74512571Y-76134953D01*
X74560190Y-77468286D02*
X74560190Y-77134953D01*
X74036380Y-77134953D02*
X75036380Y-77134953D01*
X75036380Y-77134953D02*
X75036380Y-77611143D01*
X74322095Y-77944477D02*
X74322095Y-78420667D01*
X74036380Y-77849239D02*
X75036380Y-78182572D01*
X75036380Y-78182572D02*
X74036380Y-78515905D01*
X74131619Y-79420667D02*
X74084000Y-79373048D01*
X74084000Y-79373048D02*
X74036380Y-79230191D01*
X74036380Y-79230191D02*
X74036380Y-79134953D01*
X74036380Y-79134953D02*
X74084000Y-78992096D01*
X74084000Y-78992096D02*
X74179238Y-78896858D01*
X74179238Y-78896858D02*
X74274476Y-78849239D01*
X74274476Y-78849239D02*
X74464952Y-78801620D01*
X74464952Y-78801620D02*
X74607809Y-78801620D01*
X74607809Y-78801620D02*
X74798285Y-78849239D01*
X74798285Y-78849239D02*
X74893523Y-78896858D01*
X74893523Y-78896858D02*
X74988761Y-78992096D01*
X74988761Y-78992096D02*
X75036380Y-79134953D01*
X75036380Y-79134953D02*
X75036380Y-79230191D01*
X75036380Y-79230191D02*
X74988761Y-79373048D01*
X74988761Y-79373048D02*
X74941142Y-79420667D01*
X74560190Y-79849239D02*
X74560190Y-80182572D01*
X74036380Y-80325429D02*
X74036380Y-79849239D01*
X74036380Y-79849239D02*
X75036380Y-79849239D01*
X75036380Y-79849239D02*
X75036380Y-80325429D01*
X81737142Y-113770714D02*
X82237142Y-113770714D01*
X82451428Y-114556428D02*
X81737142Y-114556428D01*
X81737142Y-114556428D02*
X81737142Y-113056428D01*
X81737142Y-113056428D02*
X82451428Y-113056428D01*
X83094285Y-114556428D02*
X83094285Y-113056428D01*
X83094285Y-113056428D02*
X83594285Y-114127857D01*
X83594285Y-114127857D02*
X84094285Y-113056428D01*
X84094285Y-113056428D02*
X84094285Y-114556428D01*
X85308571Y-113770714D02*
X85522857Y-113842142D01*
X85522857Y-113842142D02*
X85594286Y-113913571D01*
X85594286Y-113913571D02*
X85665714Y-114056428D01*
X85665714Y-114056428D02*
X85665714Y-114270714D01*
X85665714Y-114270714D02*
X85594286Y-114413571D01*
X85594286Y-114413571D02*
X85522857Y-114485000D01*
X85522857Y-114485000D02*
X85380000Y-114556428D01*
X85380000Y-114556428D02*
X84808571Y-114556428D01*
X84808571Y-114556428D02*
X84808571Y-113056428D01*
X84808571Y-113056428D02*
X85308571Y-113056428D01*
X85308571Y-113056428D02*
X85451429Y-113127857D01*
X85451429Y-113127857D02*
X85522857Y-113199285D01*
X85522857Y-113199285D02*
X85594286Y-113342142D01*
X85594286Y-113342142D02*
X85594286Y-113485000D01*
X85594286Y-113485000D02*
X85522857Y-113627857D01*
X85522857Y-113627857D02*
X85451429Y-113699285D01*
X85451429Y-113699285D02*
X85308571Y-113770714D01*
X85308571Y-113770714D02*
X84808571Y-113770714D01*
X86308571Y-113770714D02*
X86808571Y-113770714D01*
X87022857Y-114556428D02*
X86308571Y-114556428D01*
X86308571Y-114556428D02*
X86308571Y-113056428D01*
X86308571Y-113056428D02*
X87022857Y-113056428D01*
X87665714Y-114556428D02*
X87665714Y-113056428D01*
X87665714Y-113056428D02*
X88022857Y-113056428D01*
X88022857Y-113056428D02*
X88237143Y-113127857D01*
X88237143Y-113127857D02*
X88380000Y-113270714D01*
X88380000Y-113270714D02*
X88451429Y-113413571D01*
X88451429Y-113413571D02*
X88522857Y-113699285D01*
X88522857Y-113699285D02*
X88522857Y-113913571D01*
X88522857Y-113913571D02*
X88451429Y-114199285D01*
X88451429Y-114199285D02*
X88380000Y-114342142D01*
X88380000Y-114342142D02*
X88237143Y-114485000D01*
X88237143Y-114485000D02*
X88022857Y-114556428D01*
X88022857Y-114556428D02*
X87665714Y-114556428D01*
X89165714Y-114556428D02*
X89165714Y-113056428D01*
X89165714Y-113056428D02*
X89522857Y-113056428D01*
X89522857Y-113056428D02*
X89737143Y-113127857D01*
X89737143Y-113127857D02*
X89880000Y-113270714D01*
X89880000Y-113270714D02*
X89951429Y-113413571D01*
X89951429Y-113413571D02*
X90022857Y-113699285D01*
X90022857Y-113699285D02*
X90022857Y-113913571D01*
X90022857Y-113913571D02*
X89951429Y-114199285D01*
X89951429Y-114199285D02*
X89880000Y-114342142D01*
X89880000Y-114342142D02*
X89737143Y-114485000D01*
X89737143Y-114485000D02*
X89522857Y-114556428D01*
X89522857Y-114556428D02*
X89165714Y-114556428D01*
X90665714Y-113770714D02*
X91165714Y-113770714D01*
X91380000Y-114556428D02*
X90665714Y-114556428D01*
X90665714Y-114556428D02*
X90665714Y-113056428D01*
X90665714Y-113056428D02*
X91380000Y-113056428D01*
X92022857Y-114556428D02*
X92022857Y-113056428D01*
X92022857Y-113056428D02*
X92380000Y-113056428D01*
X92380000Y-113056428D02*
X92594286Y-113127857D01*
X92594286Y-113127857D02*
X92737143Y-113270714D01*
X92737143Y-113270714D02*
X92808572Y-113413571D01*
X92808572Y-113413571D02*
X92880000Y-113699285D01*
X92880000Y-113699285D02*
X92880000Y-113913571D01*
X92880000Y-113913571D02*
X92808572Y-114199285D01*
X92808572Y-114199285D02*
X92737143Y-114342142D01*
X92737143Y-114342142D02*
X92594286Y-114485000D01*
X92594286Y-114485000D02*
X92380000Y-114556428D01*
X92380000Y-114556428D02*
X92022857Y-114556428D01*
X94594286Y-114485000D02*
X94808572Y-114556428D01*
X94808572Y-114556428D02*
X95165714Y-114556428D01*
X95165714Y-114556428D02*
X95308572Y-114485000D01*
X95308572Y-114485000D02*
X95380000Y-114413571D01*
X95380000Y-114413571D02*
X95451429Y-114270714D01*
X95451429Y-114270714D02*
X95451429Y-114127857D01*
X95451429Y-114127857D02*
X95380000Y-113985000D01*
X95380000Y-113985000D02*
X95308572Y-113913571D01*
X95308572Y-113913571D02*
X95165714Y-113842142D01*
X95165714Y-113842142D02*
X94880000Y-113770714D01*
X94880000Y-113770714D02*
X94737143Y-113699285D01*
X94737143Y-113699285D02*
X94665714Y-113627857D01*
X94665714Y-113627857D02*
X94594286Y-113485000D01*
X94594286Y-113485000D02*
X94594286Y-113342142D01*
X94594286Y-113342142D02*
X94665714Y-113199285D01*
X94665714Y-113199285D02*
X94737143Y-113127857D01*
X94737143Y-113127857D02*
X94880000Y-113056428D01*
X94880000Y-113056428D02*
X95237143Y-113056428D01*
X95237143Y-113056428D02*
X95451429Y-113127857D01*
X95880000Y-113056428D02*
X96737143Y-113056428D01*
X96308571Y-114556428D02*
X96308571Y-113056428D01*
X97237142Y-113770714D02*
X97737142Y-113770714D01*
X97951428Y-114556428D02*
X97237142Y-114556428D01*
X97237142Y-114556428D02*
X97237142Y-113056428D01*
X97237142Y-113056428D02*
X97951428Y-113056428D01*
X98594285Y-114556428D02*
X98594285Y-113056428D01*
X98594285Y-113056428D02*
X99165714Y-113056428D01*
X99165714Y-113056428D02*
X99308571Y-113127857D01*
X99308571Y-113127857D02*
X99380000Y-113199285D01*
X99380000Y-113199285D02*
X99451428Y-113342142D01*
X99451428Y-113342142D02*
X99451428Y-113556428D01*
X99451428Y-113556428D02*
X99380000Y-113699285D01*
X99380000Y-113699285D02*
X99308571Y-113770714D01*
X99308571Y-113770714D02*
X99165714Y-113842142D01*
X99165714Y-113842142D02*
X98594285Y-113842142D01*
X102094285Y-114413571D02*
X102022857Y-114485000D01*
X102022857Y-114485000D02*
X101808571Y-114556428D01*
X101808571Y-114556428D02*
X101665714Y-114556428D01*
X101665714Y-114556428D02*
X101451428Y-114485000D01*
X101451428Y-114485000D02*
X101308571Y-114342142D01*
X101308571Y-114342142D02*
X101237142Y-114199285D01*
X101237142Y-114199285D02*
X101165714Y-113913571D01*
X101165714Y-113913571D02*
X101165714Y-113699285D01*
X101165714Y-113699285D02*
X101237142Y-113413571D01*
X101237142Y-113413571D02*
X101308571Y-113270714D01*
X101308571Y-113270714D02*
X101451428Y-113127857D01*
X101451428Y-113127857D02*
X101665714Y-113056428D01*
X101665714Y-113056428D02*
X101808571Y-113056428D01*
X101808571Y-113056428D02*
X102022857Y-113127857D01*
X102022857Y-113127857D02*
X102094285Y-113199285D01*
X103022857Y-113056428D02*
X103308571Y-113056428D01*
X103308571Y-113056428D02*
X103451428Y-113127857D01*
X103451428Y-113127857D02*
X103594285Y-113270714D01*
X103594285Y-113270714D02*
X103665714Y-113556428D01*
X103665714Y-113556428D02*
X103665714Y-114056428D01*
X103665714Y-114056428D02*
X103594285Y-114342142D01*
X103594285Y-114342142D02*
X103451428Y-114485000D01*
X103451428Y-114485000D02*
X103308571Y-114556428D01*
X103308571Y-114556428D02*
X103022857Y-114556428D01*
X103022857Y-114556428D02*
X102880000Y-114485000D01*
X102880000Y-114485000D02*
X102737142Y-114342142D01*
X102737142Y-114342142D02*
X102665714Y-114056428D01*
X102665714Y-114056428D02*
X102665714Y-113556428D01*
X102665714Y-113556428D02*
X102737142Y-113270714D01*
X102737142Y-113270714D02*
X102880000Y-113127857D01*
X102880000Y-113127857D02*
X103022857Y-113056428D01*
X104308571Y-113056428D02*
X104308571Y-114270714D01*
X104308571Y-114270714D02*
X104380000Y-114413571D01*
X104380000Y-114413571D02*
X104451429Y-114485000D01*
X104451429Y-114485000D02*
X104594286Y-114556428D01*
X104594286Y-114556428D02*
X104880000Y-114556428D01*
X104880000Y-114556428D02*
X105022857Y-114485000D01*
X105022857Y-114485000D02*
X105094286Y-114413571D01*
X105094286Y-114413571D02*
X105165714Y-114270714D01*
X105165714Y-114270714D02*
X105165714Y-113056428D01*
X105880000Y-114556428D02*
X105880000Y-113056428D01*
X105880000Y-113056428D02*
X106737143Y-114556428D01*
X106737143Y-114556428D02*
X106737143Y-113056428D01*
X107237144Y-113056428D02*
X108094287Y-113056428D01*
X107665715Y-114556428D02*
X107665715Y-113056428D01*
X108594286Y-113770714D02*
X109094286Y-113770714D01*
X109308572Y-114556428D02*
X108594286Y-114556428D01*
X108594286Y-114556428D02*
X108594286Y-113056428D01*
X108594286Y-113056428D02*
X109308572Y-113056428D01*
X110808572Y-114556428D02*
X110308572Y-113842142D01*
X109951429Y-114556428D02*
X109951429Y-113056428D01*
X109951429Y-113056428D02*
X110522858Y-113056428D01*
X110522858Y-113056428D02*
X110665715Y-113127857D01*
X110665715Y-113127857D02*
X110737144Y-113199285D01*
X110737144Y-113199285D02*
X110808572Y-113342142D01*
X110808572Y-113342142D02*
X110808572Y-113556428D01*
X110808572Y-113556428D02*
X110737144Y-113699285D01*
X110737144Y-113699285D02*
X110665715Y-113770714D01*
X110665715Y-113770714D02*
X110522858Y-113842142D01*
X110522858Y-113842142D02*
X109951429Y-113842142D01*
X81737142Y-116986428D02*
X81737142Y-115486428D01*
X81737142Y-115486428D02*
X82308571Y-115486428D01*
X82308571Y-115486428D02*
X82451428Y-115557857D01*
X82451428Y-115557857D02*
X82522857Y-115629285D01*
X82522857Y-115629285D02*
X82594285Y-115772142D01*
X82594285Y-115772142D02*
X82594285Y-115986428D01*
X82594285Y-115986428D02*
X82522857Y-116129285D01*
X82522857Y-116129285D02*
X82451428Y-116200714D01*
X82451428Y-116200714D02*
X82308571Y-116272142D01*
X82308571Y-116272142D02*
X81737142Y-116272142D01*
X84094285Y-116843571D02*
X84022857Y-116915000D01*
X84022857Y-116915000D02*
X83808571Y-116986428D01*
X83808571Y-116986428D02*
X83665714Y-116986428D01*
X83665714Y-116986428D02*
X83451428Y-116915000D01*
X83451428Y-116915000D02*
X83308571Y-116772142D01*
X83308571Y-116772142D02*
X83237142Y-116629285D01*
X83237142Y-116629285D02*
X83165714Y-116343571D01*
X83165714Y-116343571D02*
X83165714Y-116129285D01*
X83165714Y-116129285D02*
X83237142Y-115843571D01*
X83237142Y-115843571D02*
X83308571Y-115700714D01*
X83308571Y-115700714D02*
X83451428Y-115557857D01*
X83451428Y-115557857D02*
X83665714Y-115486428D01*
X83665714Y-115486428D02*
X83808571Y-115486428D01*
X83808571Y-115486428D02*
X84022857Y-115557857D01*
X84022857Y-115557857D02*
X84094285Y-115629285D01*
X85237142Y-116200714D02*
X85451428Y-116272142D01*
X85451428Y-116272142D02*
X85522857Y-116343571D01*
X85522857Y-116343571D02*
X85594285Y-116486428D01*
X85594285Y-116486428D02*
X85594285Y-116700714D01*
X85594285Y-116700714D02*
X85522857Y-116843571D01*
X85522857Y-116843571D02*
X85451428Y-116915000D01*
X85451428Y-116915000D02*
X85308571Y-116986428D01*
X85308571Y-116986428D02*
X84737142Y-116986428D01*
X84737142Y-116986428D02*
X84737142Y-115486428D01*
X84737142Y-115486428D02*
X85237142Y-115486428D01*
X85237142Y-115486428D02*
X85380000Y-115557857D01*
X85380000Y-115557857D02*
X85451428Y-115629285D01*
X85451428Y-115629285D02*
X85522857Y-115772142D01*
X85522857Y-115772142D02*
X85522857Y-115915000D01*
X85522857Y-115915000D02*
X85451428Y-116057857D01*
X85451428Y-116057857D02*
X85380000Y-116129285D01*
X85380000Y-116129285D02*
X85237142Y-116200714D01*
X85237142Y-116200714D02*
X84737142Y-116200714D01*
X88237142Y-116986428D02*
X87737142Y-116272142D01*
X87379999Y-116986428D02*
X87379999Y-115486428D01*
X87379999Y-115486428D02*
X87951428Y-115486428D01*
X87951428Y-115486428D02*
X88094285Y-115557857D01*
X88094285Y-115557857D02*
X88165714Y-115629285D01*
X88165714Y-115629285D02*
X88237142Y-115772142D01*
X88237142Y-115772142D02*
X88237142Y-115986428D01*
X88237142Y-115986428D02*
X88165714Y-116129285D01*
X88165714Y-116129285D02*
X88094285Y-116200714D01*
X88094285Y-116200714D02*
X87951428Y-116272142D01*
X87951428Y-116272142D02*
X87379999Y-116272142D01*
X88879999Y-116200714D02*
X89379999Y-116200714D01*
X89594285Y-116986428D02*
X88879999Y-116986428D01*
X88879999Y-116986428D02*
X88879999Y-115486428D01*
X88879999Y-115486428D02*
X89594285Y-115486428D01*
X90022857Y-115486428D02*
X90522857Y-116986428D01*
X90522857Y-116986428D02*
X91022857Y-115486428D01*
X91522856Y-116986428D02*
X91522856Y-115486428D01*
X92165714Y-116915000D02*
X92380000Y-116986428D01*
X92380000Y-116986428D02*
X92737142Y-116986428D01*
X92737142Y-116986428D02*
X92880000Y-116915000D01*
X92880000Y-116915000D02*
X92951428Y-116843571D01*
X92951428Y-116843571D02*
X93022857Y-116700714D01*
X93022857Y-116700714D02*
X93022857Y-116557857D01*
X93022857Y-116557857D02*
X92951428Y-116415000D01*
X92951428Y-116415000D02*
X92880000Y-116343571D01*
X92880000Y-116343571D02*
X92737142Y-116272142D01*
X92737142Y-116272142D02*
X92451428Y-116200714D01*
X92451428Y-116200714D02*
X92308571Y-116129285D01*
X92308571Y-116129285D02*
X92237142Y-116057857D01*
X92237142Y-116057857D02*
X92165714Y-115915000D01*
X92165714Y-115915000D02*
X92165714Y-115772142D01*
X92165714Y-115772142D02*
X92237142Y-115629285D01*
X92237142Y-115629285D02*
X92308571Y-115557857D01*
X92308571Y-115557857D02*
X92451428Y-115486428D01*
X92451428Y-115486428D02*
X92808571Y-115486428D01*
X92808571Y-115486428D02*
X93022857Y-115557857D01*
X93665713Y-116986428D02*
X93665713Y-115486428D01*
X94665714Y-115486428D02*
X94951428Y-115486428D01*
X94951428Y-115486428D02*
X95094285Y-115557857D01*
X95094285Y-115557857D02*
X95237142Y-115700714D01*
X95237142Y-115700714D02*
X95308571Y-115986428D01*
X95308571Y-115986428D02*
X95308571Y-116486428D01*
X95308571Y-116486428D02*
X95237142Y-116772142D01*
X95237142Y-116772142D02*
X95094285Y-116915000D01*
X95094285Y-116915000D02*
X94951428Y-116986428D01*
X94951428Y-116986428D02*
X94665714Y-116986428D01*
X94665714Y-116986428D02*
X94522857Y-116915000D01*
X94522857Y-116915000D02*
X94379999Y-116772142D01*
X94379999Y-116772142D02*
X94308571Y-116486428D01*
X94308571Y-116486428D02*
X94308571Y-115986428D01*
X94308571Y-115986428D02*
X94379999Y-115700714D01*
X94379999Y-115700714D02*
X94522857Y-115557857D01*
X94522857Y-115557857D02*
X94665714Y-115486428D01*
X95951428Y-116986428D02*
X95951428Y-115486428D01*
X95951428Y-115486428D02*
X96808571Y-116986428D01*
X96808571Y-116986428D02*
X96808571Y-115486428D01*
X99451429Y-116986428D02*
X98594286Y-116986428D01*
X99022857Y-116986428D02*
X99022857Y-115486428D01*
X99022857Y-115486428D02*
X98880000Y-115700714D01*
X98880000Y-115700714D02*
X98737143Y-115843571D01*
X98737143Y-115843571D02*
X98594286Y-115915000D01*
X81737142Y-119416428D02*
X81737142Y-117916428D01*
X81737142Y-117916428D02*
X82094285Y-117916428D01*
X82094285Y-117916428D02*
X82308571Y-117987857D01*
X82308571Y-117987857D02*
X82451428Y-118130714D01*
X82451428Y-118130714D02*
X82522857Y-118273571D01*
X82522857Y-118273571D02*
X82594285Y-118559285D01*
X82594285Y-118559285D02*
X82594285Y-118773571D01*
X82594285Y-118773571D02*
X82522857Y-119059285D01*
X82522857Y-119059285D02*
X82451428Y-119202142D01*
X82451428Y-119202142D02*
X82308571Y-119345000D01*
X82308571Y-119345000D02*
X82094285Y-119416428D01*
X82094285Y-119416428D02*
X81737142Y-119416428D01*
X83237142Y-118630714D02*
X83737142Y-118630714D01*
X83951428Y-119416428D02*
X83237142Y-119416428D01*
X83237142Y-119416428D02*
X83237142Y-117916428D01*
X83237142Y-117916428D02*
X83951428Y-117916428D01*
X84522857Y-119345000D02*
X84737143Y-119416428D01*
X84737143Y-119416428D02*
X85094285Y-119416428D01*
X85094285Y-119416428D02*
X85237143Y-119345000D01*
X85237143Y-119345000D02*
X85308571Y-119273571D01*
X85308571Y-119273571D02*
X85380000Y-119130714D01*
X85380000Y-119130714D02*
X85380000Y-118987857D01*
X85380000Y-118987857D02*
X85308571Y-118845000D01*
X85308571Y-118845000D02*
X85237143Y-118773571D01*
X85237143Y-118773571D02*
X85094285Y-118702142D01*
X85094285Y-118702142D02*
X84808571Y-118630714D01*
X84808571Y-118630714D02*
X84665714Y-118559285D01*
X84665714Y-118559285D02*
X84594285Y-118487857D01*
X84594285Y-118487857D02*
X84522857Y-118345000D01*
X84522857Y-118345000D02*
X84522857Y-118202142D01*
X84522857Y-118202142D02*
X84594285Y-118059285D01*
X84594285Y-118059285D02*
X84665714Y-117987857D01*
X84665714Y-117987857D02*
X84808571Y-117916428D01*
X84808571Y-117916428D02*
X85165714Y-117916428D01*
X85165714Y-117916428D02*
X85380000Y-117987857D01*
X86022856Y-119416428D02*
X86022856Y-117916428D01*
X87522857Y-117987857D02*
X87380000Y-117916428D01*
X87380000Y-117916428D02*
X87165714Y-117916428D01*
X87165714Y-117916428D02*
X86951428Y-117987857D01*
X86951428Y-117987857D02*
X86808571Y-118130714D01*
X86808571Y-118130714D02*
X86737142Y-118273571D01*
X86737142Y-118273571D02*
X86665714Y-118559285D01*
X86665714Y-118559285D02*
X86665714Y-118773571D01*
X86665714Y-118773571D02*
X86737142Y-119059285D01*
X86737142Y-119059285D02*
X86808571Y-119202142D01*
X86808571Y-119202142D02*
X86951428Y-119345000D01*
X86951428Y-119345000D02*
X87165714Y-119416428D01*
X87165714Y-119416428D02*
X87308571Y-119416428D01*
X87308571Y-119416428D02*
X87522857Y-119345000D01*
X87522857Y-119345000D02*
X87594285Y-119273571D01*
X87594285Y-119273571D02*
X87594285Y-118773571D01*
X87594285Y-118773571D02*
X87308571Y-118773571D01*
X88237142Y-119416428D02*
X88237142Y-117916428D01*
X88237142Y-117916428D02*
X89094285Y-119416428D01*
X89094285Y-119416428D02*
X89094285Y-117916428D01*
X89808571Y-118630714D02*
X90308571Y-118630714D01*
X90522857Y-119416428D02*
X89808571Y-119416428D01*
X89808571Y-119416428D02*
X89808571Y-117916428D01*
X89808571Y-117916428D02*
X90522857Y-117916428D01*
X91165714Y-119416428D02*
X91165714Y-117916428D01*
X91165714Y-117916428D02*
X91522857Y-117916428D01*
X91522857Y-117916428D02*
X91737143Y-117987857D01*
X91737143Y-117987857D02*
X91880000Y-118130714D01*
X91880000Y-118130714D02*
X91951429Y-118273571D01*
X91951429Y-118273571D02*
X92022857Y-118559285D01*
X92022857Y-118559285D02*
X92022857Y-118773571D01*
X92022857Y-118773571D02*
X91951429Y-119059285D01*
X91951429Y-119059285D02*
X91880000Y-119202142D01*
X91880000Y-119202142D02*
X91737143Y-119345000D01*
X91737143Y-119345000D02*
X91522857Y-119416428D01*
X91522857Y-119416428D02*
X91165714Y-119416428D01*
X94308571Y-118630714D02*
X94522857Y-118702142D01*
X94522857Y-118702142D02*
X94594286Y-118773571D01*
X94594286Y-118773571D02*
X94665714Y-118916428D01*
X94665714Y-118916428D02*
X94665714Y-119130714D01*
X94665714Y-119130714D02*
X94594286Y-119273571D01*
X94594286Y-119273571D02*
X94522857Y-119345000D01*
X94522857Y-119345000D02*
X94380000Y-119416428D01*
X94380000Y-119416428D02*
X93808571Y-119416428D01*
X93808571Y-119416428D02*
X93808571Y-117916428D01*
X93808571Y-117916428D02*
X94308571Y-117916428D01*
X94308571Y-117916428D02*
X94451429Y-117987857D01*
X94451429Y-117987857D02*
X94522857Y-118059285D01*
X94522857Y-118059285D02*
X94594286Y-118202142D01*
X94594286Y-118202142D02*
X94594286Y-118345000D01*
X94594286Y-118345000D02*
X94522857Y-118487857D01*
X94522857Y-118487857D02*
X94451429Y-118559285D01*
X94451429Y-118559285D02*
X94308571Y-118630714D01*
X94308571Y-118630714D02*
X93808571Y-118630714D01*
X95594286Y-118702142D02*
X95594286Y-119416428D01*
X95094286Y-117916428D02*
X95594286Y-118702142D01*
X95594286Y-118702142D02*
X96094286Y-117916428D01*
X97594285Y-117916428D02*
X98594285Y-117916428D01*
X98594285Y-117916428D02*
X97594285Y-119416428D01*
X97594285Y-119416428D02*
X98594285Y-119416428D01*
X99165713Y-119416428D02*
X99165713Y-117916428D01*
X99165713Y-117916428D02*
X99665713Y-118987857D01*
X99665713Y-118987857D02*
X100165713Y-117916428D01*
X100165713Y-117916428D02*
X100165713Y-119416428D01*
X100951428Y-119345000D02*
X100951428Y-119416428D01*
X100951428Y-119416428D02*
X100879999Y-119559285D01*
X100879999Y-119559285D02*
X100808571Y-119630714D01*
X102665714Y-118059285D02*
X102737142Y-117987857D01*
X102737142Y-117987857D02*
X102880000Y-117916428D01*
X102880000Y-117916428D02*
X103237142Y-117916428D01*
X103237142Y-117916428D02*
X103380000Y-117987857D01*
X103380000Y-117987857D02*
X103451428Y-118059285D01*
X103451428Y-118059285D02*
X103522857Y-118202142D01*
X103522857Y-118202142D02*
X103522857Y-118345000D01*
X103522857Y-118345000D02*
X103451428Y-118559285D01*
X103451428Y-118559285D02*
X102594285Y-119416428D01*
X102594285Y-119416428D02*
X103522857Y-119416428D01*
X104451428Y-117916428D02*
X104594285Y-117916428D01*
X104594285Y-117916428D02*
X104737142Y-117987857D01*
X104737142Y-117987857D02*
X104808571Y-118059285D01*
X104808571Y-118059285D02*
X104879999Y-118202142D01*
X104879999Y-118202142D02*
X104951428Y-118487857D01*
X104951428Y-118487857D02*
X104951428Y-118845000D01*
X104951428Y-118845000D02*
X104879999Y-119130714D01*
X104879999Y-119130714D02*
X104808571Y-119273571D01*
X104808571Y-119273571D02*
X104737142Y-119345000D01*
X104737142Y-119345000D02*
X104594285Y-119416428D01*
X104594285Y-119416428D02*
X104451428Y-119416428D01*
X104451428Y-119416428D02*
X104308571Y-119345000D01*
X104308571Y-119345000D02*
X104237142Y-119273571D01*
X104237142Y-119273571D02*
X104165713Y-119130714D01*
X104165713Y-119130714D02*
X104094285Y-118845000D01*
X104094285Y-118845000D02*
X104094285Y-118487857D01*
X104094285Y-118487857D02*
X104165713Y-118202142D01*
X104165713Y-118202142D02*
X104237142Y-118059285D01*
X104237142Y-118059285D02*
X104308571Y-117987857D01*
X104308571Y-117987857D02*
X104451428Y-117916428D01*
X105522856Y-118059285D02*
X105594284Y-117987857D01*
X105594284Y-117987857D02*
X105737142Y-117916428D01*
X105737142Y-117916428D02*
X106094284Y-117916428D01*
X106094284Y-117916428D02*
X106237142Y-117987857D01*
X106237142Y-117987857D02*
X106308570Y-118059285D01*
X106308570Y-118059285D02*
X106379999Y-118202142D01*
X106379999Y-118202142D02*
X106379999Y-118345000D01*
X106379999Y-118345000D02*
X106308570Y-118559285D01*
X106308570Y-118559285D02*
X105451427Y-119416428D01*
X105451427Y-119416428D02*
X106379999Y-119416428D01*
X106879998Y-117916428D02*
X107808570Y-117916428D01*
X107808570Y-117916428D02*
X107308570Y-118487857D01*
X107308570Y-118487857D02*
X107522855Y-118487857D01*
X107522855Y-118487857D02*
X107665713Y-118559285D01*
X107665713Y-118559285D02*
X107737141Y-118630714D01*
X107737141Y-118630714D02*
X107808570Y-118773571D01*
X107808570Y-118773571D02*
X107808570Y-119130714D01*
X107808570Y-119130714D02*
X107737141Y-119273571D01*
X107737141Y-119273571D02*
X107665713Y-119345000D01*
X107665713Y-119345000D02*
X107522855Y-119416428D01*
X107522855Y-119416428D02*
X107094284Y-119416428D01*
X107094284Y-119416428D02*
X106951427Y-119345000D01*
X106951427Y-119345000D02*
X106879998Y-119273571D01*
X146680380Y-40131904D02*
X146680380Y-39560476D01*
X146680380Y-39846190D02*
X147680380Y-39846190D01*
X147680380Y-39846190D02*
X147537523Y-39750952D01*
X147537523Y-39750952D02*
X147442285Y-39655714D01*
X147442285Y-39655714D02*
X147394666Y-39560476D01*
X147251809Y-40703333D02*
X147299428Y-40608095D01*
X147299428Y-40608095D02*
X147347047Y-40560476D01*
X147347047Y-40560476D02*
X147442285Y-40512857D01*
X147442285Y-40512857D02*
X147489904Y-40512857D01*
X147489904Y-40512857D02*
X147585142Y-40560476D01*
X147585142Y-40560476D02*
X147632761Y-40608095D01*
X147632761Y-40608095D02*
X147680380Y-40703333D01*
X147680380Y-40703333D02*
X147680380Y-40893809D01*
X147680380Y-40893809D02*
X147632761Y-40989047D01*
X147632761Y-40989047D02*
X147585142Y-41036666D01*
X147585142Y-41036666D02*
X147489904Y-41084285D01*
X147489904Y-41084285D02*
X147442285Y-41084285D01*
X147442285Y-41084285D02*
X147347047Y-41036666D01*
X147347047Y-41036666D02*
X147299428Y-40989047D01*
X147299428Y-40989047D02*
X147251809Y-40893809D01*
X147251809Y-40893809D02*
X147251809Y-40703333D01*
X147251809Y-40703333D02*
X147204190Y-40608095D01*
X147204190Y-40608095D02*
X147156571Y-40560476D01*
X147156571Y-40560476D02*
X147061333Y-40512857D01*
X147061333Y-40512857D02*
X146870857Y-40512857D01*
X146870857Y-40512857D02*
X146775619Y-40560476D01*
X146775619Y-40560476D02*
X146728000Y-40608095D01*
X146728000Y-40608095D02*
X146680380Y-40703333D01*
X146680380Y-40703333D02*
X146680380Y-40893809D01*
X146680380Y-40893809D02*
X146728000Y-40989047D01*
X146728000Y-40989047D02*
X146775619Y-41036666D01*
X146775619Y-41036666D02*
X146870857Y-41084285D01*
X146870857Y-41084285D02*
X147061333Y-41084285D01*
X147061333Y-41084285D02*
X147156571Y-41036666D01*
X147156571Y-41036666D02*
X147204190Y-40989047D01*
X147204190Y-40989047D02*
X147251809Y-40893809D01*
X147680380Y-41941428D02*
X147680380Y-41750952D01*
X147680380Y-41750952D02*
X147632761Y-41655714D01*
X147632761Y-41655714D02*
X147585142Y-41608095D01*
X147585142Y-41608095D02*
X147442285Y-41512857D01*
X147442285Y-41512857D02*
X147251809Y-41465238D01*
X147251809Y-41465238D02*
X146870857Y-41465238D01*
X146870857Y-41465238D02*
X146775619Y-41512857D01*
X146775619Y-41512857D02*
X146728000Y-41560476D01*
X146728000Y-41560476D02*
X146680380Y-41655714D01*
X146680380Y-41655714D02*
X146680380Y-41846190D01*
X146680380Y-41846190D02*
X146728000Y-41941428D01*
X146728000Y-41941428D02*
X146775619Y-41989047D01*
X146775619Y-41989047D02*
X146870857Y-42036666D01*
X146870857Y-42036666D02*
X147108952Y-42036666D01*
X147108952Y-42036666D02*
X147204190Y-41989047D01*
X147204190Y-41989047D02*
X147251809Y-41941428D01*
X147251809Y-41941428D02*
X147299428Y-41846190D01*
X147299428Y-41846190D02*
X147299428Y-41655714D01*
X147299428Y-41655714D02*
X147251809Y-41560476D01*
X147251809Y-41560476D02*
X147204190Y-41512857D01*
X147204190Y-41512857D02*
X147108952Y-41465238D01*
X147680380Y-42941428D02*
X147680380Y-42465238D01*
X147680380Y-42465238D02*
X147204190Y-42417619D01*
X147204190Y-42417619D02*
X147251809Y-42465238D01*
X147251809Y-42465238D02*
X147299428Y-42560476D01*
X147299428Y-42560476D02*
X147299428Y-42798571D01*
X147299428Y-42798571D02*
X147251809Y-42893809D01*
X147251809Y-42893809D02*
X147204190Y-42941428D01*
X147204190Y-42941428D02*
X147108952Y-42989047D01*
X147108952Y-42989047D02*
X146870857Y-42989047D01*
X146870857Y-42989047D02*
X146775619Y-42941428D01*
X146775619Y-42941428D02*
X146728000Y-42893809D01*
X146728000Y-42893809D02*
X146680380Y-42798571D01*
X146680380Y-42798571D02*
X146680380Y-42560476D01*
X146680380Y-42560476D02*
X146728000Y-42465238D01*
X146728000Y-42465238D02*
X146775619Y-42417619D01*
X147680380Y-43608095D02*
X147680380Y-43703333D01*
X147680380Y-43703333D02*
X147632761Y-43798571D01*
X147632761Y-43798571D02*
X147585142Y-43846190D01*
X147585142Y-43846190D02*
X147489904Y-43893809D01*
X147489904Y-43893809D02*
X147299428Y-43941428D01*
X147299428Y-43941428D02*
X147061333Y-43941428D01*
X147061333Y-43941428D02*
X146870857Y-43893809D01*
X146870857Y-43893809D02*
X146775619Y-43846190D01*
X146775619Y-43846190D02*
X146728000Y-43798571D01*
X146728000Y-43798571D02*
X146680380Y-43703333D01*
X146680380Y-43703333D02*
X146680380Y-43608095D01*
X146680380Y-43608095D02*
X146728000Y-43512857D01*
X146728000Y-43512857D02*
X146775619Y-43465238D01*
X146775619Y-43465238D02*
X146870857Y-43417619D01*
X146870857Y-43417619D02*
X147061333Y-43370000D01*
X147061333Y-43370000D02*
X147299428Y-43370000D01*
X147299428Y-43370000D02*
X147489904Y-43417619D01*
X147489904Y-43417619D02*
X147585142Y-43465238D01*
X147585142Y-43465238D02*
X147632761Y-43512857D01*
X147632761Y-43512857D02*
X147680380Y-43608095D01*
X146680380Y-45274762D02*
X146728000Y-45179524D01*
X146728000Y-45179524D02*
X146775619Y-45131905D01*
X146775619Y-45131905D02*
X146870857Y-45084286D01*
X146870857Y-45084286D02*
X147156571Y-45084286D01*
X147156571Y-45084286D02*
X147251809Y-45131905D01*
X147251809Y-45131905D02*
X147299428Y-45179524D01*
X147299428Y-45179524D02*
X147347047Y-45274762D01*
X147347047Y-45274762D02*
X147347047Y-45417619D01*
X147347047Y-45417619D02*
X147299428Y-45512857D01*
X147299428Y-45512857D02*
X147251809Y-45560476D01*
X147251809Y-45560476D02*
X147156571Y-45608095D01*
X147156571Y-45608095D02*
X146870857Y-45608095D01*
X146870857Y-45608095D02*
X146775619Y-45560476D01*
X146775619Y-45560476D02*
X146728000Y-45512857D01*
X146728000Y-45512857D02*
X146680380Y-45417619D01*
X146680380Y-45417619D02*
X146680380Y-45274762D01*
X147347047Y-46036667D02*
X146680380Y-46036667D01*
X147251809Y-46036667D02*
X147299428Y-46084286D01*
X147299428Y-46084286D02*
X147347047Y-46179524D01*
X147347047Y-46179524D02*
X147347047Y-46322381D01*
X147347047Y-46322381D02*
X147299428Y-46417619D01*
X147299428Y-46417619D02*
X147204190Y-46465238D01*
X147204190Y-46465238D02*
X146680380Y-46465238D01*
X146680380Y-47084286D02*
X146728000Y-46989048D01*
X146728000Y-46989048D02*
X146823238Y-46941429D01*
X146823238Y-46941429D02*
X147680380Y-46941429D01*
X147347047Y-47370001D02*
X146680380Y-47608096D01*
X147347047Y-47846191D02*
X146680380Y-47608096D01*
X146680380Y-47608096D02*
X146442285Y-47512858D01*
X146442285Y-47512858D02*
X146394666Y-47465239D01*
X146394666Y-47465239D02*
X146347047Y-47370001D01*
X66278095Y-33151619D02*
X66278095Y-32151619D01*
X66754285Y-33151619D02*
X66754285Y-32151619D01*
X66754285Y-32151619D02*
X67325713Y-33151619D01*
X67325713Y-33151619D02*
X67325713Y-32151619D01*
X67801904Y-33151619D02*
X67801904Y-32151619D01*
X67801904Y-32151619D02*
X68182856Y-32151619D01*
X68182856Y-32151619D02*
X68278094Y-32199238D01*
X68278094Y-32199238D02*
X68325713Y-32246857D01*
X68325713Y-32246857D02*
X68373332Y-32342095D01*
X68373332Y-32342095D02*
X68373332Y-32484952D01*
X68373332Y-32484952D02*
X68325713Y-32580190D01*
X68325713Y-32580190D02*
X68278094Y-32627809D01*
X68278094Y-32627809D02*
X68182856Y-32675428D01*
X68182856Y-32675428D02*
X67801904Y-32675428D01*
X68801904Y-32151619D02*
X68801904Y-32961142D01*
X68801904Y-32961142D02*
X68849523Y-33056380D01*
X68849523Y-33056380D02*
X68897142Y-33104000D01*
X68897142Y-33104000D02*
X68992380Y-33151619D01*
X68992380Y-33151619D02*
X69182856Y-33151619D01*
X69182856Y-33151619D02*
X69278094Y-33104000D01*
X69278094Y-33104000D02*
X69325713Y-33056380D01*
X69325713Y-33056380D02*
X69373332Y-32961142D01*
X69373332Y-32961142D02*
X69373332Y-32151619D01*
X69706666Y-32151619D02*
X70278094Y-32151619D01*
X69992380Y-33151619D02*
X69992380Y-32151619D01*
X70611428Y-33056380D02*
X70659047Y-33104000D01*
X70659047Y-33104000D02*
X70611428Y-33151619D01*
X70611428Y-33151619D02*
X70563809Y-33104000D01*
X70563809Y-33104000D02*
X70611428Y-33056380D01*
X70611428Y-33056380D02*
X70611428Y-33151619D01*
X70611428Y-32532571D02*
X70659047Y-32580190D01*
X70659047Y-32580190D02*
X70611428Y-32627809D01*
X70611428Y-32627809D02*
X70563809Y-32580190D01*
X70563809Y-32580190D02*
X70611428Y-32532571D01*
X70611428Y-32532571D02*
X70611428Y-32627809D01*
X71992380Y-32580190D02*
X71897142Y-32532571D01*
X71897142Y-32532571D02*
X71849523Y-32484952D01*
X71849523Y-32484952D02*
X71801904Y-32389714D01*
X71801904Y-32389714D02*
X71801904Y-32342095D01*
X71801904Y-32342095D02*
X71849523Y-32246857D01*
X71849523Y-32246857D02*
X71897142Y-32199238D01*
X71897142Y-32199238D02*
X71992380Y-32151619D01*
X71992380Y-32151619D02*
X72182856Y-32151619D01*
X72182856Y-32151619D02*
X72278094Y-32199238D01*
X72278094Y-32199238D02*
X72325713Y-32246857D01*
X72325713Y-32246857D02*
X72373332Y-32342095D01*
X72373332Y-32342095D02*
X72373332Y-32389714D01*
X72373332Y-32389714D02*
X72325713Y-32484952D01*
X72325713Y-32484952D02*
X72278094Y-32532571D01*
X72278094Y-32532571D02*
X72182856Y-32580190D01*
X72182856Y-32580190D02*
X71992380Y-32580190D01*
X71992380Y-32580190D02*
X71897142Y-32627809D01*
X71897142Y-32627809D02*
X71849523Y-32675428D01*
X71849523Y-32675428D02*
X71801904Y-32770666D01*
X71801904Y-32770666D02*
X71801904Y-32961142D01*
X71801904Y-32961142D02*
X71849523Y-33056380D01*
X71849523Y-33056380D02*
X71897142Y-33104000D01*
X71897142Y-33104000D02*
X71992380Y-33151619D01*
X71992380Y-33151619D02*
X72182856Y-33151619D01*
X72182856Y-33151619D02*
X72278094Y-33104000D01*
X72278094Y-33104000D02*
X72325713Y-33056380D01*
X72325713Y-33056380D02*
X72373332Y-32961142D01*
X72373332Y-32961142D02*
X72373332Y-32770666D01*
X72373332Y-32770666D02*
X72325713Y-32675428D01*
X72325713Y-32675428D02*
X72278094Y-32627809D01*
X72278094Y-32627809D02*
X72182856Y-32580190D01*
X72801904Y-32770666D02*
X73563809Y-32770666D01*
X73944761Y-32151619D02*
X74563808Y-32151619D01*
X74563808Y-32151619D02*
X74230475Y-32532571D01*
X74230475Y-32532571D02*
X74373332Y-32532571D01*
X74373332Y-32532571D02*
X74468570Y-32580190D01*
X74468570Y-32580190D02*
X74516189Y-32627809D01*
X74516189Y-32627809D02*
X74563808Y-32723047D01*
X74563808Y-32723047D02*
X74563808Y-32961142D01*
X74563808Y-32961142D02*
X74516189Y-33056380D01*
X74516189Y-33056380D02*
X74468570Y-33104000D01*
X74468570Y-33104000D02*
X74373332Y-33151619D01*
X74373332Y-33151619D02*
X74087618Y-33151619D01*
X74087618Y-33151619D02*
X73992380Y-33104000D01*
X73992380Y-33104000D02*
X73944761Y-33056380D01*
X75420951Y-32151619D02*
X75230475Y-32151619D01*
X75230475Y-32151619D02*
X75135237Y-32199238D01*
X75135237Y-32199238D02*
X75087618Y-32246857D01*
X75087618Y-32246857D02*
X74992380Y-32389714D01*
X74992380Y-32389714D02*
X74944761Y-32580190D01*
X74944761Y-32580190D02*
X74944761Y-32961142D01*
X74944761Y-32961142D02*
X74992380Y-33056380D01*
X74992380Y-33056380D02*
X75039999Y-33104000D01*
X75039999Y-33104000D02*
X75135237Y-33151619D01*
X75135237Y-33151619D02*
X75325713Y-33151619D01*
X75325713Y-33151619D02*
X75420951Y-33104000D01*
X75420951Y-33104000D02*
X75468570Y-33056380D01*
X75468570Y-33056380D02*
X75516189Y-32961142D01*
X75516189Y-32961142D02*
X75516189Y-32723047D01*
X75516189Y-32723047D02*
X75468570Y-32627809D01*
X75468570Y-32627809D02*
X75420951Y-32580190D01*
X75420951Y-32580190D02*
X75325713Y-32532571D01*
X75325713Y-32532571D02*
X75135237Y-32532571D01*
X75135237Y-32532571D02*
X75039999Y-32580190D01*
X75039999Y-32580190D02*
X74992380Y-32627809D01*
X74992380Y-32627809D02*
X74944761Y-32723047D01*
X76563809Y-32151619D02*
X76897142Y-33151619D01*
X76897142Y-33151619D02*
X77230475Y-32151619D01*
X77563809Y-33151619D02*
X77563809Y-32151619D01*
X77563809Y-32151619D02*
X77801904Y-32151619D01*
X77801904Y-32151619D02*
X77944761Y-32199238D01*
X77944761Y-32199238D02*
X78039999Y-32294476D01*
X78039999Y-32294476D02*
X78087618Y-32389714D01*
X78087618Y-32389714D02*
X78135237Y-32580190D01*
X78135237Y-32580190D02*
X78135237Y-32723047D01*
X78135237Y-32723047D02*
X78087618Y-32913523D01*
X78087618Y-32913523D02*
X78039999Y-33008761D01*
X78039999Y-33008761D02*
X77944761Y-33104000D01*
X77944761Y-33104000D02*
X77801904Y-33151619D01*
X77801904Y-33151619D02*
X77563809Y-33151619D01*
X79135237Y-33056380D02*
X79087618Y-33104000D01*
X79087618Y-33104000D02*
X78944761Y-33151619D01*
X78944761Y-33151619D02*
X78849523Y-33151619D01*
X78849523Y-33151619D02*
X78706666Y-33104000D01*
X78706666Y-33104000D02*
X78611428Y-33008761D01*
X78611428Y-33008761D02*
X78563809Y-32913523D01*
X78563809Y-32913523D02*
X78516190Y-32723047D01*
X78516190Y-32723047D02*
X78516190Y-32580190D01*
X78516190Y-32580190D02*
X78563809Y-32389714D01*
X78563809Y-32389714D02*
X78611428Y-32294476D01*
X78611428Y-32294476D02*
X78706666Y-32199238D01*
X78706666Y-32199238D02*
X78849523Y-32151619D01*
X78849523Y-32151619D02*
X78944761Y-32151619D01*
X78944761Y-32151619D02*
X79087618Y-32199238D01*
X79087618Y-32199238D02*
X79135237Y-32246857D01*
X123428095Y-20324666D02*
X124190000Y-20324666D01*
X123809047Y-20705619D02*
X123809047Y-19943714D01*
%TO.C,D2*%
X110767905Y-16718619D02*
X110767905Y-15718619D01*
X110767905Y-15718619D02*
X111006000Y-15718619D01*
X111006000Y-15718619D02*
X111148857Y-15766238D01*
X111148857Y-15766238D02*
X111244095Y-15861476D01*
X111244095Y-15861476D02*
X111291714Y-15956714D01*
X111291714Y-15956714D02*
X111339333Y-16147190D01*
X111339333Y-16147190D02*
X111339333Y-16290047D01*
X111339333Y-16290047D02*
X111291714Y-16480523D01*
X111291714Y-16480523D02*
X111244095Y-16575761D01*
X111244095Y-16575761D02*
X111148857Y-16671000D01*
X111148857Y-16671000D02*
X111006000Y-16718619D01*
X111006000Y-16718619D02*
X110767905Y-16718619D01*
X111720286Y-15813857D02*
X111767905Y-15766238D01*
X111767905Y-15766238D02*
X111863143Y-15718619D01*
X111863143Y-15718619D02*
X112101238Y-15718619D01*
X112101238Y-15718619D02*
X112196476Y-15766238D01*
X112196476Y-15766238D02*
X112244095Y-15813857D01*
X112244095Y-15813857D02*
X112291714Y-15909095D01*
X112291714Y-15909095D02*
X112291714Y-16004333D01*
X112291714Y-16004333D02*
X112244095Y-16147190D01*
X112244095Y-16147190D02*
X111672667Y-16718619D01*
X111672667Y-16718619D02*
X112291714Y-16718619D01*
%TO.C,D1*%
X116101905Y-16718619D02*
X116101905Y-15718619D01*
X116101905Y-15718619D02*
X116340000Y-15718619D01*
X116340000Y-15718619D02*
X116482857Y-15766238D01*
X116482857Y-15766238D02*
X116578095Y-15861476D01*
X116578095Y-15861476D02*
X116625714Y-15956714D01*
X116625714Y-15956714D02*
X116673333Y-16147190D01*
X116673333Y-16147190D02*
X116673333Y-16290047D01*
X116673333Y-16290047D02*
X116625714Y-16480523D01*
X116625714Y-16480523D02*
X116578095Y-16575761D01*
X116578095Y-16575761D02*
X116482857Y-16671000D01*
X116482857Y-16671000D02*
X116340000Y-16718619D01*
X116340000Y-16718619D02*
X116101905Y-16718619D01*
X117625714Y-16718619D02*
X117054286Y-16718619D01*
X117340000Y-16718619D02*
X117340000Y-15718619D01*
X117340000Y-15718619D02*
X117244762Y-15861476D01*
X117244762Y-15861476D02*
X117149524Y-15956714D01*
X117149524Y-15956714D02*
X117054286Y-16004333D01*
%TO.C,D4*%
X147089905Y-60406619D02*
X147089905Y-59406619D01*
X147089905Y-59406619D02*
X147328000Y-59406619D01*
X147328000Y-59406619D02*
X147470857Y-59454238D01*
X147470857Y-59454238D02*
X147566095Y-59549476D01*
X147566095Y-59549476D02*
X147613714Y-59644714D01*
X147613714Y-59644714D02*
X147661333Y-59835190D01*
X147661333Y-59835190D02*
X147661333Y-59978047D01*
X147661333Y-59978047D02*
X147613714Y-60168523D01*
X147613714Y-60168523D02*
X147566095Y-60263761D01*
X147566095Y-60263761D02*
X147470857Y-60359000D01*
X147470857Y-60359000D02*
X147328000Y-60406619D01*
X147328000Y-60406619D02*
X147089905Y-60406619D01*
X148518476Y-59739952D02*
X148518476Y-60406619D01*
X148280381Y-59359000D02*
X148042286Y-60073285D01*
X148042286Y-60073285D02*
X148661333Y-60073285D01*
%TO.C,U1*%
X119888095Y-95728619D02*
X119888095Y-96538142D01*
X119888095Y-96538142D02*
X119935714Y-96633380D01*
X119935714Y-96633380D02*
X119983333Y-96681000D01*
X119983333Y-96681000D02*
X120078571Y-96728619D01*
X120078571Y-96728619D02*
X120269047Y-96728619D01*
X120269047Y-96728619D02*
X120364285Y-96681000D01*
X120364285Y-96681000D02*
X120411904Y-96633380D01*
X120411904Y-96633380D02*
X120459523Y-96538142D01*
X120459523Y-96538142D02*
X120459523Y-95728619D01*
X121459523Y-96728619D02*
X120888095Y-96728619D01*
X121173809Y-96728619D02*
X121173809Y-95728619D01*
X121173809Y-95728619D02*
X121078571Y-95871476D01*
X121078571Y-95871476D02*
X120983333Y-95966714D01*
X120983333Y-95966714D02*
X120888095Y-96014333D01*
%TO.C,X1*%
X89437380Y-89360476D02*
X88437380Y-90027142D01*
X89437380Y-90027142D02*
X88437380Y-89360476D01*
X88437380Y-90931904D02*
X88437380Y-90360476D01*
X88437380Y-90646190D02*
X89437380Y-90646190D01*
X89437380Y-90646190D02*
X89294523Y-90550952D01*
X89294523Y-90550952D02*
X89199285Y-90455714D01*
X89199285Y-90455714D02*
X89151666Y-90360476D01*
%TO.C,R3*%
X118190619Y-26836666D02*
X117714428Y-27169999D01*
X118190619Y-27408094D02*
X117190619Y-27408094D01*
X117190619Y-27408094D02*
X117190619Y-27027142D01*
X117190619Y-27027142D02*
X117238238Y-26931904D01*
X117238238Y-26931904D02*
X117285857Y-26884285D01*
X117285857Y-26884285D02*
X117381095Y-26836666D01*
X117381095Y-26836666D02*
X117523952Y-26836666D01*
X117523952Y-26836666D02*
X117619190Y-26884285D01*
X117619190Y-26884285D02*
X117666809Y-26931904D01*
X117666809Y-26931904D02*
X117714428Y-27027142D01*
X117714428Y-27027142D02*
X117714428Y-27408094D01*
X117190619Y-26503332D02*
X117190619Y-25884285D01*
X117190619Y-25884285D02*
X117571571Y-26217618D01*
X117571571Y-26217618D02*
X117571571Y-26074761D01*
X117571571Y-26074761D02*
X117619190Y-25979523D01*
X117619190Y-25979523D02*
X117666809Y-25931904D01*
X117666809Y-25931904D02*
X117762047Y-25884285D01*
X117762047Y-25884285D02*
X118000142Y-25884285D01*
X118000142Y-25884285D02*
X118095380Y-25931904D01*
X118095380Y-25931904D02*
X118143000Y-25979523D01*
X118143000Y-25979523D02*
X118190619Y-26074761D01*
X118190619Y-26074761D02*
X118190619Y-26360475D01*
X118190619Y-26360475D02*
X118143000Y-26455713D01*
X118143000Y-26455713D02*
X118095380Y-26503332D01*
%TO.C,C2*%
X97623333Y-95363380D02*
X97575714Y-95411000D01*
X97575714Y-95411000D02*
X97432857Y-95458619D01*
X97432857Y-95458619D02*
X97337619Y-95458619D01*
X97337619Y-95458619D02*
X97194762Y-95411000D01*
X97194762Y-95411000D02*
X97099524Y-95315761D01*
X97099524Y-95315761D02*
X97051905Y-95220523D01*
X97051905Y-95220523D02*
X97004286Y-95030047D01*
X97004286Y-95030047D02*
X97004286Y-94887190D01*
X97004286Y-94887190D02*
X97051905Y-94696714D01*
X97051905Y-94696714D02*
X97099524Y-94601476D01*
X97099524Y-94601476D02*
X97194762Y-94506238D01*
X97194762Y-94506238D02*
X97337619Y-94458619D01*
X97337619Y-94458619D02*
X97432857Y-94458619D01*
X97432857Y-94458619D02*
X97575714Y-94506238D01*
X97575714Y-94506238D02*
X97623333Y-94553857D01*
X98004286Y-94553857D02*
X98051905Y-94506238D01*
X98051905Y-94506238D02*
X98147143Y-94458619D01*
X98147143Y-94458619D02*
X98385238Y-94458619D01*
X98385238Y-94458619D02*
X98480476Y-94506238D01*
X98480476Y-94506238D02*
X98528095Y-94553857D01*
X98528095Y-94553857D02*
X98575714Y-94649095D01*
X98575714Y-94649095D02*
X98575714Y-94744333D01*
X98575714Y-94744333D02*
X98528095Y-94887190D01*
X98528095Y-94887190D02*
X97956667Y-95458619D01*
X97956667Y-95458619D02*
X98575714Y-95458619D01*
%TO.C,C7*%
X88711833Y-30437380D02*
X88664214Y-30485000D01*
X88664214Y-30485000D02*
X88521357Y-30532619D01*
X88521357Y-30532619D02*
X88426119Y-30532619D01*
X88426119Y-30532619D02*
X88283262Y-30485000D01*
X88283262Y-30485000D02*
X88188024Y-30389761D01*
X88188024Y-30389761D02*
X88140405Y-30294523D01*
X88140405Y-30294523D02*
X88092786Y-30104047D01*
X88092786Y-30104047D02*
X88092786Y-29961190D01*
X88092786Y-29961190D02*
X88140405Y-29770714D01*
X88140405Y-29770714D02*
X88188024Y-29675476D01*
X88188024Y-29675476D02*
X88283262Y-29580238D01*
X88283262Y-29580238D02*
X88426119Y-29532619D01*
X88426119Y-29532619D02*
X88521357Y-29532619D01*
X88521357Y-29532619D02*
X88664214Y-29580238D01*
X88664214Y-29580238D02*
X88711833Y-29627857D01*
X89045167Y-29532619D02*
X89711833Y-29532619D01*
X89711833Y-29532619D02*
X89283262Y-30532619D01*
%TO.C,C3*%
X89677380Y-69000666D02*
X89725000Y-69048285D01*
X89725000Y-69048285D02*
X89772619Y-69191142D01*
X89772619Y-69191142D02*
X89772619Y-69286380D01*
X89772619Y-69286380D02*
X89725000Y-69429237D01*
X89725000Y-69429237D02*
X89629761Y-69524475D01*
X89629761Y-69524475D02*
X89534523Y-69572094D01*
X89534523Y-69572094D02*
X89344047Y-69619713D01*
X89344047Y-69619713D02*
X89201190Y-69619713D01*
X89201190Y-69619713D02*
X89010714Y-69572094D01*
X89010714Y-69572094D02*
X88915476Y-69524475D01*
X88915476Y-69524475D02*
X88820238Y-69429237D01*
X88820238Y-69429237D02*
X88772619Y-69286380D01*
X88772619Y-69286380D02*
X88772619Y-69191142D01*
X88772619Y-69191142D02*
X88820238Y-69048285D01*
X88820238Y-69048285D02*
X88867857Y-69000666D01*
X88772619Y-68667332D02*
X88772619Y-68048285D01*
X88772619Y-68048285D02*
X89153571Y-68381618D01*
X89153571Y-68381618D02*
X89153571Y-68238761D01*
X89153571Y-68238761D02*
X89201190Y-68143523D01*
X89201190Y-68143523D02*
X89248809Y-68095904D01*
X89248809Y-68095904D02*
X89344047Y-68048285D01*
X89344047Y-68048285D02*
X89582142Y-68048285D01*
X89582142Y-68048285D02*
X89677380Y-68095904D01*
X89677380Y-68095904D02*
X89725000Y-68143523D01*
X89725000Y-68143523D02*
X89772619Y-68238761D01*
X89772619Y-68238761D02*
X89772619Y-68524475D01*
X89772619Y-68524475D02*
X89725000Y-68619713D01*
X89725000Y-68619713D02*
X89677380Y-68667332D01*
%TO.C,R1*%
X106513333Y-21418619D02*
X106180000Y-20942428D01*
X105941905Y-21418619D02*
X105941905Y-20418619D01*
X105941905Y-20418619D02*
X106322857Y-20418619D01*
X106322857Y-20418619D02*
X106418095Y-20466238D01*
X106418095Y-20466238D02*
X106465714Y-20513857D01*
X106465714Y-20513857D02*
X106513333Y-20609095D01*
X106513333Y-20609095D02*
X106513333Y-20751952D01*
X106513333Y-20751952D02*
X106465714Y-20847190D01*
X106465714Y-20847190D02*
X106418095Y-20894809D01*
X106418095Y-20894809D02*
X106322857Y-20942428D01*
X106322857Y-20942428D02*
X105941905Y-20942428D01*
X107465714Y-21418619D02*
X106894286Y-21418619D01*
X107180000Y-21418619D02*
X107180000Y-20418619D01*
X107180000Y-20418619D02*
X107084762Y-20561476D01*
X107084762Y-20561476D02*
X106989524Y-20656714D01*
X106989524Y-20656714D02*
X106894286Y-20704333D01*
%TO.C,B1*%
X65889238Y-55310809D02*
X66032095Y-55358428D01*
X66032095Y-55358428D02*
X66079714Y-55406047D01*
X66079714Y-55406047D02*
X66127333Y-55501285D01*
X66127333Y-55501285D02*
X66127333Y-55644142D01*
X66127333Y-55644142D02*
X66079714Y-55739380D01*
X66079714Y-55739380D02*
X66032095Y-55787000D01*
X66032095Y-55787000D02*
X65936857Y-55834619D01*
X65936857Y-55834619D02*
X65555905Y-55834619D01*
X65555905Y-55834619D02*
X65555905Y-54834619D01*
X65555905Y-54834619D02*
X65889238Y-54834619D01*
X65889238Y-54834619D02*
X65984476Y-54882238D01*
X65984476Y-54882238D02*
X66032095Y-54929857D01*
X66032095Y-54929857D02*
X66079714Y-55025095D01*
X66079714Y-55025095D02*
X66079714Y-55120333D01*
X66079714Y-55120333D02*
X66032095Y-55215571D01*
X66032095Y-55215571D02*
X65984476Y-55263190D01*
X65984476Y-55263190D02*
X65889238Y-55310809D01*
X65889238Y-55310809D02*
X65555905Y-55310809D01*
X67079714Y-55834619D02*
X66508286Y-55834619D01*
X66794000Y-55834619D02*
X66794000Y-54834619D01*
X66794000Y-54834619D02*
X66698762Y-54977476D01*
X66698762Y-54977476D02*
X66603524Y-55072714D01*
X66603524Y-55072714D02*
X66508286Y-55120333D01*
%TO.C,R10*%
X143629142Y-67010619D02*
X143295809Y-66534428D01*
X143057714Y-67010619D02*
X143057714Y-66010619D01*
X143057714Y-66010619D02*
X143438666Y-66010619D01*
X143438666Y-66010619D02*
X143533904Y-66058238D01*
X143533904Y-66058238D02*
X143581523Y-66105857D01*
X143581523Y-66105857D02*
X143629142Y-66201095D01*
X143629142Y-66201095D02*
X143629142Y-66343952D01*
X143629142Y-66343952D02*
X143581523Y-66439190D01*
X143581523Y-66439190D02*
X143533904Y-66486809D01*
X143533904Y-66486809D02*
X143438666Y-66534428D01*
X143438666Y-66534428D02*
X143057714Y-66534428D01*
X144581523Y-67010619D02*
X144010095Y-67010619D01*
X144295809Y-67010619D02*
X144295809Y-66010619D01*
X144295809Y-66010619D02*
X144200571Y-66153476D01*
X144200571Y-66153476D02*
X144105333Y-66248714D01*
X144105333Y-66248714D02*
X144010095Y-66296333D01*
X145200571Y-66010619D02*
X145295809Y-66010619D01*
X145295809Y-66010619D02*
X145391047Y-66058238D01*
X145391047Y-66058238D02*
X145438666Y-66105857D01*
X145438666Y-66105857D02*
X145486285Y-66201095D01*
X145486285Y-66201095D02*
X145533904Y-66391571D01*
X145533904Y-66391571D02*
X145533904Y-66629666D01*
X145533904Y-66629666D02*
X145486285Y-66820142D01*
X145486285Y-66820142D02*
X145438666Y-66915380D01*
X145438666Y-66915380D02*
X145391047Y-66963000D01*
X145391047Y-66963000D02*
X145295809Y-67010619D01*
X145295809Y-67010619D02*
X145200571Y-67010619D01*
X145200571Y-67010619D02*
X145105333Y-66963000D01*
X145105333Y-66963000D02*
X145057714Y-66915380D01*
X145057714Y-66915380D02*
X145010095Y-66820142D01*
X145010095Y-66820142D02*
X144962476Y-66629666D01*
X144962476Y-66629666D02*
X144962476Y-66391571D01*
X144962476Y-66391571D02*
X145010095Y-66201095D01*
X145010095Y-66201095D02*
X145057714Y-66105857D01*
X145057714Y-66105857D02*
X145105333Y-66058238D01*
X145105333Y-66058238D02*
X145200571Y-66010619D01*
%TO.C,R6*%
X108418333Y-60405619D02*
X108085000Y-59929428D01*
X107846905Y-60405619D02*
X107846905Y-59405619D01*
X107846905Y-59405619D02*
X108227857Y-59405619D01*
X108227857Y-59405619D02*
X108323095Y-59453238D01*
X108323095Y-59453238D02*
X108370714Y-59500857D01*
X108370714Y-59500857D02*
X108418333Y-59596095D01*
X108418333Y-59596095D02*
X108418333Y-59738952D01*
X108418333Y-59738952D02*
X108370714Y-59834190D01*
X108370714Y-59834190D02*
X108323095Y-59881809D01*
X108323095Y-59881809D02*
X108227857Y-59929428D01*
X108227857Y-59929428D02*
X107846905Y-59929428D01*
X109275476Y-59405619D02*
X109085000Y-59405619D01*
X109085000Y-59405619D02*
X108989762Y-59453238D01*
X108989762Y-59453238D02*
X108942143Y-59500857D01*
X108942143Y-59500857D02*
X108846905Y-59643714D01*
X108846905Y-59643714D02*
X108799286Y-59834190D01*
X108799286Y-59834190D02*
X108799286Y-60215142D01*
X108799286Y-60215142D02*
X108846905Y-60310380D01*
X108846905Y-60310380D02*
X108894524Y-60358000D01*
X108894524Y-60358000D02*
X108989762Y-60405619D01*
X108989762Y-60405619D02*
X109180238Y-60405619D01*
X109180238Y-60405619D02*
X109275476Y-60358000D01*
X109275476Y-60358000D02*
X109323095Y-60310380D01*
X109323095Y-60310380D02*
X109370714Y-60215142D01*
X109370714Y-60215142D02*
X109370714Y-59977047D01*
X109370714Y-59977047D02*
X109323095Y-59881809D01*
X109323095Y-59881809D02*
X109275476Y-59834190D01*
X109275476Y-59834190D02*
X109180238Y-59786571D01*
X109180238Y-59786571D02*
X108989762Y-59786571D01*
X108989762Y-59786571D02*
X108894524Y-59834190D01*
X108894524Y-59834190D02*
X108846905Y-59881809D01*
X108846905Y-59881809D02*
X108799286Y-59977047D01*
%TO.C,R7*%
X106635619Y-63666666D02*
X106159428Y-63999999D01*
X106635619Y-64238094D02*
X105635619Y-64238094D01*
X105635619Y-64238094D02*
X105635619Y-63857142D01*
X105635619Y-63857142D02*
X105683238Y-63761904D01*
X105683238Y-63761904D02*
X105730857Y-63714285D01*
X105730857Y-63714285D02*
X105826095Y-63666666D01*
X105826095Y-63666666D02*
X105968952Y-63666666D01*
X105968952Y-63666666D02*
X106064190Y-63714285D01*
X106064190Y-63714285D02*
X106111809Y-63761904D01*
X106111809Y-63761904D02*
X106159428Y-63857142D01*
X106159428Y-63857142D02*
X106159428Y-64238094D01*
X105635619Y-63333332D02*
X105635619Y-62666666D01*
X105635619Y-62666666D02*
X106635619Y-63095237D01*
%TO.C,Q1*%
X110648761Y-64565857D02*
X110553523Y-64518238D01*
X110553523Y-64518238D02*
X110458285Y-64423000D01*
X110458285Y-64423000D02*
X110315428Y-64280142D01*
X110315428Y-64280142D02*
X110220190Y-64232523D01*
X110220190Y-64232523D02*
X110124952Y-64232523D01*
X110172571Y-64470619D02*
X110077333Y-64423000D01*
X110077333Y-64423000D02*
X109982095Y-64327761D01*
X109982095Y-64327761D02*
X109934476Y-64137285D01*
X109934476Y-64137285D02*
X109934476Y-63803952D01*
X109934476Y-63803952D02*
X109982095Y-63613476D01*
X109982095Y-63613476D02*
X110077333Y-63518238D01*
X110077333Y-63518238D02*
X110172571Y-63470619D01*
X110172571Y-63470619D02*
X110363047Y-63470619D01*
X110363047Y-63470619D02*
X110458285Y-63518238D01*
X110458285Y-63518238D02*
X110553523Y-63613476D01*
X110553523Y-63613476D02*
X110601142Y-63803952D01*
X110601142Y-63803952D02*
X110601142Y-64137285D01*
X110601142Y-64137285D02*
X110553523Y-64327761D01*
X110553523Y-64327761D02*
X110458285Y-64423000D01*
X110458285Y-64423000D02*
X110363047Y-64470619D01*
X110363047Y-64470619D02*
X110172571Y-64470619D01*
X111553523Y-64470619D02*
X110982095Y-64470619D01*
X111267809Y-64470619D02*
X111267809Y-63470619D01*
X111267809Y-63470619D02*
X111172571Y-63613476D01*
X111172571Y-63613476D02*
X111077333Y-63708714D01*
X111077333Y-63708714D02*
X110982095Y-63756333D01*
%TO.C,J3*%
X147036619Y-92027333D02*
X147750904Y-92027333D01*
X147750904Y-92027333D02*
X147893761Y-92074952D01*
X147893761Y-92074952D02*
X147989000Y-92170190D01*
X147989000Y-92170190D02*
X148036619Y-92313047D01*
X148036619Y-92313047D02*
X148036619Y-92408285D01*
X147036619Y-91646380D02*
X147036619Y-91027333D01*
X147036619Y-91027333D02*
X147417571Y-91360666D01*
X147417571Y-91360666D02*
X147417571Y-91217809D01*
X147417571Y-91217809D02*
X147465190Y-91122571D01*
X147465190Y-91122571D02*
X147512809Y-91074952D01*
X147512809Y-91074952D02*
X147608047Y-91027333D01*
X147608047Y-91027333D02*
X147846142Y-91027333D01*
X147846142Y-91027333D02*
X147941380Y-91074952D01*
X147941380Y-91074952D02*
X147989000Y-91122571D01*
X147989000Y-91122571D02*
X148036619Y-91217809D01*
X148036619Y-91217809D02*
X148036619Y-91503523D01*
X148036619Y-91503523D02*
X147989000Y-91598761D01*
X147989000Y-91598761D02*
X147941380Y-91646380D01*
%TO.C,J2*%
X147036619Y-108537333D02*
X147750904Y-108537333D01*
X147750904Y-108537333D02*
X147893761Y-108584952D01*
X147893761Y-108584952D02*
X147989000Y-108680190D01*
X147989000Y-108680190D02*
X148036619Y-108823047D01*
X148036619Y-108823047D02*
X148036619Y-108918285D01*
X147131857Y-108108761D02*
X147084238Y-108061142D01*
X147084238Y-108061142D02*
X147036619Y-107965904D01*
X147036619Y-107965904D02*
X147036619Y-107727809D01*
X147036619Y-107727809D02*
X147084238Y-107632571D01*
X147084238Y-107632571D02*
X147131857Y-107584952D01*
X147131857Y-107584952D02*
X147227095Y-107537333D01*
X147227095Y-107537333D02*
X147322333Y-107537333D01*
X147322333Y-107537333D02*
X147465190Y-107584952D01*
X147465190Y-107584952D02*
X148036619Y-108156380D01*
X148036619Y-108156380D02*
X148036619Y-107537333D01*
%TO.C,C4*%
X92521833Y-64531380D02*
X92474214Y-64579000D01*
X92474214Y-64579000D02*
X92331357Y-64626619D01*
X92331357Y-64626619D02*
X92236119Y-64626619D01*
X92236119Y-64626619D02*
X92093262Y-64579000D01*
X92093262Y-64579000D02*
X91998024Y-64483761D01*
X91998024Y-64483761D02*
X91950405Y-64388523D01*
X91950405Y-64388523D02*
X91902786Y-64198047D01*
X91902786Y-64198047D02*
X91902786Y-64055190D01*
X91902786Y-64055190D02*
X91950405Y-63864714D01*
X91950405Y-63864714D02*
X91998024Y-63769476D01*
X91998024Y-63769476D02*
X92093262Y-63674238D01*
X92093262Y-63674238D02*
X92236119Y-63626619D01*
X92236119Y-63626619D02*
X92331357Y-63626619D01*
X92331357Y-63626619D02*
X92474214Y-63674238D01*
X92474214Y-63674238D02*
X92521833Y-63721857D01*
X93378976Y-63959952D02*
X93378976Y-64626619D01*
X93140881Y-63579000D02*
X92902786Y-64293285D01*
X92902786Y-64293285D02*
X93521833Y-64293285D01*
%TO.C,R2*%
X110698619Y-26820666D02*
X110222428Y-27153999D01*
X110698619Y-27392094D02*
X109698619Y-27392094D01*
X109698619Y-27392094D02*
X109698619Y-27011142D01*
X109698619Y-27011142D02*
X109746238Y-26915904D01*
X109746238Y-26915904D02*
X109793857Y-26868285D01*
X109793857Y-26868285D02*
X109889095Y-26820666D01*
X109889095Y-26820666D02*
X110031952Y-26820666D01*
X110031952Y-26820666D02*
X110127190Y-26868285D01*
X110127190Y-26868285D02*
X110174809Y-26915904D01*
X110174809Y-26915904D02*
X110222428Y-27011142D01*
X110222428Y-27011142D02*
X110222428Y-27392094D01*
X109793857Y-26439713D02*
X109746238Y-26392094D01*
X109746238Y-26392094D02*
X109698619Y-26296856D01*
X109698619Y-26296856D02*
X109698619Y-26058761D01*
X109698619Y-26058761D02*
X109746238Y-25963523D01*
X109746238Y-25963523D02*
X109793857Y-25915904D01*
X109793857Y-25915904D02*
X109889095Y-25868285D01*
X109889095Y-25868285D02*
X109984333Y-25868285D01*
X109984333Y-25868285D02*
X110127190Y-25915904D01*
X110127190Y-25915904D02*
X110698619Y-26487332D01*
X110698619Y-26487332D02*
X110698619Y-25868285D01*
%TO.C,U2*%
X91826595Y-65708619D02*
X91826595Y-66518142D01*
X91826595Y-66518142D02*
X91874214Y-66613380D01*
X91874214Y-66613380D02*
X91921833Y-66661000D01*
X91921833Y-66661000D02*
X92017071Y-66708619D01*
X92017071Y-66708619D02*
X92207547Y-66708619D01*
X92207547Y-66708619D02*
X92302785Y-66661000D01*
X92302785Y-66661000D02*
X92350404Y-66613380D01*
X92350404Y-66613380D02*
X92398023Y-66518142D01*
X92398023Y-66518142D02*
X92398023Y-65708619D01*
X92826595Y-65803857D02*
X92874214Y-65756238D01*
X92874214Y-65756238D02*
X92969452Y-65708619D01*
X92969452Y-65708619D02*
X93207547Y-65708619D01*
X93207547Y-65708619D02*
X93302785Y-65756238D01*
X93302785Y-65756238D02*
X93350404Y-65803857D01*
X93350404Y-65803857D02*
X93398023Y-65899095D01*
X93398023Y-65899095D02*
X93398023Y-65994333D01*
X93398023Y-65994333D02*
X93350404Y-66137190D01*
X93350404Y-66137190D02*
X92778976Y-66708619D01*
X92778976Y-66708619D02*
X93398023Y-66708619D01*
%TO.C,R9*%
X117839833Y-64344619D02*
X117506500Y-63868428D01*
X117268405Y-64344619D02*
X117268405Y-63344619D01*
X117268405Y-63344619D02*
X117649357Y-63344619D01*
X117649357Y-63344619D02*
X117744595Y-63392238D01*
X117744595Y-63392238D02*
X117792214Y-63439857D01*
X117792214Y-63439857D02*
X117839833Y-63535095D01*
X117839833Y-63535095D02*
X117839833Y-63677952D01*
X117839833Y-63677952D02*
X117792214Y-63773190D01*
X117792214Y-63773190D02*
X117744595Y-63820809D01*
X117744595Y-63820809D02*
X117649357Y-63868428D01*
X117649357Y-63868428D02*
X117268405Y-63868428D01*
X118316024Y-64344619D02*
X118506500Y-64344619D01*
X118506500Y-64344619D02*
X118601738Y-64297000D01*
X118601738Y-64297000D02*
X118649357Y-64249380D01*
X118649357Y-64249380D02*
X118744595Y-64106523D01*
X118744595Y-64106523D02*
X118792214Y-63916047D01*
X118792214Y-63916047D02*
X118792214Y-63535095D01*
X118792214Y-63535095D02*
X118744595Y-63439857D01*
X118744595Y-63439857D02*
X118696976Y-63392238D01*
X118696976Y-63392238D02*
X118601738Y-63344619D01*
X118601738Y-63344619D02*
X118411262Y-63344619D01*
X118411262Y-63344619D02*
X118316024Y-63392238D01*
X118316024Y-63392238D02*
X118268405Y-63439857D01*
X118268405Y-63439857D02*
X118220786Y-63535095D01*
X118220786Y-63535095D02*
X118220786Y-63773190D01*
X118220786Y-63773190D02*
X118268405Y-63868428D01*
X118268405Y-63868428D02*
X118316024Y-63916047D01*
X118316024Y-63916047D02*
X118411262Y-63963666D01*
X118411262Y-63963666D02*
X118601738Y-63963666D01*
X118601738Y-63963666D02*
X118696976Y-63916047D01*
X118696976Y-63916047D02*
X118744595Y-63868428D01*
X118744595Y-63868428D02*
X118792214Y-63773190D01*
%TO.C,U3*%
X101732595Y-29754619D02*
X101732595Y-30564142D01*
X101732595Y-30564142D02*
X101780214Y-30659380D01*
X101780214Y-30659380D02*
X101827833Y-30707000D01*
X101827833Y-30707000D02*
X101923071Y-30754619D01*
X101923071Y-30754619D02*
X102113547Y-30754619D01*
X102113547Y-30754619D02*
X102208785Y-30707000D01*
X102208785Y-30707000D02*
X102256404Y-30659380D01*
X102256404Y-30659380D02*
X102304023Y-30564142D01*
X102304023Y-30564142D02*
X102304023Y-29754619D01*
X102684976Y-29754619D02*
X103304023Y-29754619D01*
X103304023Y-29754619D02*
X102970690Y-30135571D01*
X102970690Y-30135571D02*
X103113547Y-30135571D01*
X103113547Y-30135571D02*
X103208785Y-30183190D01*
X103208785Y-30183190D02*
X103256404Y-30230809D01*
X103256404Y-30230809D02*
X103304023Y-30326047D01*
X103304023Y-30326047D02*
X103304023Y-30564142D01*
X103304023Y-30564142D02*
X103256404Y-30659380D01*
X103256404Y-30659380D02*
X103208785Y-30707000D01*
X103208785Y-30707000D02*
X103113547Y-30754619D01*
X103113547Y-30754619D02*
X102827833Y-30754619D01*
X102827833Y-30754619D02*
X102732595Y-30707000D01*
X102732595Y-30707000D02*
X102684976Y-30659380D01*
D11*
%TO.C,C6*%
X119627880Y-90082666D02*
X119675500Y-90130285D01*
X119675500Y-90130285D02*
X119723119Y-90273142D01*
X119723119Y-90273142D02*
X119723119Y-90368380D01*
X119723119Y-90368380D02*
X119675500Y-90511237D01*
X119675500Y-90511237D02*
X119580261Y-90606475D01*
X119580261Y-90606475D02*
X119485023Y-90654094D01*
X119485023Y-90654094D02*
X119294547Y-90701713D01*
X119294547Y-90701713D02*
X119151690Y-90701713D01*
X119151690Y-90701713D02*
X118961214Y-90654094D01*
X118961214Y-90654094D02*
X118865976Y-90606475D01*
X118865976Y-90606475D02*
X118770738Y-90511237D01*
X118770738Y-90511237D02*
X118723119Y-90368380D01*
X118723119Y-90368380D02*
X118723119Y-90273142D01*
X118723119Y-90273142D02*
X118770738Y-90130285D01*
X118770738Y-90130285D02*
X118818357Y-90082666D01*
X118723119Y-89225523D02*
X118723119Y-89415999D01*
X118723119Y-89415999D02*
X118770738Y-89511237D01*
X118770738Y-89511237D02*
X118818357Y-89558856D01*
X118818357Y-89558856D02*
X118961214Y-89654094D01*
X118961214Y-89654094D02*
X119151690Y-89701713D01*
X119151690Y-89701713D02*
X119532642Y-89701713D01*
X119532642Y-89701713D02*
X119627880Y-89654094D01*
X119627880Y-89654094D02*
X119675500Y-89606475D01*
X119675500Y-89606475D02*
X119723119Y-89511237D01*
X119723119Y-89511237D02*
X119723119Y-89320761D01*
X119723119Y-89320761D02*
X119675500Y-89225523D01*
X119675500Y-89225523D02*
X119627880Y-89177904D01*
X119627880Y-89177904D02*
X119532642Y-89130285D01*
X119532642Y-89130285D02*
X119294547Y-89130285D01*
X119294547Y-89130285D02*
X119199309Y-89177904D01*
X119199309Y-89177904D02*
X119151690Y-89225523D01*
X119151690Y-89225523D02*
X119104071Y-89320761D01*
X119104071Y-89320761D02*
X119104071Y-89511237D01*
X119104071Y-89511237D02*
X119151690Y-89606475D01*
X119151690Y-89606475D02*
X119199309Y-89654094D01*
X119199309Y-89654094D02*
X119294547Y-89701713D01*
D10*
%TO.C,C1*%
X97877333Y-85203380D02*
X97829714Y-85251000D01*
X97829714Y-85251000D02*
X97686857Y-85298619D01*
X97686857Y-85298619D02*
X97591619Y-85298619D01*
X97591619Y-85298619D02*
X97448762Y-85251000D01*
X97448762Y-85251000D02*
X97353524Y-85155761D01*
X97353524Y-85155761D02*
X97305905Y-85060523D01*
X97305905Y-85060523D02*
X97258286Y-84870047D01*
X97258286Y-84870047D02*
X97258286Y-84727190D01*
X97258286Y-84727190D02*
X97305905Y-84536714D01*
X97305905Y-84536714D02*
X97353524Y-84441476D01*
X97353524Y-84441476D02*
X97448762Y-84346238D01*
X97448762Y-84346238D02*
X97591619Y-84298619D01*
X97591619Y-84298619D02*
X97686857Y-84298619D01*
X97686857Y-84298619D02*
X97829714Y-84346238D01*
X97829714Y-84346238D02*
X97877333Y-84393857D01*
X98829714Y-85298619D02*
X98258286Y-85298619D01*
X98544000Y-85298619D02*
X98544000Y-84298619D01*
X98544000Y-84298619D02*
X98448762Y-84441476D01*
X98448762Y-84441476D02*
X98353524Y-84536714D01*
X98353524Y-84536714D02*
X98258286Y-84584333D01*
%TO.C,C5*%
X115149333Y-29675380D02*
X115101714Y-29723000D01*
X115101714Y-29723000D02*
X114958857Y-29770619D01*
X114958857Y-29770619D02*
X114863619Y-29770619D01*
X114863619Y-29770619D02*
X114720762Y-29723000D01*
X114720762Y-29723000D02*
X114625524Y-29627761D01*
X114625524Y-29627761D02*
X114577905Y-29532523D01*
X114577905Y-29532523D02*
X114530286Y-29342047D01*
X114530286Y-29342047D02*
X114530286Y-29199190D01*
X114530286Y-29199190D02*
X114577905Y-29008714D01*
X114577905Y-29008714D02*
X114625524Y-28913476D01*
X114625524Y-28913476D02*
X114720762Y-28818238D01*
X114720762Y-28818238D02*
X114863619Y-28770619D01*
X114863619Y-28770619D02*
X114958857Y-28770619D01*
X114958857Y-28770619D02*
X115101714Y-28818238D01*
X115101714Y-28818238D02*
X115149333Y-28865857D01*
X116054095Y-28770619D02*
X115577905Y-28770619D01*
X115577905Y-28770619D02*
X115530286Y-29246809D01*
X115530286Y-29246809D02*
X115577905Y-29199190D01*
X115577905Y-29199190D02*
X115673143Y-29151571D01*
X115673143Y-29151571D02*
X115911238Y-29151571D01*
X115911238Y-29151571D02*
X116006476Y-29199190D01*
X116006476Y-29199190D02*
X116054095Y-29246809D01*
X116054095Y-29246809D02*
X116101714Y-29342047D01*
X116101714Y-29342047D02*
X116101714Y-29580142D01*
X116101714Y-29580142D02*
X116054095Y-29675380D01*
X116054095Y-29675380D02*
X116006476Y-29723000D01*
X116006476Y-29723000D02*
X115911238Y-29770619D01*
X115911238Y-29770619D02*
X115673143Y-29770619D01*
X115673143Y-29770619D02*
X115577905Y-29723000D01*
X115577905Y-29723000D02*
X115530286Y-29675380D01*
%TO.C,J4*%
X80946666Y-30196619D02*
X80946666Y-30910904D01*
X80946666Y-30910904D02*
X80899047Y-31053761D01*
X80899047Y-31053761D02*
X80803809Y-31149000D01*
X80803809Y-31149000D02*
X80660952Y-31196619D01*
X80660952Y-31196619D02*
X80565714Y-31196619D01*
X81851428Y-30529952D02*
X81851428Y-31196619D01*
X81613333Y-30149000D02*
X81375238Y-30863285D01*
X81375238Y-30863285D02*
X81994285Y-30863285D01*
%TO.C,Q2*%
X137064761Y-63168857D02*
X136969523Y-63121238D01*
X136969523Y-63121238D02*
X136874285Y-63026000D01*
X136874285Y-63026000D02*
X136731428Y-62883142D01*
X136731428Y-62883142D02*
X136636190Y-62835523D01*
X136636190Y-62835523D02*
X136540952Y-62835523D01*
X136588571Y-63073619D02*
X136493333Y-63026000D01*
X136493333Y-63026000D02*
X136398095Y-62930761D01*
X136398095Y-62930761D02*
X136350476Y-62740285D01*
X136350476Y-62740285D02*
X136350476Y-62406952D01*
X136350476Y-62406952D02*
X136398095Y-62216476D01*
X136398095Y-62216476D02*
X136493333Y-62121238D01*
X136493333Y-62121238D02*
X136588571Y-62073619D01*
X136588571Y-62073619D02*
X136779047Y-62073619D01*
X136779047Y-62073619D02*
X136874285Y-62121238D01*
X136874285Y-62121238D02*
X136969523Y-62216476D01*
X136969523Y-62216476D02*
X137017142Y-62406952D01*
X137017142Y-62406952D02*
X137017142Y-62740285D01*
X137017142Y-62740285D02*
X136969523Y-62930761D01*
X136969523Y-62930761D02*
X136874285Y-63026000D01*
X136874285Y-63026000D02*
X136779047Y-63073619D01*
X136779047Y-63073619D02*
X136588571Y-63073619D01*
X137398095Y-62168857D02*
X137445714Y-62121238D01*
X137445714Y-62121238D02*
X137540952Y-62073619D01*
X137540952Y-62073619D02*
X137779047Y-62073619D01*
X137779047Y-62073619D02*
X137874285Y-62121238D01*
X137874285Y-62121238D02*
X137921904Y-62168857D01*
X137921904Y-62168857D02*
X137969523Y-62264095D01*
X137969523Y-62264095D02*
X137969523Y-62359333D01*
X137969523Y-62359333D02*
X137921904Y-62502190D01*
X137921904Y-62502190D02*
X137350476Y-63073619D01*
X137350476Y-63073619D02*
X137969523Y-63073619D01*
%TO.C,PS1*%
X95559714Y-28148619D02*
X95559714Y-27148619D01*
X95559714Y-27148619D02*
X95940666Y-27148619D01*
X95940666Y-27148619D02*
X96035904Y-27196238D01*
X96035904Y-27196238D02*
X96083523Y-27243857D01*
X96083523Y-27243857D02*
X96131142Y-27339095D01*
X96131142Y-27339095D02*
X96131142Y-27481952D01*
X96131142Y-27481952D02*
X96083523Y-27577190D01*
X96083523Y-27577190D02*
X96035904Y-27624809D01*
X96035904Y-27624809D02*
X95940666Y-27672428D01*
X95940666Y-27672428D02*
X95559714Y-27672428D01*
X96512095Y-28101000D02*
X96654952Y-28148619D01*
X96654952Y-28148619D02*
X96893047Y-28148619D01*
X96893047Y-28148619D02*
X96988285Y-28101000D01*
X96988285Y-28101000D02*
X97035904Y-28053380D01*
X97035904Y-28053380D02*
X97083523Y-27958142D01*
X97083523Y-27958142D02*
X97083523Y-27862904D01*
X97083523Y-27862904D02*
X97035904Y-27767666D01*
X97035904Y-27767666D02*
X96988285Y-27720047D01*
X96988285Y-27720047D02*
X96893047Y-27672428D01*
X96893047Y-27672428D02*
X96702571Y-27624809D01*
X96702571Y-27624809D02*
X96607333Y-27577190D01*
X96607333Y-27577190D02*
X96559714Y-27529571D01*
X96559714Y-27529571D02*
X96512095Y-27434333D01*
X96512095Y-27434333D02*
X96512095Y-27339095D01*
X96512095Y-27339095D02*
X96559714Y-27243857D01*
X96559714Y-27243857D02*
X96607333Y-27196238D01*
X96607333Y-27196238D02*
X96702571Y-27148619D01*
X96702571Y-27148619D02*
X96940666Y-27148619D01*
X96940666Y-27148619D02*
X97083523Y-27196238D01*
X98035904Y-28148619D02*
X97464476Y-28148619D01*
X97750190Y-28148619D02*
X97750190Y-27148619D01*
X97750190Y-27148619D02*
X97654952Y-27291476D01*
X97654952Y-27291476D02*
X97559714Y-27386714D01*
X97559714Y-27386714D02*
X97464476Y-27434333D01*
%TO.C,K1*%
X120673905Y-32974619D02*
X120673905Y-31974619D01*
X121245333Y-32974619D02*
X120816762Y-32403190D01*
X121245333Y-31974619D02*
X120673905Y-32546047D01*
X122197714Y-32974619D02*
X121626286Y-32974619D01*
X121912000Y-32974619D02*
X121912000Y-31974619D01*
X121912000Y-31974619D02*
X121816762Y-32117476D01*
X121816762Y-32117476D02*
X121721524Y-32212714D01*
X121721524Y-32212714D02*
X121626286Y-32260333D01*
%TO.C,J1*%
X74342666Y-112746619D02*
X74342666Y-113460904D01*
X74342666Y-113460904D02*
X74295047Y-113603761D01*
X74295047Y-113603761D02*
X74199809Y-113699000D01*
X74199809Y-113699000D02*
X74056952Y-113746619D01*
X74056952Y-113746619D02*
X73961714Y-113746619D01*
X75342666Y-113746619D02*
X74771238Y-113746619D01*
X75056952Y-113746619D02*
X75056952Y-112746619D01*
X75056952Y-112746619D02*
X74961714Y-112889476D01*
X74961714Y-112889476D02*
X74866476Y-112984714D01*
X74866476Y-112984714D02*
X74771238Y-113032333D01*
%TO.C,R8*%
X113752333Y-61296619D02*
X113419000Y-60820428D01*
X113180905Y-61296619D02*
X113180905Y-60296619D01*
X113180905Y-60296619D02*
X113561857Y-60296619D01*
X113561857Y-60296619D02*
X113657095Y-60344238D01*
X113657095Y-60344238D02*
X113704714Y-60391857D01*
X113704714Y-60391857D02*
X113752333Y-60487095D01*
X113752333Y-60487095D02*
X113752333Y-60629952D01*
X113752333Y-60629952D02*
X113704714Y-60725190D01*
X113704714Y-60725190D02*
X113657095Y-60772809D01*
X113657095Y-60772809D02*
X113561857Y-60820428D01*
X113561857Y-60820428D02*
X113180905Y-60820428D01*
X114323762Y-60725190D02*
X114228524Y-60677571D01*
X114228524Y-60677571D02*
X114180905Y-60629952D01*
X114180905Y-60629952D02*
X114133286Y-60534714D01*
X114133286Y-60534714D02*
X114133286Y-60487095D01*
X114133286Y-60487095D02*
X114180905Y-60391857D01*
X114180905Y-60391857D02*
X114228524Y-60344238D01*
X114228524Y-60344238D02*
X114323762Y-60296619D01*
X114323762Y-60296619D02*
X114514238Y-60296619D01*
X114514238Y-60296619D02*
X114609476Y-60344238D01*
X114609476Y-60344238D02*
X114657095Y-60391857D01*
X114657095Y-60391857D02*
X114704714Y-60487095D01*
X114704714Y-60487095D02*
X114704714Y-60534714D01*
X114704714Y-60534714D02*
X114657095Y-60629952D01*
X114657095Y-60629952D02*
X114609476Y-60677571D01*
X114609476Y-60677571D02*
X114514238Y-60725190D01*
X114514238Y-60725190D02*
X114323762Y-60725190D01*
X114323762Y-60725190D02*
X114228524Y-60772809D01*
X114228524Y-60772809D02*
X114180905Y-60820428D01*
X114180905Y-60820428D02*
X114133286Y-60915666D01*
X114133286Y-60915666D02*
X114133286Y-61106142D01*
X114133286Y-61106142D02*
X114180905Y-61201380D01*
X114180905Y-61201380D02*
X114228524Y-61249000D01*
X114228524Y-61249000D02*
X114323762Y-61296619D01*
X114323762Y-61296619D02*
X114514238Y-61296619D01*
X114514238Y-61296619D02*
X114609476Y-61249000D01*
X114609476Y-61249000D02*
X114657095Y-61201380D01*
X114657095Y-61201380D02*
X114704714Y-61106142D01*
X114704714Y-61106142D02*
X114704714Y-60915666D01*
X114704714Y-60915666D02*
X114657095Y-60820428D01*
X114657095Y-60820428D02*
X114609476Y-60772809D01*
X114609476Y-60772809D02*
X114514238Y-60725190D01*
%TO.C,R5*%
X85932619Y-100480666D02*
X85456428Y-100813999D01*
X85932619Y-101052094D02*
X84932619Y-101052094D01*
X84932619Y-101052094D02*
X84932619Y-100671142D01*
X84932619Y-100671142D02*
X84980238Y-100575904D01*
X84980238Y-100575904D02*
X85027857Y-100528285D01*
X85027857Y-100528285D02*
X85123095Y-100480666D01*
X85123095Y-100480666D02*
X85265952Y-100480666D01*
X85265952Y-100480666D02*
X85361190Y-100528285D01*
X85361190Y-100528285D02*
X85408809Y-100575904D01*
X85408809Y-100575904D02*
X85456428Y-100671142D01*
X85456428Y-100671142D02*
X85456428Y-101052094D01*
X84932619Y-99575904D02*
X84932619Y-100052094D01*
X84932619Y-100052094D02*
X85408809Y-100099713D01*
X85408809Y-100099713D02*
X85361190Y-100052094D01*
X85361190Y-100052094D02*
X85313571Y-99956856D01*
X85313571Y-99956856D02*
X85313571Y-99718761D01*
X85313571Y-99718761D02*
X85361190Y-99623523D01*
X85361190Y-99623523D02*
X85408809Y-99575904D01*
X85408809Y-99575904D02*
X85504047Y-99528285D01*
X85504047Y-99528285D02*
X85742142Y-99528285D01*
X85742142Y-99528285D02*
X85837380Y-99575904D01*
X85837380Y-99575904D02*
X85885000Y-99623523D01*
X85885000Y-99623523D02*
X85932619Y-99718761D01*
X85932619Y-99718761D02*
X85932619Y-99956856D01*
X85932619Y-99956856D02*
X85885000Y-100052094D01*
X85885000Y-100052094D02*
X85837380Y-100099713D01*
%TO.C,R4*%
X93552619Y-100496666D02*
X93076428Y-100829999D01*
X93552619Y-101068094D02*
X92552619Y-101068094D01*
X92552619Y-101068094D02*
X92552619Y-100687142D01*
X92552619Y-100687142D02*
X92600238Y-100591904D01*
X92600238Y-100591904D02*
X92647857Y-100544285D01*
X92647857Y-100544285D02*
X92743095Y-100496666D01*
X92743095Y-100496666D02*
X92885952Y-100496666D01*
X92885952Y-100496666D02*
X92981190Y-100544285D01*
X92981190Y-100544285D02*
X93028809Y-100591904D01*
X93028809Y-100591904D02*
X93076428Y-100687142D01*
X93076428Y-100687142D02*
X93076428Y-101068094D01*
X92885952Y-99639523D02*
X93552619Y-99639523D01*
X92505000Y-99877618D02*
X93219285Y-100115713D01*
X93219285Y-100115713D02*
X93219285Y-99496666D01*
%TO.C,SW1*%
X137010667Y-32468000D02*
X137153524Y-32515619D01*
X137153524Y-32515619D02*
X137391619Y-32515619D01*
X137391619Y-32515619D02*
X137486857Y-32468000D01*
X137486857Y-32468000D02*
X137534476Y-32420380D01*
X137534476Y-32420380D02*
X137582095Y-32325142D01*
X137582095Y-32325142D02*
X137582095Y-32229904D01*
X137582095Y-32229904D02*
X137534476Y-32134666D01*
X137534476Y-32134666D02*
X137486857Y-32087047D01*
X137486857Y-32087047D02*
X137391619Y-32039428D01*
X137391619Y-32039428D02*
X137201143Y-31991809D01*
X137201143Y-31991809D02*
X137105905Y-31944190D01*
X137105905Y-31944190D02*
X137058286Y-31896571D01*
X137058286Y-31896571D02*
X137010667Y-31801333D01*
X137010667Y-31801333D02*
X137010667Y-31706095D01*
X137010667Y-31706095D02*
X137058286Y-31610857D01*
X137058286Y-31610857D02*
X137105905Y-31563238D01*
X137105905Y-31563238D02*
X137201143Y-31515619D01*
X137201143Y-31515619D02*
X137439238Y-31515619D01*
X137439238Y-31515619D02*
X137582095Y-31563238D01*
X137915429Y-31515619D02*
X138153524Y-32515619D01*
X138153524Y-32515619D02*
X138344000Y-31801333D01*
X138344000Y-31801333D02*
X138534476Y-32515619D01*
X138534476Y-32515619D02*
X138772572Y-31515619D01*
X139677333Y-32515619D02*
X139105905Y-32515619D01*
X139391619Y-32515619D02*
X139391619Y-31515619D01*
X139391619Y-31515619D02*
X139296381Y-31658476D01*
X139296381Y-31658476D02*
X139201143Y-31753714D01*
X139201143Y-31753714D02*
X139105905Y-31801333D01*
%TO.C,D3*%
X126261905Y-22782619D02*
X126261905Y-21782619D01*
X126261905Y-21782619D02*
X126500000Y-21782619D01*
X126500000Y-21782619D02*
X126642857Y-21830238D01*
X126642857Y-21830238D02*
X126738095Y-21925476D01*
X126738095Y-21925476D02*
X126785714Y-22020714D01*
X126785714Y-22020714D02*
X126833333Y-22211190D01*
X126833333Y-22211190D02*
X126833333Y-22354047D01*
X126833333Y-22354047D02*
X126785714Y-22544523D01*
X126785714Y-22544523D02*
X126738095Y-22639761D01*
X126738095Y-22639761D02*
X126642857Y-22735000D01*
X126642857Y-22735000D02*
X126500000Y-22782619D01*
X126500000Y-22782619D02*
X126261905Y-22782619D01*
X127166667Y-21782619D02*
X127785714Y-21782619D01*
X127785714Y-21782619D02*
X127452381Y-22163571D01*
X127452381Y-22163571D02*
X127595238Y-22163571D01*
X127595238Y-22163571D02*
X127690476Y-22211190D01*
X127690476Y-22211190D02*
X127738095Y-22258809D01*
X127738095Y-22258809D02*
X127785714Y-22354047D01*
X127785714Y-22354047D02*
X127785714Y-22592142D01*
X127785714Y-22592142D02*
X127738095Y-22687380D01*
X127738095Y-22687380D02*
X127690476Y-22735000D01*
X127690476Y-22735000D02*
X127595238Y-22782619D01*
X127595238Y-22782619D02*
X127309524Y-22782619D01*
X127309524Y-22782619D02*
X127214286Y-22735000D01*
X127214286Y-22735000D02*
X127166667Y-22687380D01*
%TO.C,D2*%
X114006000Y-19558000D02*
G75*
G03*
X114006000Y-19558000I-2500000J0D01*
G01*
%TO.C,D1*%
X119340000Y-19558000D02*
G75*
G03*
X119340000Y-19558000I-2500000J0D01*
G01*
%TO.C,D4*%
X146518000Y-59690000D02*
G75*
G03*
X146518000Y-59690000I-2500000J0D01*
G01*
%TO.C,U1*%
X114300000Y-102616000D02*
X104140000Y-102616000D01*
X114300000Y-67056000D02*
X114300000Y-102616000D01*
X111760000Y-67056000D02*
X114300000Y-67056000D01*
X111760000Y-67056000D02*
X110473324Y-68342676D01*
X107950000Y-68326000D02*
X110490000Y-68326000D01*
X106680000Y-67056000D02*
X107950000Y-68326000D01*
X104140000Y-102616000D02*
X104140000Y-67056000D01*
X104140000Y-67056000D02*
X106680000Y-67056000D01*
%TO.C,X1*%
X92456000Y-86360000D02*
X89916000Y-86360000D01*
X89916000Y-86360000D02*
X89916000Y-87376000D01*
X92456000Y-87376000D02*
X92456000Y-86360000D01*
X89916000Y-87376000D02*
X89916000Y-89916000D01*
X89916000Y-87376000D02*
X89916000Y-89916000D01*
X92456000Y-89916000D02*
X92456000Y-87376000D01*
X89916000Y-89916000D02*
X89916000Y-93472000D01*
X92456000Y-92456000D02*
X92456000Y-89916000D01*
X92456000Y-93472000D02*
X92456000Y-92456000D01*
X89916000Y-93472000D02*
X92456000Y-93472000D01*
D12*
%TO.C,R3*%
X116813000Y-26442936D02*
X116813000Y-26897064D01*
X115343000Y-26442936D02*
X115343000Y-26897064D01*
%TO.C,C2*%
X101353252Y-94261000D02*
X100830748Y-94261000D01*
X101353252Y-95731000D02*
X100830748Y-95731000D01*
%TO.C,C7*%
X88617248Y-31015000D02*
X89139752Y-31015000D01*
X88617248Y-32485000D02*
X89139752Y-32485000D01*
%TO.C,C3*%
X88365000Y-68572748D02*
X88365000Y-69095252D01*
X86895000Y-68572748D02*
X86895000Y-69095252D01*
%TO.C,R1*%
X106452936Y-21871000D02*
X106907064Y-21871000D01*
X106452936Y-23341000D02*
X106907064Y-23341000D01*
D10*
%TO.C,B1*%
X144906000Y-55956000D02*
X67946000Y-55956000D01*
X144906000Y-45466000D02*
X144906000Y-55956000D01*
X144906000Y-34976000D02*
X144906000Y-45466000D01*
X67946000Y-55956000D02*
X67946000Y-34976000D01*
X67946000Y-34976000D02*
X144906000Y-34976000D01*
D12*
%TO.C,R10*%
X144499064Y-65505000D02*
X144044936Y-65505000D01*
X144499064Y-64035000D02*
X144044936Y-64035000D01*
%TO.C,R6*%
X108812064Y-59028000D02*
X108357936Y-59028000D01*
X108812064Y-57558000D02*
X108357936Y-57558000D01*
%TO.C,R7*%
X107088000Y-63727064D02*
X107088000Y-63272936D01*
X108558000Y-63727064D02*
X108558000Y-63272936D01*
D10*
%TO.C,Q1*%
X109944000Y-60749000D02*
X109944000Y-63049000D01*
X109944000Y-63049000D02*
X111544000Y-63049000D01*
X111544000Y-60749000D02*
X109944000Y-60749000D01*
X111544000Y-62949000D02*
X111544000Y-60749000D01*
X111544000Y-63049000D02*
X111544000Y-62949000D01*
X110544000Y-61849000D02*
G75*
G03*
X110544000Y-61849000I-200000J0D01*
G01*
%TO.C,J3*%
X148742400Y-74930000D02*
X148742400Y-90170000D01*
X146202400Y-74930000D02*
X148742400Y-74930000D01*
X148742400Y-90170000D02*
X146202400Y-90170000D01*
X146202400Y-90170000D02*
X146202400Y-74930000D01*
%TO.C,J2*%
X146202400Y-106680000D02*
X146202400Y-93980000D01*
X148742400Y-106680000D02*
X146202400Y-106680000D01*
X146202400Y-93980000D02*
X148742400Y-93980000D01*
X148742400Y-93980000D02*
X148742400Y-106680000D01*
D12*
%TO.C,C4*%
X92949752Y-63219000D02*
X92427248Y-63219000D01*
X92949752Y-61749000D02*
X92427248Y-61749000D01*
%TO.C,R2*%
X111279000Y-26881064D02*
X111279000Y-26426936D01*
X112749000Y-26881064D02*
X112749000Y-26426936D01*
%TO.C,U2*%
X92588500Y-67086000D02*
X90788500Y-67086000D01*
X92588500Y-67086000D02*
X93388500Y-67086000D01*
X92588500Y-70206000D02*
X91788500Y-70206000D01*
X92588500Y-70206000D02*
X93388500Y-70206000D01*
%TO.C,R9*%
X117779436Y-64797000D02*
X118233564Y-64797000D01*
X117779436Y-66267000D02*
X118233564Y-66267000D01*
%TO.C,U3*%
X106812500Y-25176000D02*
X105012500Y-25176000D01*
X106812500Y-25176000D02*
X107612500Y-25176000D01*
X106812500Y-28296000D02*
X106012500Y-28296000D01*
X106812500Y-28296000D02*
X107612500Y-28296000D01*
%TO.C,C6*%
X116845500Y-89654748D02*
X116845500Y-90177252D01*
X118315500Y-89654748D02*
X118315500Y-90177252D01*
%TO.C,C1*%
X101353252Y-84101000D02*
X100830748Y-84101000D01*
X101353252Y-85571000D02*
X100830748Y-85571000D01*
%TO.C,C5*%
X115054748Y-30253000D02*
X115577252Y-30253000D01*
X115054748Y-31723000D02*
X115577252Y-31723000D01*
D10*
%TO.C,J4*%
X65198000Y-27306000D02*
X65198000Y-17906000D01*
X75898000Y-17906000D02*
X65198000Y-17906000D01*
X81898000Y-17906000D02*
X75898000Y-17906000D01*
X81898000Y-22606000D02*
X81898000Y-17906000D01*
X81898000Y-27306000D02*
X81898000Y-22606000D01*
%TO.C,Q2*%
X136360000Y-59098000D02*
X136360000Y-61398000D01*
X136360000Y-61398000D02*
X137960000Y-61398000D01*
X137960000Y-59098000D02*
X136360000Y-59098000D01*
X137960000Y-61298000D02*
X137960000Y-59098000D01*
X137960000Y-61398000D02*
X137960000Y-61298000D01*
X136960000Y-60198000D02*
G75*
G03*
X136960000Y-60198000I-200000J0D01*
G01*
%TO.C,PS1*%
X94869000Y-18034000D02*
X94869000Y-28194000D01*
X88519000Y-18034000D02*
X94869000Y-18034000D01*
X85979000Y-18034000D02*
X88519000Y-18034000D01*
X94869000Y-28194000D02*
X85979000Y-28194000D01*
X85979000Y-28194000D02*
X85979000Y-18034000D01*
%TO.C,K1*%
X120524000Y-23876000D02*
X133224000Y-23876000D01*
X120524000Y-31496000D02*
X120524000Y-23876000D01*
X133224000Y-23876000D02*
X133224000Y-31496000D01*
X133224000Y-31496000D02*
X120524000Y-31496000D01*
D12*
%TO.C,R8*%
X113691936Y-61749000D02*
X114146064Y-61749000D01*
X113691936Y-63219000D02*
X114146064Y-63219000D01*
%TO.C,R5*%
X84555000Y-100086936D02*
X84555000Y-100541064D01*
X83085000Y-100086936D02*
X83085000Y-100541064D01*
%TO.C,R4*%
X92175000Y-100102936D02*
X92175000Y-100557064D01*
X90705000Y-100102936D02*
X90705000Y-100557064D01*
D10*
%TO.C,SW1*%
X144594000Y-30428000D02*
X137094000Y-30428000D01*
X144594000Y-23928000D02*
X144594000Y-30428000D01*
X137094000Y-30428000D02*
X137094000Y-29615500D01*
X137094000Y-29615500D02*
X137094000Y-23928000D01*
X137094000Y-23928000D02*
X144594000Y-23928000D01*
D12*
%TO.C,D3*%
X129360000Y-21320000D02*
X129360000Y-19320000D01*
X129360000Y-21320000D02*
X125350000Y-21320000D01*
X129360000Y-19320000D02*
X125350000Y-19320000D01*
%TD*%
M02*
